M48
; DRILL file {KiCad 5.1.6} date Mon Sep 14 14:22:05 2020
; FORMAT={-:-/ absolute / inch / decimal}
; #@! TF.CreationDate,2020-09-14T14:22:05+02:00
; #@! TF.GenerationSoftware,Kicad,Pcbnew,5.1.6
; #@! TF.FileFunction,Plated,1,4,PTH
FMAT,2
INCH
T1C0.0118
T2C0.0157
T3C0.0197
T4C0.0394
T5C0.0984
T6C0.1063
%
G90
G05
T1
X3.5354Y-3.2244
X3.5354Y-3.2677
X3.5354Y-3.3189
X3.5354Y-3.3661
X3.5827Y-3.2244
X3.5827Y-3.2677
X3.5827Y-3.3189
X3.5827Y-3.3661
T2
X1.5059Y-2.6437
X1.5118Y-3.3268
X1.5619Y-2.0799
X1.5671Y-2.6929
X1.5866Y-2.1181
X1.6575Y-2.4961
X1.7126Y-2.3031
X1.7205Y-2.2598
X1.7362Y-3.5787
X1.8504Y-3.1142
X1.8583Y-2.0679
X1.8622Y-2.1142
X1.8701Y-3.1535
X1.9016Y-1.8622
X1.9016Y-2.5748
X1.9094Y-1.8228
X1.9488Y-2.3937
X1.9803Y-2.3268
X2.0501Y-2.7745
X2.1024Y-2.3504
X2.1063Y-2.4213
X2.128Y-1.8988
X2.1378Y-2.8543
X2.1535Y-2.9449
X2.1609Y-1.8735
X2.1614Y-3.1929
X2.2323Y-2.937
X2.2598Y-2.8268
X2.2598Y-3.2559
X2.2835Y-2.622
X2.3268Y-2.7402
X2.3425Y-2.9409
X2.4606Y-2.9134
X2.4606Y-3.0433
X2.4764Y-1.9055
X2.4764Y-1.9921
X2.4803Y-3.189
X2.5197Y-2.8071
X2.5669Y-2.878
X2.6575Y-3.1102
X2.6614Y-1.811
X2.6969Y-2.7205
X2.7067Y-1.7323
X2.7323Y-2.9488
X2.811Y-2.9134
X2.8514Y-3.2717
X2.878Y-2.9449
X2.9252Y-1.7835
X2.9606Y-2.4528
X3.0512Y-3.0157
X3.1024Y-3.5276
X3.1614Y-2.3484
X3.2461Y-1.7756
X3.378Y-3.4843
X3.3858Y-3.2185
X3.3957Y-2.8839
X3.3976Y-3.5787
X3.4331Y-3.5787
X3.435Y-2.8839
X3.4567Y-2.252
X3.4685Y-3.5787
X3.4744Y-2.8839
X3.4956Y-2.5005
X3.5Y-1.8307
X3.5138Y-2.8839
X3.5945Y-2.1339
X3.6634Y-2.6142
X3.8465Y-2.6339
X3.8465Y-3.2402
T3
X2.8337Y-2.0433
X2.8553Y-1.9911
X2.8553Y-2.0955
X2.9075Y-1.9695
X2.9075Y-2.1171
X2.9597Y-1.9911
X2.9597Y-2.0955
X2.9813Y-2.0433
X1.8642Y-3.4449
X1.9134Y-3.4449
X1.9626Y-3.4449
X2.0118Y-3.4449
X2.061Y-3.4449
X2.1102Y-3.4449
X2.1594Y-3.4449
X1.4951Y-3.5039
X1.5184Y-3.4476
X1.5184Y-3.5603
X1.5748Y-3.4242
X1.5748Y-3.5837
X1.6312Y-3.4476
X1.6312Y-3.5603
X1.6545Y-3.5039
X3.7785Y-3.5039
X3.8019Y-3.4476
X3.8019Y-3.5603
X3.8583Y-3.4242
X3.8583Y-3.5837
X3.9146Y-3.4476
X3.9146Y-3.5603
X3.938Y-3.5039
X2.8337Y-2.6811
X2.8553Y-2.6289
X2.8553Y-2.7333
X2.9075Y-2.6073
X2.9075Y-2.7549
X2.9597Y-2.6289
X2.9597Y-2.7333
X2.9813Y-2.6811
X1.6535Y-3.0089
X1.6535Y-3.0581
X1.6535Y-3.1073
X1.6535Y-3.1565
X1.6535Y-3.2057
X2.3307Y-3.4449
X2.3799Y-3.4449
X2.4291Y-3.4449
X2.4783Y-3.4449
X2.5276Y-3.4449
X2.5768Y-3.4449
X2.626Y-3.4449
X2.6752Y-3.4449
X2.7244Y-3.4449
X2.7736Y-3.4449
X2.8228Y-3.4449
X2.872Y-3.4449
X2.9213Y-3.4449
X2.9705Y-3.4449
X3.1732Y-2.5709
X3.1732Y-2.6201
X2.1959Y-2.0433
X2.2175Y-1.9911
X2.2175Y-2.0955
X2.2697Y-1.9695
X2.2697Y-2.1171
X2.3219Y-1.9911
X2.3219Y-2.0955
X2.3435Y-2.0433
X3.7785Y-1.5748
X3.8019Y-1.5184
X3.8019Y-1.6312
X3.8583Y-1.4951
X3.8583Y-1.6545
X3.9146Y-1.5184
X3.9146Y-1.6312
X3.938Y-1.5748
X1.4951Y-1.5748
X1.5184Y-1.5184
X1.5184Y-1.6312
X1.5748Y-1.4951
X1.5748Y-1.6545
X1.6312Y-1.5184
X1.6312Y-1.6312
X1.6545Y-1.5748
T4
X1.7665Y-1.5248
X1.7665Y-1.6248
X1.8665Y-1.5248
X1.8665Y-1.6248
X1.9665Y-1.5248
X1.9665Y-1.6248
X2.0665Y-1.5248
X2.0665Y-1.6248
X2.1665Y-1.5248
X2.1665Y-1.6248
X2.2665Y-1.5248
X2.2665Y-1.6248
X2.3665Y-1.5248
X2.3665Y-1.6248
X2.4665Y-1.5248
X2.4665Y-1.6248
X2.5665Y-1.5248
X2.5665Y-1.6248
X2.6665Y-1.5248
X2.6665Y-1.6248
X2.7665Y-1.5248
X2.7665Y-1.6248
X2.8665Y-1.5248
X2.8665Y-1.6248
X2.9665Y-1.5248
X2.9665Y-1.6248
X3.0665Y-1.5248
X3.0665Y-1.6248
X3.1665Y-1.5248
X3.1665Y-1.6248
X3.2665Y-1.5248
X3.2665Y-1.6248
X3.3665Y-1.5248
X3.3665Y-1.6248
X3.4665Y-1.5248
X3.4665Y-1.6248
X3.5665Y-1.5248
X3.5665Y-1.6248
X3.6665Y-1.5248
X3.6665Y-1.6248
T5
X2.9075Y-2.6811
X2.2697Y-2.0433
X2.9075Y-2.0433
T6
X3.8583Y-1.5748
X1.5748Y-1.5748
X1.5748Y-3.5039
X3.8583Y-3.5039
T0
M30
