%TF.GenerationSoftware,KiCad,Pcbnew,5.1.6*%
%TF.CreationDate,2020-09-14T14:33:22+02:00*%
%TF.ProjectId,pi-shield,70692d73-6869-4656-9c64-2e6b69636164,rev?*%
%TF.SameCoordinates,Original*%
%TF.FileFunction,Copper,L2,Inr*%
%TF.FilePolarity,Positive*%
%FSLAX46Y46*%
G04 Gerber Fmt 4.6, Leading zero omitted, Abs format (unit mm)*
G04 Created by KiCad (PCBNEW 5.1.6) date 2020-09-14 14:33:22*
%MOMM*%
%LPD*%
G01*
G04 APERTURE LIST*
%TA.AperFunction,ViaPad*%
%ADD10C,0.800000*%
%TD*%
%TA.AperFunction,ViaPad*%
%ADD11C,5.000000*%
%TD*%
%TA.AperFunction,ViaPad*%
%ADD12C,5.400000*%
%TD*%
%TA.AperFunction,ViaPad*%
%ADD13R,1.700000X1.700000*%
%TD*%
%TA.AperFunction,ViaPad*%
%ADD14O,1.700000X1.700000*%
%TD*%
%TA.AperFunction,ViaPad*%
%ADD15O,1.300000X0.800000*%
%TD*%
%TA.AperFunction,ViaPad*%
%ADD16C,0.600000*%
%TD*%
%TA.AperFunction,ViaPad*%
%ADD17O,0.800000X1.300000*%
%TD*%
%TA.AperFunction,Conductor*%
%ADD18C,0.250000*%
%TD*%
%TA.AperFunction,Conductor*%
%ADD19C,1.000000*%
%TD*%
%TA.AperFunction,Conductor*%
%ADD20C,0.800000*%
%TD*%
%TA.AperFunction,Conductor*%
%ADD21C,0.254000*%
%TD*%
G04 APERTURE END LIST*
D10*
%TO.N,GND*%
%TO.C,H1*%
X75175825Y-50574175D03*
X73850000Y-50025000D03*
X72524175Y-50574175D03*
X71975000Y-51900000D03*
X72524175Y-53225825D03*
X73850000Y-53775000D03*
X75175825Y-53225825D03*
X75725000Y-51900000D03*
D11*
X73850000Y-51900000D03*
%TD*%
%TO.N,GND*%
%TO.C,H2*%
X73850000Y-68100000D03*
D10*
X75725000Y-68100000D03*
X75175825Y-69425825D03*
X73850000Y-69975000D03*
X72524175Y-69425825D03*
X71975000Y-68100000D03*
X72524175Y-66774175D03*
X73850000Y-66225000D03*
X75175825Y-66774175D03*
%TD*%
D11*
%TO.N,GND*%
%TO.C,H3*%
X57650000Y-51900000D03*
D10*
X59525000Y-51900000D03*
X58975825Y-53225825D03*
X57650000Y-53775000D03*
X56324175Y-53225825D03*
X55775000Y-51900000D03*
X56324175Y-50574175D03*
X57650000Y-50025000D03*
X58975825Y-50574175D03*
%TD*%
%TO.N,GND*%
%TO.C,H5*%
X41431891Y-87568109D03*
X40000000Y-86975000D03*
X38568109Y-87568109D03*
X37975000Y-89000000D03*
X38568109Y-90431891D03*
X40000000Y-91025000D03*
X41431891Y-90431891D03*
X42025000Y-89000000D03*
D12*
X40000000Y-89000000D03*
%TD*%
%TO.N,GND*%
%TO.C,H6*%
X98000000Y-40000000D03*
D10*
X100025000Y-40000000D03*
X99431891Y-41431891D03*
X98000000Y-42025000D03*
X96568109Y-41431891D03*
X95975000Y-40000000D03*
X96568109Y-38568109D03*
X98000000Y-37975000D03*
X99431891Y-38568109D03*
%TD*%
%TO.N,GND*%
%TO.C,H7*%
X99431891Y-87568109D03*
X98000000Y-86975000D03*
X96568109Y-87568109D03*
X95975000Y-89000000D03*
X96568109Y-90431891D03*
X98000000Y-91025000D03*
X99431891Y-90431891D03*
X100025000Y-89000000D03*
D12*
X98000000Y-89000000D03*
%TD*%
%TO.N,GND*%
%TO.C,H8*%
X40000000Y-40000000D03*
D10*
X42025000Y-40000000D03*
X41431891Y-41431891D03*
X40000000Y-42025000D03*
X38568109Y-41431891D03*
X37975000Y-40000000D03*
X38568109Y-38568109D03*
X40000000Y-37975000D03*
X41431891Y-38568109D03*
%TD*%
D13*
%TO.N,+3V3*%
%TO.C,J1*%
X44870000Y-41270000D03*
D14*
%TO.N,+5V*%
X44870000Y-38730000D03*
%TO.N,/SDA*%
X47410000Y-41270000D03*
%TO.N,+5V*%
X47410000Y-38730000D03*
%TO.N,/SCL*%
X49950000Y-41270000D03*
%TO.N,GND*%
X49950000Y-38730000D03*
%TO.N,Net-(J1-Pad7)*%
X52490000Y-41270000D03*
%TO.N,Net-(J1-Pad8)*%
X52490000Y-38730000D03*
%TO.N,GND*%
X55030000Y-41270000D03*
%TO.N,Net-(J1-Pad10)*%
X55030000Y-38730000D03*
%TO.N,/BTN_START*%
X57570000Y-41270000D03*
%TO.N,Net-(J1-Pad12)*%
X57570000Y-38730000D03*
%TO.N,/BTN_TEAM2*%
X60110000Y-41270000D03*
%TO.N,GND*%
X60110000Y-38730000D03*
%TO.N,/BTN_TEAM1*%
X62650000Y-41270000D03*
%TO.N,/LCD_RS*%
X62650000Y-38730000D03*
%TO.N,Net-(J1-Pad17)*%
X65190000Y-41270000D03*
%TO.N,/LCD_RST*%
X65190000Y-38730000D03*
%TO.N,/MOSI*%
X67730000Y-41270000D03*
%TO.N,GND*%
X67730000Y-38730000D03*
%TO.N,/MISO*%
X70270000Y-41270000D03*
%TO.N,/TS_INT*%
X70270000Y-38730000D03*
%TO.N,/SCLK*%
X72810000Y-41270000D03*
%TO.N,/CS0*%
X72810000Y-38730000D03*
%TO.N,GND*%
X75350000Y-41270000D03*
%TO.N,/CS1*%
X75350000Y-38730000D03*
%TO.N,Net-(J1-Pad27)*%
X77890000Y-41270000D03*
%TO.N,Net-(J1-Pad28)*%
X77890000Y-38730000D03*
%TO.N,/SHDN_REQ*%
X80430000Y-41270000D03*
%TO.N,GND*%
X80430000Y-38730000D03*
%TO.N,/SHDN_OK*%
X82970000Y-41270000D03*
%TO.N,/ROBOT_SELECT*%
X82970000Y-38730000D03*
%TO.N,Net-(J1-Pad33)*%
X85510000Y-41270000D03*
%TO.N,GND*%
X85510000Y-38730000D03*
%TO.N,Net-(J1-Pad35)*%
X88050000Y-41270000D03*
%TO.N,/VBUS_DIS*%
X88050000Y-38730000D03*
%TO.N,/CAN_INT*%
X90590000Y-41270000D03*
%TO.N,Net-(J1-Pad38)*%
X90590000Y-38730000D03*
%TO.N,GND*%
X93130000Y-41270000D03*
%TO.N,Net-(J1-Pad40)*%
X93130000Y-38730000D03*
%TD*%
%TO.N,+5V*%
%TO.C,J4*%
%TA.AperFunction,ViaPad*%
G36*
G01*
X81050000Y-66950000D02*
X80150000Y-66950000D01*
G75*
G02*
X79950000Y-66750000I0J200000D01*
G01*
X79950000Y-66350000D01*
G75*
G02*
X80150000Y-66150000I200000J0D01*
G01*
X81050000Y-66150000D01*
G75*
G02*
X81250000Y-66350000I0J-200000D01*
G01*
X81250000Y-66750000D01*
G75*
G02*
X81050000Y-66950000I-200000J0D01*
G01*
G37*
%TD.AperFunction*%
D15*
%TO.N,GND*%
X80600000Y-65300000D03*
%TD*%
%TO.N,+5V*%
%TO.C,J5*%
%TA.AperFunction,ViaPad*%
G36*
G01*
X41550000Y-76025000D02*
X42450000Y-76025000D01*
G75*
G02*
X42650000Y-76225000I0J-200000D01*
G01*
X42650000Y-76625000D01*
G75*
G02*
X42450000Y-76825000I-200000J0D01*
G01*
X41550000Y-76825000D01*
G75*
G02*
X41350000Y-76625000I0J200000D01*
G01*
X41350000Y-76225000D01*
G75*
G02*
X41550000Y-76025000I200000J0D01*
G01*
G37*
%TD.AperFunction*%
%TO.N,GND*%
X42000000Y-77675000D03*
%TO.N,/SCL*%
X42000000Y-78925000D03*
%TO.N,/SDA*%
X42000000Y-80175000D03*
%TO.N,/TS_INT*%
X42000000Y-81425000D03*
%TD*%
D16*
%TO.N,GND*%
%TO.C,U5*%
X89800000Y-85500000D03*
X89800000Y-84300000D03*
X91000000Y-84300000D03*
X91000000Y-85500000D03*
X89800000Y-81900000D03*
X89800000Y-83000000D03*
X91000000Y-83000000D03*
X91000000Y-81900000D03*
%TD*%
%TO.N,+5V*%
%TO.C,J6*%
%TA.AperFunction,ViaPad*%
G36*
G01*
X46950000Y-87950000D02*
X46950000Y-87050000D01*
G75*
G02*
X47150000Y-86850000I200000J0D01*
G01*
X47550000Y-86850000D01*
G75*
G02*
X47750000Y-87050000I0J-200000D01*
G01*
X47750000Y-87950000D01*
G75*
G02*
X47550000Y-88150000I-200000J0D01*
G01*
X47150000Y-88150000D01*
G75*
G02*
X46950000Y-87950000I0J200000D01*
G01*
G37*
%TD.AperFunction*%
D17*
%TO.N,GND*%
X48600000Y-87500000D03*
%TO.N,/MOSI*%
X49850000Y-87500000D03*
%TO.N,/SCLK*%
X51100000Y-87500000D03*
%TO.N,/CS1*%
X52350000Y-87500000D03*
%TO.N,/LCD_RS*%
X53600000Y-87500000D03*
%TO.N,/LCD_RST*%
X54850000Y-87500000D03*
%TD*%
%TO.N,+5V*%
%TO.C,J7*%
%TA.AperFunction,ViaPad*%
G36*
G01*
X58800000Y-87950000D02*
X58800000Y-87050000D01*
G75*
G02*
X59000000Y-86850000I200000J0D01*
G01*
X59400000Y-86850000D01*
G75*
G02*
X59600000Y-87050000I0J-200000D01*
G01*
X59600000Y-87950000D01*
G75*
G02*
X59400000Y-88150000I-200000J0D01*
G01*
X59000000Y-88150000D01*
G75*
G02*
X58800000Y-87950000I0J200000D01*
G01*
G37*
%TD.AperFunction*%
%TO.N,GND*%
X60450000Y-87500000D03*
%TO.N,/LED_READY*%
X61700000Y-87500000D03*
%TO.N,/LED_DEBUG*%
X62950000Y-87500000D03*
%TO.N,/LED_BUS*%
X64200000Y-87500000D03*
%TO.N,/LED_COMM*%
X65450000Y-87500000D03*
%TO.N,/LED_ERROR*%
X66700000Y-87500000D03*
%TO.N,/LED_POWER*%
X67950000Y-87500000D03*
%TO.N,/BTN_TEAM1*%
X69200000Y-87500000D03*
%TO.N,/BTN_TEAM2*%
X70450000Y-87500000D03*
%TO.N,/BTN_START*%
X71700000Y-87500000D03*
%TO.N,/LED_RGB_R*%
X72950000Y-87500000D03*
%TO.N,/LED_RGB_G*%
X74200000Y-87500000D03*
%TO.N,/LED_RGB_B*%
X75450000Y-87500000D03*
%TD*%
D10*
%TO.N,GND*%
X44100000Y-90900000D03*
X78800000Y-89600000D03*
X97700000Y-66900000D03*
X87800000Y-57200000D03*
X74300000Y-45300000D03*
X75200000Y-62300000D03*
X68500000Y-69100000D03*
X58000000Y-66600000D03*
X38400000Y-84500000D03*
X88900000Y-46500000D03*
X77500000Y-76600000D03*
X54900000Y-81100000D03*
X54700000Y-74800000D03*
X47300000Y-53700000D03*
X69400000Y-74900000D03*
X67500000Y-79000000D03*
X72425000Y-83100000D03*
X85800000Y-88500000D03*
X52072695Y-70472695D03*
X48300000Y-47300000D03*
%TO.N,+3V3*%
X62500000Y-77300000D03*
X63000000Y-81000000D03*
X42100000Y-63400000D03*
X48500000Y-46300000D03*
X88787500Y-63512500D03*
X80300000Y-59650000D03*
X93050000Y-66400000D03*
X65200000Y-73100000D03*
%TO.N,+5V*%
X86250000Y-73250000D03*
X87250000Y-73250000D03*
X88250000Y-73250000D03*
X89250000Y-73250000D03*
X59100000Y-69600000D03*
%TO.N,/SDA*%
X62500000Y-74000000D03*
X54051992Y-48230005D03*
X59500000Y-74700000D03*
%TO.N,/SCL*%
X54887340Y-47587340D03*
X64000000Y-71300000D03*
%TO.N,/UART_TX*%
X38250000Y-67150000D03*
%TO.N,/UART_RX*%
X39803244Y-68400000D03*
%TO.N,/LCD_RS*%
X56700000Y-74600000D03*
X54300000Y-72500000D03*
%TO.N,/LCD_RST*%
X62900000Y-50600000D03*
X62900000Y-48399996D03*
%TO.N,/MOSI*%
X49500000Y-60800000D03*
X67600000Y-46000000D03*
%TO.N,/SCLK*%
X50300000Y-59100000D03*
%TO.N,/CS0*%
X68750000Y-44000008D03*
%TO.N,/SHDN_REQ*%
X47000000Y-79100000D03*
X71399992Y-74000000D03*
%TO.N,/SHDN_OK*%
X73100000Y-74800000D03*
X47500000Y-80100000D03*
%TO.N,/ROBOT_SELECT*%
X82450000Y-45100000D03*
%TO.N,Net-(U1-Pad1)*%
X53500000Y-61500000D03*
%TO.N,Net-(U1-Pad2)*%
X53400000Y-59700000D03*
%TO.N,+BATT*%
X91300000Y-54200000D03*
%TO.N,/CANL*%
X39673171Y-52829883D03*
%TO.N,/CANH*%
X43500000Y-58500000D03*
X40300000Y-53800000D03*
%TO.N,VBUS*%
X48300000Y-65400000D03*
X47200000Y-52525000D03*
X43700000Y-57400000D03*
X57400000Y-71800000D03*
%TO.N,+12V*%
X97700000Y-82300000D03*
X57400000Y-82700000D03*
%TO.N,Net-(C8-Pad1)*%
X86300000Y-90900000D03*
X88100000Y-90900000D03*
X87200000Y-90900000D03*
%TO.N,Net-(R4-Pad2)*%
X86000000Y-81750000D03*
%TD*%
D18*
%TO.N,/BTN_TEAM1*%
X61200000Y-45300000D02*
X62650000Y-43850000D01*
X42050000Y-45300000D02*
X61200000Y-45300000D01*
X69200000Y-87500000D02*
X69200000Y-88700000D01*
X44750000Y-87950000D02*
X44750000Y-85900000D01*
X62650000Y-43850000D02*
X62650000Y-41270000D01*
X41250000Y-68650000D02*
X41250000Y-67400000D01*
X41250000Y-67400000D02*
X40000000Y-66150000D01*
X68250000Y-89650000D02*
X46450000Y-89650000D01*
X46450000Y-89650000D02*
X44750000Y-87950000D01*
X38900000Y-48450000D02*
X42050000Y-45300000D01*
X40000000Y-60800000D02*
X38900000Y-59700000D01*
X44750000Y-85900000D02*
X39750000Y-80900000D01*
X39750000Y-80900000D02*
X39750000Y-70150000D01*
X39750000Y-70150000D02*
X41250000Y-68650000D01*
X40000000Y-66150000D02*
X40000000Y-60800000D01*
X69200000Y-88700000D02*
X68250000Y-89650000D01*
X38900000Y-59700000D02*
X38900000Y-48450000D01*
%TO.N,/BTN_TEAM2*%
X70450000Y-89850000D02*
X70450000Y-87500000D01*
X70100000Y-90200000D02*
X70450000Y-89850000D01*
X46100000Y-90200000D02*
X70100000Y-90200000D01*
X44125000Y-88225000D02*
X46100000Y-90200000D01*
X44125000Y-86525000D02*
X44125000Y-88225000D01*
X39000000Y-64800000D02*
X39000000Y-81400000D01*
X38200000Y-64000000D02*
X39000000Y-64800000D01*
X41200000Y-44700000D02*
X38200000Y-47700000D01*
X59200000Y-44700000D02*
X41200000Y-44700000D01*
X60110000Y-43790000D02*
X59200000Y-44700000D01*
X39000000Y-81400000D02*
X44125000Y-86525000D01*
X38200000Y-47700000D02*
X38200000Y-64000000D01*
X60110000Y-41270000D02*
X60110000Y-43790000D01*
%TO.N,/BTN_START*%
X57150000Y-44000000D02*
X57570000Y-43580000D01*
X57570000Y-43580000D02*
X57570000Y-41270000D01*
X37500000Y-47200000D02*
X40700000Y-44000000D01*
X37500000Y-80900000D02*
X37500000Y-47200000D01*
X43500000Y-86900000D02*
X37500000Y-80900000D01*
X43500000Y-88600000D02*
X43500000Y-86900000D01*
X45700000Y-90800000D02*
X43500000Y-88600000D01*
X70500000Y-90800000D02*
X45700000Y-90800000D01*
X71700000Y-89600000D02*
X70500000Y-90800000D01*
X40700000Y-44000000D02*
X57150000Y-44000000D01*
X71700000Y-87500000D02*
X71700000Y-89600000D01*
D19*
%TO.N,VBUS*%
X49825000Y-65400000D02*
X56225000Y-71800000D01*
X56225000Y-71800000D02*
X57400000Y-71800000D01*
X48300000Y-65400000D02*
X49825000Y-65400000D01*
X46575000Y-65400000D02*
X48300000Y-65400000D01*
X44850000Y-63675000D02*
X46575000Y-65400000D01*
X46150000Y-52525000D02*
X44850000Y-53825000D01*
X47200000Y-52525000D02*
X46150000Y-52525000D01*
D18*
X44500000Y-57400000D02*
X44850000Y-57050000D01*
D19*
X43700000Y-57400000D02*
X44500000Y-57400000D01*
X44850000Y-57050000D02*
X44850000Y-63675000D01*
X44850000Y-53825000D02*
X44850000Y-57050000D01*
D20*
%TO.N,+12V*%
X93600000Y-68300000D02*
X97700000Y-72400000D01*
X79600000Y-68300000D02*
X93600000Y-68300000D01*
X74900000Y-73000000D02*
X79600000Y-68300000D01*
X74900000Y-82700000D02*
X74900000Y-73000000D01*
X97700000Y-72400000D02*
X97700000Y-82300000D01*
X72500000Y-85100000D02*
X74900000Y-82700000D01*
X59800000Y-85100000D02*
X72500000Y-85100000D01*
X57400000Y-82700000D02*
X59800000Y-85100000D01*
%TD*%
D21*
%TO.N,GND*%
G36*
X96142008Y-37211096D02*
G01*
X96134411Y-37216172D01*
X95834231Y-37654626D01*
X98000000Y-39820395D01*
X98014143Y-39806253D01*
X98193748Y-39985858D01*
X98179605Y-40000000D01*
X100345374Y-42165769D01*
X100783828Y-41865589D01*
X100840000Y-41760842D01*
X100840001Y-87237918D01*
X100788904Y-87142008D01*
X100783828Y-87134411D01*
X100345374Y-86834231D01*
X98179605Y-89000000D01*
X98193748Y-89014143D01*
X98014143Y-89193748D01*
X98000000Y-89179605D01*
X95834231Y-91345374D01*
X96134411Y-91783828D01*
X96239158Y-91840000D01*
X88535224Y-91840000D01*
X88590256Y-91817205D01*
X88759774Y-91703937D01*
X88903937Y-91559774D01*
X89017205Y-91390256D01*
X89095226Y-91201898D01*
X89135000Y-91001939D01*
X89135000Y-90798061D01*
X89095226Y-90598102D01*
X89017205Y-90409744D01*
X88903937Y-90240226D01*
X88759774Y-90096063D01*
X88590256Y-89982795D01*
X88401898Y-89904774D01*
X88201939Y-89865000D01*
X87998061Y-89865000D01*
X87798102Y-89904774D01*
X87650000Y-89966120D01*
X87501898Y-89904774D01*
X87301939Y-89865000D01*
X87098061Y-89865000D01*
X86898102Y-89904774D01*
X86750000Y-89966120D01*
X86601898Y-89904774D01*
X86401939Y-89865000D01*
X86198061Y-89865000D01*
X85998102Y-89904774D01*
X85809744Y-89982795D01*
X85640226Y-90096063D01*
X85496063Y-90240226D01*
X85382795Y-90409744D01*
X85304774Y-90598102D01*
X85265000Y-90798061D01*
X85265000Y-91001939D01*
X85304774Y-91201898D01*
X85382795Y-91390256D01*
X85496063Y-91559774D01*
X85640226Y-91703937D01*
X85809744Y-91817205D01*
X85864776Y-91840000D01*
X84032279Y-91840000D01*
X83934576Y-91830420D01*
X83871643Y-91811420D01*
X83813594Y-91780554D01*
X83762657Y-91739011D01*
X83720752Y-91688356D01*
X83689485Y-91630529D01*
X83670044Y-91567728D01*
X83660000Y-91472165D01*
X83660000Y-88995431D01*
X94648866Y-88995431D01*
X94712366Y-89649293D01*
X94902208Y-90278203D01*
X95211096Y-90857992D01*
X95216172Y-90865589D01*
X95654626Y-91165769D01*
X97820395Y-89000000D01*
X95654626Y-86834231D01*
X95216172Y-87134411D01*
X94905704Y-87713356D01*
X94714148Y-88341746D01*
X94648866Y-88995431D01*
X83660000Y-88995431D01*
X83660000Y-86654626D01*
X95834231Y-86654626D01*
X98000000Y-88820395D01*
X100165769Y-86654626D01*
X99865589Y-86216172D01*
X99286644Y-85905704D01*
X98658254Y-85714148D01*
X98004569Y-85648866D01*
X97350707Y-85712366D01*
X96721797Y-85902208D01*
X96142008Y-86211096D01*
X96134411Y-86216172D01*
X95834231Y-86654626D01*
X83660000Y-86654626D01*
X83660000Y-86134541D01*
X89345064Y-86134541D01*
X89355575Y-86327763D01*
X89525603Y-86398562D01*
X89706176Y-86434828D01*
X89890355Y-86435171D01*
X90071061Y-86399574D01*
X90241351Y-86329408D01*
X90244425Y-86327763D01*
X90254936Y-86134541D01*
X90545064Y-86134541D01*
X90555575Y-86327763D01*
X90725603Y-86398562D01*
X90906176Y-86434828D01*
X91090355Y-86435171D01*
X91271061Y-86399574D01*
X91441351Y-86329408D01*
X91444425Y-86327763D01*
X91454936Y-86134541D01*
X91000000Y-85679605D01*
X90545064Y-86134541D01*
X90254936Y-86134541D01*
X89800000Y-85679605D01*
X89345064Y-86134541D01*
X83660000Y-86134541D01*
X83660000Y-85590355D01*
X88864829Y-85590355D01*
X88900426Y-85771061D01*
X88970592Y-85941351D01*
X88972237Y-85944425D01*
X89165459Y-85954936D01*
X89620395Y-85500000D01*
X89165459Y-85045064D01*
X88972237Y-85055575D01*
X88901438Y-85225603D01*
X88865172Y-85406176D01*
X88864829Y-85590355D01*
X83660000Y-85590355D01*
X83660000Y-84390355D01*
X88864829Y-84390355D01*
X88900426Y-84571061D01*
X88970592Y-84741351D01*
X88972237Y-84744425D01*
X89165459Y-84754936D01*
X89620395Y-84300000D01*
X89165459Y-83845064D01*
X88972237Y-83855575D01*
X88901438Y-84025603D01*
X88865172Y-84206176D01*
X88864829Y-84390355D01*
X83660000Y-84390355D01*
X83660000Y-81648061D01*
X84965000Y-81648061D01*
X84965000Y-81851939D01*
X85004774Y-82051898D01*
X85082795Y-82240256D01*
X85196063Y-82409774D01*
X85340226Y-82553937D01*
X85509744Y-82667205D01*
X85698102Y-82745226D01*
X85898061Y-82785000D01*
X86101939Y-82785000D01*
X86301898Y-82745226D01*
X86490256Y-82667205D01*
X86659774Y-82553937D01*
X86803937Y-82409774D01*
X86917205Y-82240256D01*
X86995226Y-82051898D01*
X87007467Y-81990355D01*
X88864829Y-81990355D01*
X88900426Y-82171061D01*
X88970592Y-82341351D01*
X88972237Y-82344425D01*
X89119732Y-82352448D01*
X89046286Y-82425894D01*
X89070392Y-82450000D01*
X89046286Y-82474106D01*
X89119732Y-82547552D01*
X88972237Y-82555575D01*
X88901438Y-82725603D01*
X88865172Y-82906176D01*
X88864829Y-83090355D01*
X88900426Y-83271061D01*
X88970592Y-83441351D01*
X88972237Y-83444425D01*
X89165459Y-83454936D01*
X89620395Y-83000000D01*
X89606253Y-82985858D01*
X89757187Y-82834923D01*
X89842973Y-82835083D01*
X89993748Y-82985858D01*
X89979605Y-83000000D01*
X90064839Y-83085234D01*
X90064829Y-83090355D01*
X90100426Y-83271061D01*
X90170592Y-83441351D01*
X90170690Y-83441534D01*
X90074397Y-83401438D01*
X90008623Y-83388228D01*
X89800000Y-83179605D01*
X89591503Y-83388102D01*
X89528939Y-83400426D01*
X89358649Y-83470592D01*
X89355575Y-83472237D01*
X89346843Y-83632762D01*
X89345064Y-83634541D01*
X89345905Y-83650000D01*
X89345064Y-83665459D01*
X89346843Y-83667238D01*
X89355575Y-83827763D01*
X89525603Y-83898562D01*
X89591377Y-83911772D01*
X89800000Y-84120395D01*
X90008497Y-83911898D01*
X90071061Y-83899574D01*
X90171076Y-83858364D01*
X90101438Y-84025603D01*
X90065172Y-84206176D01*
X90065157Y-84214448D01*
X89979605Y-84300000D01*
X90064839Y-84385234D01*
X90064829Y-84390355D01*
X90100426Y-84571061D01*
X90120925Y-84620812D01*
X90074397Y-84601438D01*
X89893824Y-84565172D01*
X89885552Y-84565157D01*
X89800000Y-84479605D01*
X89714766Y-84564839D01*
X89709645Y-84564829D01*
X89528939Y-84600426D01*
X89358649Y-84670592D01*
X89355575Y-84672237D01*
X89345064Y-84865459D01*
X89379605Y-84900000D01*
X89345064Y-84934541D01*
X89355575Y-85127763D01*
X89525603Y-85198562D01*
X89706176Y-85234828D01*
X89714448Y-85234843D01*
X89800000Y-85320395D01*
X89885234Y-85235161D01*
X89890355Y-85235171D01*
X90071061Y-85199574D01*
X90120812Y-85179075D01*
X90101438Y-85225603D01*
X90065172Y-85406176D01*
X90065157Y-85414448D01*
X89979605Y-85500000D01*
X90064839Y-85585234D01*
X90064829Y-85590355D01*
X90100426Y-85771061D01*
X90170592Y-85941351D01*
X90172237Y-85944425D01*
X90365459Y-85954936D01*
X90400000Y-85920395D01*
X90434541Y-85954936D01*
X90627763Y-85944425D01*
X90698562Y-85774397D01*
X90734828Y-85593824D01*
X90734843Y-85585552D01*
X90820395Y-85500000D01*
X91179605Y-85500000D01*
X91634541Y-85954936D01*
X91827763Y-85944425D01*
X91898562Y-85774397D01*
X91934828Y-85593824D01*
X91935171Y-85409645D01*
X91899574Y-85228939D01*
X91829408Y-85058649D01*
X91827763Y-85055575D01*
X91634541Y-85045064D01*
X91179605Y-85500000D01*
X90820395Y-85500000D01*
X90735161Y-85414766D01*
X90735171Y-85409645D01*
X90699574Y-85228939D01*
X90679075Y-85179188D01*
X90725603Y-85198562D01*
X90906176Y-85234828D01*
X90914448Y-85234843D01*
X91000000Y-85320395D01*
X91085234Y-85235161D01*
X91090355Y-85235171D01*
X91271061Y-85199574D01*
X91441351Y-85129408D01*
X91444425Y-85127763D01*
X91454936Y-84934541D01*
X91420395Y-84900000D01*
X91454936Y-84865459D01*
X91444425Y-84672237D01*
X91274397Y-84601438D01*
X91093824Y-84565172D01*
X91085552Y-84565157D01*
X91000000Y-84479605D01*
X90914766Y-84564839D01*
X90909645Y-84564829D01*
X90728939Y-84600426D01*
X90679188Y-84620925D01*
X90698562Y-84574397D01*
X90734828Y-84393824D01*
X90734843Y-84385552D01*
X90820395Y-84300000D01*
X91179605Y-84300000D01*
X91634541Y-84754936D01*
X91827763Y-84744425D01*
X91898562Y-84574397D01*
X91934828Y-84393824D01*
X91935171Y-84209645D01*
X91899574Y-84028939D01*
X91829408Y-83858649D01*
X91827763Y-83855575D01*
X91634541Y-83845064D01*
X91179605Y-84300000D01*
X90820395Y-84300000D01*
X90735161Y-84214766D01*
X90735171Y-84209645D01*
X90699574Y-84028939D01*
X90629408Y-83858649D01*
X90629310Y-83858466D01*
X90725603Y-83898562D01*
X90791377Y-83911772D01*
X91000000Y-84120395D01*
X91208497Y-83911898D01*
X91271061Y-83899574D01*
X91441351Y-83829408D01*
X91444425Y-83827763D01*
X91453157Y-83667238D01*
X91454936Y-83665459D01*
X91454095Y-83650000D01*
X91454936Y-83634541D01*
X91453157Y-83632762D01*
X91444425Y-83472237D01*
X91274397Y-83401438D01*
X91208623Y-83388228D01*
X91000000Y-83179605D01*
X90791503Y-83388102D01*
X90728939Y-83400426D01*
X90628924Y-83441636D01*
X90698562Y-83274397D01*
X90734828Y-83093824D01*
X90734843Y-83085552D01*
X90820395Y-83000000D01*
X90806253Y-82985858D01*
X90957187Y-82834923D01*
X91042973Y-82835083D01*
X91193748Y-82985858D01*
X91179605Y-83000000D01*
X91634541Y-83454936D01*
X91827763Y-83444425D01*
X91898562Y-83274397D01*
X91934828Y-83093824D01*
X91935171Y-82909645D01*
X91899574Y-82728939D01*
X91829408Y-82558649D01*
X91827763Y-82555575D01*
X91680268Y-82547552D01*
X91753714Y-82474106D01*
X91729608Y-82450000D01*
X91753714Y-82425894D01*
X91680268Y-82352448D01*
X91827763Y-82344425D01*
X91898562Y-82174397D01*
X91934828Y-81993824D01*
X91935171Y-81809645D01*
X91899574Y-81628939D01*
X91829408Y-81458649D01*
X91827763Y-81455575D01*
X91634541Y-81445064D01*
X91179605Y-81900000D01*
X91193748Y-81914143D01*
X91042813Y-82065077D01*
X90957027Y-82064917D01*
X90806253Y-81914143D01*
X90820395Y-81900000D01*
X90735161Y-81814766D01*
X90735171Y-81809645D01*
X90699574Y-81628939D01*
X90629408Y-81458649D01*
X90627763Y-81455575D01*
X90434541Y-81445064D01*
X90400000Y-81479605D01*
X90365459Y-81445064D01*
X90172237Y-81455575D01*
X90101438Y-81625603D01*
X90065172Y-81806176D01*
X90065157Y-81814448D01*
X89979605Y-81900000D01*
X89993748Y-81914143D01*
X89842813Y-82065077D01*
X89757027Y-82064917D01*
X89606253Y-81914143D01*
X89620395Y-81900000D01*
X89165459Y-81445064D01*
X88972237Y-81455575D01*
X88901438Y-81625603D01*
X88865172Y-81806176D01*
X88864829Y-81990355D01*
X87007467Y-81990355D01*
X87035000Y-81851939D01*
X87035000Y-81648061D01*
X86995226Y-81448102D01*
X86919573Y-81265459D01*
X89345064Y-81265459D01*
X89800000Y-81720395D01*
X90254936Y-81265459D01*
X90545064Y-81265459D01*
X91000000Y-81720395D01*
X91454936Y-81265459D01*
X91444425Y-81072237D01*
X91274397Y-81001438D01*
X91093824Y-80965172D01*
X90909645Y-80964829D01*
X90728939Y-81000426D01*
X90558649Y-81070592D01*
X90555575Y-81072237D01*
X90545064Y-81265459D01*
X90254936Y-81265459D01*
X90244425Y-81072237D01*
X90074397Y-81001438D01*
X89893824Y-80965172D01*
X89709645Y-80964829D01*
X89528939Y-81000426D01*
X89358649Y-81070592D01*
X89355575Y-81072237D01*
X89345064Y-81265459D01*
X86919573Y-81265459D01*
X86917205Y-81259744D01*
X86803937Y-81090226D01*
X86659774Y-80946063D01*
X86490256Y-80832795D01*
X86301898Y-80754774D01*
X86101939Y-80715000D01*
X85898061Y-80715000D01*
X85698102Y-80754774D01*
X85509744Y-80832795D01*
X85340226Y-80946063D01*
X85196063Y-81090226D01*
X85082795Y-81259744D01*
X85004774Y-81448102D01*
X84965000Y-81648061D01*
X83660000Y-81648061D01*
X83660000Y-73148061D01*
X85215000Y-73148061D01*
X85215000Y-73351939D01*
X85254774Y-73551898D01*
X85332795Y-73740256D01*
X85446063Y-73909774D01*
X85590226Y-74053937D01*
X85759744Y-74167205D01*
X85948102Y-74245226D01*
X86148061Y-74285000D01*
X86351939Y-74285000D01*
X86551898Y-74245226D01*
X86740256Y-74167205D01*
X86750000Y-74160694D01*
X86759744Y-74167205D01*
X86948102Y-74245226D01*
X87148061Y-74285000D01*
X87351939Y-74285000D01*
X87551898Y-74245226D01*
X87740256Y-74167205D01*
X87750000Y-74160694D01*
X87759744Y-74167205D01*
X87948102Y-74245226D01*
X88148061Y-74285000D01*
X88351939Y-74285000D01*
X88551898Y-74245226D01*
X88740256Y-74167205D01*
X88750000Y-74160694D01*
X88759744Y-74167205D01*
X88948102Y-74245226D01*
X89148061Y-74285000D01*
X89351939Y-74285000D01*
X89551898Y-74245226D01*
X89740256Y-74167205D01*
X89909774Y-74053937D01*
X90053937Y-73909774D01*
X90167205Y-73740256D01*
X90245226Y-73551898D01*
X90285000Y-73351939D01*
X90285000Y-73148061D01*
X90245226Y-72948102D01*
X90167205Y-72759744D01*
X90053937Y-72590226D01*
X89909774Y-72446063D01*
X89740256Y-72332795D01*
X89551898Y-72254774D01*
X89351939Y-72215000D01*
X89148061Y-72215000D01*
X88948102Y-72254774D01*
X88759744Y-72332795D01*
X88750000Y-72339306D01*
X88740256Y-72332795D01*
X88551898Y-72254774D01*
X88351939Y-72215000D01*
X88148061Y-72215000D01*
X87948102Y-72254774D01*
X87759744Y-72332795D01*
X87750000Y-72339306D01*
X87740256Y-72332795D01*
X87551898Y-72254774D01*
X87351939Y-72215000D01*
X87148061Y-72215000D01*
X86948102Y-72254774D01*
X86759744Y-72332795D01*
X86750000Y-72339306D01*
X86740256Y-72332795D01*
X86551898Y-72254774D01*
X86351939Y-72215000D01*
X86148061Y-72215000D01*
X85948102Y-72254774D01*
X85759744Y-72332795D01*
X85590226Y-72446063D01*
X85446063Y-72590226D01*
X85332795Y-72759744D01*
X85254774Y-72948102D01*
X85215000Y-73148061D01*
X83660000Y-73148061D01*
X83660000Y-71467581D01*
X83657217Y-71439326D01*
X83657260Y-71433199D01*
X83656360Y-71424028D01*
X83635959Y-71229931D01*
X83623934Y-71171348D01*
X83612723Y-71112577D01*
X83610059Y-71103755D01*
X83552347Y-70917317D01*
X83529162Y-70862162D01*
X83506758Y-70806709D01*
X83502432Y-70798573D01*
X83409607Y-70626896D01*
X83376139Y-70577278D01*
X83343400Y-70527247D01*
X83337576Y-70520106D01*
X83213172Y-70369728D01*
X83170737Y-70327589D01*
X83128874Y-70284839D01*
X83121773Y-70278966D01*
X82970531Y-70155616D01*
X82920738Y-70122534D01*
X82871349Y-70088716D01*
X82863243Y-70084333D01*
X82690921Y-69992708D01*
X82635606Y-69969909D01*
X82580634Y-69946348D01*
X82571831Y-69943623D01*
X82384995Y-69887214D01*
X82326307Y-69875594D01*
X82267804Y-69863158D01*
X82258639Y-69862195D01*
X82064405Y-69843150D01*
X82035595Y-69843150D01*
X82006946Y-69840036D01*
X81997731Y-69840004D01*
X81990750Y-69840028D01*
X81962053Y-69842942D01*
X81933199Y-69842740D01*
X81924028Y-69843640D01*
X81729931Y-69864041D01*
X81671348Y-69876066D01*
X81612577Y-69887277D01*
X81603755Y-69889941D01*
X81417317Y-69947653D01*
X81362162Y-69970838D01*
X81306709Y-69993242D01*
X81298573Y-69997568D01*
X81126896Y-70090393D01*
X81077278Y-70123861D01*
X81027247Y-70156600D01*
X81020106Y-70162424D01*
X80869728Y-70286828D01*
X80827589Y-70329263D01*
X80784839Y-70371126D01*
X80778966Y-70378227D01*
X80655616Y-70529469D01*
X80622534Y-70579262D01*
X80588716Y-70628651D01*
X80584333Y-70636757D01*
X80492708Y-70809079D01*
X80469909Y-70864394D01*
X80446348Y-70919366D01*
X80443623Y-70928169D01*
X80387214Y-71115005D01*
X80375594Y-71173693D01*
X80363158Y-71232196D01*
X80362195Y-71241361D01*
X80343150Y-71435595D01*
X80343150Y-71435608D01*
X80340001Y-71467581D01*
X80340000Y-91467721D01*
X80330420Y-91565424D01*
X80311420Y-91628357D01*
X80280554Y-91686406D01*
X80239011Y-91737343D01*
X80188356Y-91779248D01*
X80130529Y-91810515D01*
X80067728Y-91829956D01*
X79972165Y-91840000D01*
X41762084Y-91840000D01*
X41857992Y-91788904D01*
X41865589Y-91783828D01*
X42165769Y-91345374D01*
X40000000Y-89179605D01*
X39985858Y-89193748D01*
X39806253Y-89014143D01*
X39820395Y-89000000D01*
X37654626Y-86834231D01*
X37216172Y-87134411D01*
X37160000Y-87239158D01*
X37160000Y-81634801D01*
X41597721Y-86072524D01*
X41286644Y-85905704D01*
X40658254Y-85714148D01*
X40004569Y-85648866D01*
X39350707Y-85712366D01*
X38721797Y-85902208D01*
X38142008Y-86211096D01*
X38134411Y-86216172D01*
X37834231Y-86654626D01*
X40000000Y-88820395D01*
X40014143Y-88806253D01*
X40193748Y-88985858D01*
X40179605Y-89000000D01*
X42345374Y-91165769D01*
X42783828Y-90865589D01*
X43094296Y-90286644D01*
X43285852Y-89658254D01*
X43303794Y-89478595D01*
X45136201Y-91311003D01*
X45159999Y-91340001D01*
X45275724Y-91434974D01*
X45407753Y-91505546D01*
X45551014Y-91549003D01*
X45662667Y-91560000D01*
X45662677Y-91560000D01*
X45700000Y-91563676D01*
X45737323Y-91560000D01*
X70462678Y-91560000D01*
X70500000Y-91563676D01*
X70537322Y-91560000D01*
X70537333Y-91560000D01*
X70648986Y-91549003D01*
X70792247Y-91505546D01*
X70924276Y-91434974D01*
X71040001Y-91340001D01*
X71063804Y-91310997D01*
X72211003Y-90163799D01*
X72240001Y-90140001D01*
X72334974Y-90024276D01*
X72405546Y-89892247D01*
X72449003Y-89748986D01*
X72460000Y-89637333D01*
X72460000Y-89637324D01*
X72463676Y-89600001D01*
X72460000Y-89562678D01*
X72460000Y-88661662D01*
X72552008Y-88710841D01*
X72747106Y-88770024D01*
X72950000Y-88790007D01*
X73152895Y-88770024D01*
X73347993Y-88710841D01*
X73527797Y-88614734D01*
X73575000Y-88575995D01*
X73622204Y-88614734D01*
X73802008Y-88710841D01*
X73997106Y-88770024D01*
X74200000Y-88790007D01*
X74402895Y-88770024D01*
X74597993Y-88710841D01*
X74777797Y-88614734D01*
X74825000Y-88575995D01*
X74872204Y-88614734D01*
X75052008Y-88710841D01*
X75247106Y-88770024D01*
X75450000Y-88790007D01*
X75652895Y-88770024D01*
X75847993Y-88710841D01*
X76027797Y-88614734D01*
X76185396Y-88485396D01*
X76314734Y-88327797D01*
X76410841Y-88147992D01*
X76470024Y-87952894D01*
X76485000Y-87800837D01*
X76485000Y-87199162D01*
X76470024Y-87047105D01*
X76410841Y-86852007D01*
X76314734Y-86672203D01*
X76185396Y-86514604D01*
X76027797Y-86385266D01*
X75847992Y-86289159D01*
X75652894Y-86229976D01*
X75450000Y-86209993D01*
X75247105Y-86229976D01*
X75052007Y-86289159D01*
X74872203Y-86385266D01*
X74825000Y-86424004D01*
X74777797Y-86385266D01*
X74597992Y-86289159D01*
X74402894Y-86229976D01*
X74200000Y-86209993D01*
X73997105Y-86229976D01*
X73802007Y-86289159D01*
X73622203Y-86385266D01*
X73575000Y-86424004D01*
X73527797Y-86385266D01*
X73347992Y-86289159D01*
X73152894Y-86229976D01*
X72950000Y-86209993D01*
X72747105Y-86229976D01*
X72552007Y-86289159D01*
X72372203Y-86385266D01*
X72325000Y-86424004D01*
X72277797Y-86385266D01*
X72097992Y-86289159D01*
X71902894Y-86229976D01*
X71700000Y-86209993D01*
X71497105Y-86229976D01*
X71302007Y-86289159D01*
X71122203Y-86385266D01*
X71075000Y-86424004D01*
X71027797Y-86385266D01*
X70847992Y-86289159D01*
X70652894Y-86229976D01*
X70450000Y-86209993D01*
X70247105Y-86229976D01*
X70052007Y-86289159D01*
X69872203Y-86385266D01*
X69825000Y-86424004D01*
X69777797Y-86385266D01*
X69597992Y-86289159D01*
X69402894Y-86229976D01*
X69200000Y-86209993D01*
X68997105Y-86229976D01*
X68802007Y-86289159D01*
X68622203Y-86385266D01*
X68575000Y-86424004D01*
X68527797Y-86385266D01*
X68347992Y-86289159D01*
X68152894Y-86229976D01*
X67950000Y-86209993D01*
X67747105Y-86229976D01*
X67552007Y-86289159D01*
X67372203Y-86385266D01*
X67325000Y-86424004D01*
X67277797Y-86385266D01*
X67097992Y-86289159D01*
X66902894Y-86229976D01*
X66700000Y-86209993D01*
X66497105Y-86229976D01*
X66302007Y-86289159D01*
X66122203Y-86385266D01*
X66075000Y-86424004D01*
X66027797Y-86385266D01*
X65847992Y-86289159D01*
X65652894Y-86229976D01*
X65450000Y-86209993D01*
X65247105Y-86229976D01*
X65052007Y-86289159D01*
X64872203Y-86385266D01*
X64825000Y-86424004D01*
X64777797Y-86385266D01*
X64597992Y-86289159D01*
X64402894Y-86229976D01*
X64200000Y-86209993D01*
X63997105Y-86229976D01*
X63802007Y-86289159D01*
X63622203Y-86385266D01*
X63575000Y-86424004D01*
X63527797Y-86385266D01*
X63347992Y-86289159D01*
X63152894Y-86229976D01*
X62950000Y-86209993D01*
X62747105Y-86229976D01*
X62552007Y-86289159D01*
X62372203Y-86385266D01*
X62325000Y-86424004D01*
X62277797Y-86385266D01*
X62097992Y-86289159D01*
X61902894Y-86229976D01*
X61700000Y-86209993D01*
X61497105Y-86229976D01*
X61302007Y-86289159D01*
X61122203Y-86385266D01*
X61082062Y-86418209D01*
X60998160Y-86354745D01*
X60812972Y-86265006D01*
X60736123Y-86255334D01*
X60577000Y-86383002D01*
X60577000Y-87373000D01*
X60597000Y-87373000D01*
X60597000Y-87627000D01*
X60577000Y-87627000D01*
X60577000Y-88616998D01*
X60736123Y-88744666D01*
X60812972Y-88734994D01*
X60998160Y-88645255D01*
X61082063Y-88581791D01*
X61122204Y-88614734D01*
X61302008Y-88710841D01*
X61497106Y-88770024D01*
X61700000Y-88790007D01*
X61902895Y-88770024D01*
X62097993Y-88710841D01*
X62277797Y-88614734D01*
X62325000Y-88575995D01*
X62372204Y-88614734D01*
X62552008Y-88710841D01*
X62747106Y-88770024D01*
X62950000Y-88790007D01*
X63152895Y-88770024D01*
X63347993Y-88710841D01*
X63527797Y-88614734D01*
X63575000Y-88575995D01*
X63622204Y-88614734D01*
X63802008Y-88710841D01*
X63997106Y-88770024D01*
X64200000Y-88790007D01*
X64402895Y-88770024D01*
X64597993Y-88710841D01*
X64777797Y-88614734D01*
X64825000Y-88575995D01*
X64872204Y-88614734D01*
X65052008Y-88710841D01*
X65247106Y-88770024D01*
X65450000Y-88790007D01*
X65652895Y-88770024D01*
X65847993Y-88710841D01*
X66027797Y-88614734D01*
X66075000Y-88575995D01*
X66122204Y-88614734D01*
X66302008Y-88710841D01*
X66497106Y-88770024D01*
X66700000Y-88790007D01*
X66902895Y-88770024D01*
X67097993Y-88710841D01*
X67277797Y-88614734D01*
X67325000Y-88575995D01*
X67372204Y-88614734D01*
X67552008Y-88710841D01*
X67747106Y-88770024D01*
X67950000Y-88790007D01*
X68044499Y-88780700D01*
X67935199Y-88890000D01*
X46764802Y-88890000D01*
X45510000Y-87635199D01*
X45510000Y-87050000D01*
X46311928Y-87050000D01*
X46311928Y-87950000D01*
X46328031Y-88113500D01*
X46375722Y-88270716D01*
X46453169Y-88415608D01*
X46557394Y-88542606D01*
X46684392Y-88646831D01*
X46829284Y-88724278D01*
X46986500Y-88771969D01*
X47150000Y-88788072D01*
X47550000Y-88788072D01*
X47713500Y-88771969D01*
X47870716Y-88724278D01*
X48015608Y-88646831D01*
X48033985Y-88631749D01*
X48051840Y-88645255D01*
X48237028Y-88734994D01*
X48313877Y-88744666D01*
X48473000Y-88616998D01*
X48473000Y-87627000D01*
X48453000Y-87627000D01*
X48453000Y-87373000D01*
X48473000Y-87373000D01*
X48473000Y-86383002D01*
X48727000Y-86383002D01*
X48727000Y-87373000D01*
X48747000Y-87373000D01*
X48747000Y-87627000D01*
X48727000Y-87627000D01*
X48727000Y-88616998D01*
X48886123Y-88744666D01*
X48962972Y-88734994D01*
X49148160Y-88645255D01*
X49232063Y-88581791D01*
X49272204Y-88614734D01*
X49452008Y-88710841D01*
X49647106Y-88770024D01*
X49850000Y-88790007D01*
X50052895Y-88770024D01*
X50247993Y-88710841D01*
X50427797Y-88614734D01*
X50475000Y-88575995D01*
X50522204Y-88614734D01*
X50702008Y-88710841D01*
X50897106Y-88770024D01*
X51100000Y-88790007D01*
X51302895Y-88770024D01*
X51497993Y-88710841D01*
X51677797Y-88614734D01*
X51725000Y-88575995D01*
X51772204Y-88614734D01*
X51952008Y-88710841D01*
X52147106Y-88770024D01*
X52350000Y-88790007D01*
X52552895Y-88770024D01*
X52747993Y-88710841D01*
X52927797Y-88614734D01*
X52975000Y-88575995D01*
X53022204Y-88614734D01*
X53202008Y-88710841D01*
X53397106Y-88770024D01*
X53600000Y-88790007D01*
X53802895Y-88770024D01*
X53997993Y-88710841D01*
X54177797Y-88614734D01*
X54225000Y-88575995D01*
X54272204Y-88614734D01*
X54452008Y-88710841D01*
X54647106Y-88770024D01*
X54850000Y-88790007D01*
X55052895Y-88770024D01*
X55247993Y-88710841D01*
X55427797Y-88614734D01*
X55585396Y-88485396D01*
X55714734Y-88327797D01*
X55810841Y-88147992D01*
X55870024Y-87952894D01*
X55885000Y-87800837D01*
X55885000Y-87199162D01*
X55870310Y-87050000D01*
X58161928Y-87050000D01*
X58161928Y-87950000D01*
X58178031Y-88113500D01*
X58225722Y-88270716D01*
X58303169Y-88415608D01*
X58407394Y-88542606D01*
X58534392Y-88646831D01*
X58679284Y-88724278D01*
X58836500Y-88771969D01*
X59000000Y-88788072D01*
X59400000Y-88788072D01*
X59563500Y-88771969D01*
X59720716Y-88724278D01*
X59865608Y-88646831D01*
X59883985Y-88631749D01*
X59901840Y-88645255D01*
X60087028Y-88734994D01*
X60163877Y-88744666D01*
X60323000Y-88616998D01*
X60323000Y-87627000D01*
X60303000Y-87627000D01*
X60303000Y-87373000D01*
X60323000Y-87373000D01*
X60323000Y-86383002D01*
X60163877Y-86255334D01*
X60087028Y-86265006D01*
X59901840Y-86354745D01*
X59883985Y-86368251D01*
X59865608Y-86353169D01*
X59720716Y-86275722D01*
X59563500Y-86228031D01*
X59400000Y-86211928D01*
X59000000Y-86211928D01*
X58836500Y-86228031D01*
X58679284Y-86275722D01*
X58534392Y-86353169D01*
X58407394Y-86457394D01*
X58303169Y-86584392D01*
X58225722Y-86729284D01*
X58178031Y-86886500D01*
X58161928Y-87050000D01*
X55870310Y-87050000D01*
X55870024Y-87047105D01*
X55810841Y-86852007D01*
X55714734Y-86672203D01*
X55585396Y-86514604D01*
X55427797Y-86385266D01*
X55247992Y-86289159D01*
X55052894Y-86229976D01*
X54850000Y-86209993D01*
X54647105Y-86229976D01*
X54452007Y-86289159D01*
X54272203Y-86385266D01*
X54225000Y-86424004D01*
X54177797Y-86385266D01*
X53997992Y-86289159D01*
X53802894Y-86229976D01*
X53600000Y-86209993D01*
X53397105Y-86229976D01*
X53202007Y-86289159D01*
X53022203Y-86385266D01*
X52975000Y-86424004D01*
X52927797Y-86385266D01*
X52747992Y-86289159D01*
X52552894Y-86229976D01*
X52350000Y-86209993D01*
X52147105Y-86229976D01*
X51952007Y-86289159D01*
X51772203Y-86385266D01*
X51725000Y-86424004D01*
X51677797Y-86385266D01*
X51497992Y-86289159D01*
X51302894Y-86229976D01*
X51100000Y-86209993D01*
X50897105Y-86229976D01*
X50702007Y-86289159D01*
X50522203Y-86385266D01*
X50475000Y-86424004D01*
X50427797Y-86385266D01*
X50247992Y-86289159D01*
X50052894Y-86229976D01*
X49850000Y-86209993D01*
X49647105Y-86229976D01*
X49452007Y-86289159D01*
X49272203Y-86385266D01*
X49232062Y-86418209D01*
X49148160Y-86354745D01*
X48962972Y-86265006D01*
X48886123Y-86255334D01*
X48727000Y-86383002D01*
X48473000Y-86383002D01*
X48313877Y-86255334D01*
X48237028Y-86265006D01*
X48051840Y-86354745D01*
X48033985Y-86368251D01*
X48015608Y-86353169D01*
X47870716Y-86275722D01*
X47713500Y-86228031D01*
X47550000Y-86211928D01*
X47150000Y-86211928D01*
X46986500Y-86228031D01*
X46829284Y-86275722D01*
X46684392Y-86353169D01*
X46557394Y-86457394D01*
X46453169Y-86584392D01*
X46375722Y-86729284D01*
X46328031Y-86886500D01*
X46311928Y-87050000D01*
X45510000Y-87050000D01*
X45510000Y-85937323D01*
X45513676Y-85900000D01*
X45510000Y-85862677D01*
X45510000Y-85862667D01*
X45499003Y-85751014D01*
X45455546Y-85607753D01*
X45384974Y-85475724D01*
X45290001Y-85359999D01*
X45261003Y-85336201D01*
X42624802Y-82700000D01*
X56359994Y-82700000D01*
X56365000Y-82750828D01*
X56365000Y-82801939D01*
X56374971Y-82852067D01*
X56379977Y-82902895D01*
X56394803Y-82951768D01*
X56404774Y-83001898D01*
X56424335Y-83049122D01*
X56439160Y-83097993D01*
X56463236Y-83143036D01*
X56482795Y-83190256D01*
X56511187Y-83232748D01*
X56535266Y-83277797D01*
X56567671Y-83317283D01*
X56596063Y-83359774D01*
X56740226Y-83503937D01*
X56740229Y-83503939D01*
X59032197Y-85795908D01*
X59064604Y-85835396D01*
X59104092Y-85867803D01*
X59222202Y-85964734D01*
X59402006Y-86060841D01*
X59447415Y-86074615D01*
X59597105Y-86120024D01*
X59749162Y-86135000D01*
X59749165Y-86135000D01*
X59800000Y-86140007D01*
X59850835Y-86135000D01*
X72449172Y-86135000D01*
X72500000Y-86140006D01*
X72550828Y-86135000D01*
X72550838Y-86135000D01*
X72702895Y-86120024D01*
X72897993Y-86060841D01*
X73077797Y-85964734D01*
X73235396Y-85835396D01*
X73267807Y-85795903D01*
X75595908Y-83467803D01*
X75635396Y-83435396D01*
X75667804Y-83395907D01*
X75764734Y-83277798D01*
X75860841Y-83097994D01*
X75890567Y-83000000D01*
X75920024Y-82902895D01*
X75935000Y-82750838D01*
X75935000Y-82750835D01*
X75940007Y-82700000D01*
X75935000Y-82649165D01*
X75935000Y-73428710D01*
X80028711Y-69335000D01*
X93171290Y-69335000D01*
X96665000Y-72828711D01*
X96665001Y-82198056D01*
X96665000Y-82198061D01*
X96665000Y-82401939D01*
X96674971Y-82452067D01*
X96679977Y-82502895D01*
X96694803Y-82551768D01*
X96704774Y-82601898D01*
X96724335Y-82649122D01*
X96739160Y-82697993D01*
X96763235Y-82743034D01*
X96782795Y-82790256D01*
X96811191Y-82832753D01*
X96835267Y-82877797D01*
X96867668Y-82917278D01*
X96896063Y-82959774D01*
X96932203Y-82995914D01*
X96964605Y-83035396D01*
X97004087Y-83067798D01*
X97040226Y-83103937D01*
X97082721Y-83132331D01*
X97122204Y-83164734D01*
X97167250Y-83188812D01*
X97209744Y-83217205D01*
X97256962Y-83236763D01*
X97302008Y-83260841D01*
X97350884Y-83275668D01*
X97398102Y-83295226D01*
X97448226Y-83305196D01*
X97497106Y-83320024D01*
X97547942Y-83325031D01*
X97598061Y-83335000D01*
X97649162Y-83335000D01*
X97700000Y-83340007D01*
X97750838Y-83335000D01*
X97801939Y-83335000D01*
X97852057Y-83325031D01*
X97902895Y-83320024D01*
X97951777Y-83305196D01*
X98001898Y-83295226D01*
X98049113Y-83275669D01*
X98097993Y-83260841D01*
X98143042Y-83236762D01*
X98190256Y-83217205D01*
X98232746Y-83188814D01*
X98277797Y-83164734D01*
X98317284Y-83132328D01*
X98359774Y-83103937D01*
X98395908Y-83067803D01*
X98435396Y-83035396D01*
X98467803Y-82995908D01*
X98503937Y-82959774D01*
X98532328Y-82917284D01*
X98564734Y-82877797D01*
X98588814Y-82832746D01*
X98617205Y-82790256D01*
X98636762Y-82743042D01*
X98660841Y-82697993D01*
X98675669Y-82649113D01*
X98695226Y-82601898D01*
X98705196Y-82551777D01*
X98720024Y-82502895D01*
X98725031Y-82452057D01*
X98735000Y-82401939D01*
X98735000Y-72450835D01*
X98740007Y-72400000D01*
X98729770Y-72296063D01*
X98720024Y-72197105D01*
X98667057Y-72022499D01*
X98660841Y-72002006D01*
X98564734Y-71822202D01*
X98467803Y-71704092D01*
X98435396Y-71664604D01*
X98395908Y-71632197D01*
X94367807Y-67604097D01*
X94335396Y-67564604D01*
X94177797Y-67435266D01*
X93997993Y-67339159D01*
X93802895Y-67279976D01*
X93650838Y-67265000D01*
X93650828Y-67265000D01*
X93622554Y-67262215D01*
X93709774Y-67203937D01*
X93853937Y-67059774D01*
X93967205Y-66890256D01*
X94045226Y-66701898D01*
X94085000Y-66501939D01*
X94085000Y-66298061D01*
X94045226Y-66098102D01*
X93967205Y-65909744D01*
X93853937Y-65740226D01*
X93709774Y-65596063D01*
X93540256Y-65482795D01*
X93351898Y-65404774D01*
X93151939Y-65365000D01*
X92948061Y-65365000D01*
X92748102Y-65404774D01*
X92559744Y-65482795D01*
X92390226Y-65596063D01*
X92246063Y-65740226D01*
X92132795Y-65909744D01*
X92054774Y-66098102D01*
X92015000Y-66298061D01*
X92015000Y-66501939D01*
X92054774Y-66701898D01*
X92132795Y-66890256D01*
X92246063Y-67059774D01*
X92390226Y-67203937D01*
X92481613Y-67265000D01*
X81706296Y-67265000D01*
X81746831Y-67215608D01*
X81824278Y-67070716D01*
X81871969Y-66913500D01*
X81888072Y-66750000D01*
X81888072Y-66350000D01*
X81871969Y-66186500D01*
X81824278Y-66029284D01*
X81746831Y-65884392D01*
X81731749Y-65866015D01*
X81745255Y-65848160D01*
X81834994Y-65662972D01*
X81844666Y-65586123D01*
X81716998Y-65427000D01*
X80727000Y-65427000D01*
X80727000Y-65447000D01*
X80473000Y-65447000D01*
X80473000Y-65427000D01*
X79483002Y-65427000D01*
X79355334Y-65586123D01*
X79365006Y-65662972D01*
X79454745Y-65848160D01*
X79468251Y-65866015D01*
X79453169Y-65884392D01*
X79375722Y-66029284D01*
X79328031Y-66186500D01*
X79311928Y-66350000D01*
X79311928Y-66750000D01*
X79328031Y-66913500D01*
X79375722Y-67070716D01*
X79453169Y-67215608D01*
X79497851Y-67270054D01*
X79397105Y-67279976D01*
X79202007Y-67339159D01*
X79158027Y-67362667D01*
X79022202Y-67435266D01*
X78957098Y-67488696D01*
X78864604Y-67564604D01*
X78832197Y-67604092D01*
X74204092Y-72232197D01*
X74164605Y-72264604D01*
X74132198Y-72304092D01*
X74132197Y-72304093D01*
X74035266Y-72422203D01*
X73939160Y-72602007D01*
X73879977Y-72797105D01*
X73859994Y-73000000D01*
X73865001Y-73050838D01*
X73865001Y-74101290D01*
X73759774Y-73996063D01*
X73590256Y-73882795D01*
X73401898Y-73804774D01*
X73201939Y-73765000D01*
X72998061Y-73765000D01*
X72798102Y-73804774D01*
X72609744Y-73882795D01*
X72440226Y-73996063D01*
X72434992Y-74001297D01*
X72434992Y-73898061D01*
X72395218Y-73698102D01*
X72317197Y-73509744D01*
X72203929Y-73340226D01*
X72059766Y-73196063D01*
X71890248Y-73082795D01*
X71701890Y-73004774D01*
X71501931Y-72965000D01*
X71298053Y-72965000D01*
X71098094Y-73004774D01*
X70909736Y-73082795D01*
X70740218Y-73196063D01*
X70596055Y-73340226D01*
X70482787Y-73509744D01*
X70404766Y-73698102D01*
X70364992Y-73898061D01*
X70364992Y-74101939D01*
X70404766Y-74301898D01*
X70482787Y-74490256D01*
X70596055Y-74659774D01*
X70740218Y-74803937D01*
X70909736Y-74917205D01*
X71098094Y-74995226D01*
X71298053Y-75035000D01*
X71501931Y-75035000D01*
X71701890Y-74995226D01*
X71890248Y-74917205D01*
X72059766Y-74803937D01*
X72065000Y-74798703D01*
X72065000Y-74901939D01*
X72104774Y-75101898D01*
X72182795Y-75290256D01*
X72296063Y-75459774D01*
X72440226Y-75603937D01*
X72609744Y-75717205D01*
X72798102Y-75795226D01*
X72998061Y-75835000D01*
X73201939Y-75835000D01*
X73401898Y-75795226D01*
X73590256Y-75717205D01*
X73759774Y-75603937D01*
X73865001Y-75498710D01*
X73865000Y-82271289D01*
X72071290Y-84065000D01*
X60228711Y-84065000D01*
X58203939Y-82040229D01*
X58203937Y-82040226D01*
X58059774Y-81896063D01*
X58017283Y-81867671D01*
X57977797Y-81835266D01*
X57932748Y-81811187D01*
X57890256Y-81782795D01*
X57843036Y-81763236D01*
X57797993Y-81739160D01*
X57749122Y-81724335D01*
X57701898Y-81704774D01*
X57651768Y-81694803D01*
X57602895Y-81679977D01*
X57552067Y-81674971D01*
X57501939Y-81665000D01*
X57450828Y-81665000D01*
X57400000Y-81659994D01*
X57349172Y-81665000D01*
X57298061Y-81665000D01*
X57247933Y-81674971D01*
X57197105Y-81679977D01*
X57148232Y-81694803D01*
X57098102Y-81704774D01*
X57050878Y-81724335D01*
X57002007Y-81739160D01*
X56956964Y-81763236D01*
X56909744Y-81782795D01*
X56867252Y-81811187D01*
X56822203Y-81835266D01*
X56782716Y-81867672D01*
X56740226Y-81896063D01*
X56704092Y-81932197D01*
X56664604Y-81964604D01*
X56632197Y-82004092D01*
X56596063Y-82040226D01*
X56567672Y-82082716D01*
X56535266Y-82122203D01*
X56511187Y-82167252D01*
X56482795Y-82209744D01*
X56463236Y-82256964D01*
X56439160Y-82302007D01*
X56424335Y-82350878D01*
X56404774Y-82398102D01*
X56394803Y-82448232D01*
X56379977Y-82497105D01*
X56374971Y-82547933D01*
X56365000Y-82598061D01*
X56365000Y-82649172D01*
X56359994Y-82700000D01*
X42624802Y-82700000D01*
X42377273Y-82452472D01*
X42452895Y-82445024D01*
X42647993Y-82385841D01*
X42827797Y-82289734D01*
X42985396Y-82160396D01*
X43114734Y-82002797D01*
X43210841Y-81822993D01*
X43270024Y-81627895D01*
X43290007Y-81425000D01*
X43270024Y-81222105D01*
X43210841Y-81027007D01*
X43114734Y-80847203D01*
X43075996Y-80800000D01*
X43114734Y-80752797D01*
X43210841Y-80572993D01*
X43270024Y-80377895D01*
X43290007Y-80175000D01*
X43270024Y-79972105D01*
X43210841Y-79777007D01*
X43114734Y-79597203D01*
X43075996Y-79550000D01*
X43114734Y-79502797D01*
X43210841Y-79322993D01*
X43270024Y-79127895D01*
X43282811Y-78998061D01*
X45965000Y-78998061D01*
X45965000Y-79201939D01*
X46004774Y-79401898D01*
X46082795Y-79590256D01*
X46196063Y-79759774D01*
X46340226Y-79903937D01*
X46466888Y-79988570D01*
X46465000Y-79998061D01*
X46465000Y-80201939D01*
X46504774Y-80401898D01*
X46582795Y-80590256D01*
X46696063Y-80759774D01*
X46840226Y-80903937D01*
X47009744Y-81017205D01*
X47198102Y-81095226D01*
X47398061Y-81135000D01*
X47601939Y-81135000D01*
X47801898Y-81095226D01*
X47990256Y-81017205D01*
X48159774Y-80903937D01*
X48165650Y-80898061D01*
X61965000Y-80898061D01*
X61965000Y-81101939D01*
X62004774Y-81301898D01*
X62082795Y-81490256D01*
X62196063Y-81659774D01*
X62340226Y-81803937D01*
X62509744Y-81917205D01*
X62698102Y-81995226D01*
X62898061Y-82035000D01*
X63101939Y-82035000D01*
X63301898Y-81995226D01*
X63490256Y-81917205D01*
X63659774Y-81803937D01*
X63803937Y-81659774D01*
X63917205Y-81490256D01*
X63995226Y-81301898D01*
X64035000Y-81101939D01*
X64035000Y-80898061D01*
X63995226Y-80698102D01*
X63917205Y-80509744D01*
X63803937Y-80340226D01*
X63659774Y-80196063D01*
X63490256Y-80082795D01*
X63301898Y-80004774D01*
X63101939Y-79965000D01*
X62898061Y-79965000D01*
X62698102Y-80004774D01*
X62509744Y-80082795D01*
X62340226Y-80196063D01*
X62196063Y-80340226D01*
X62082795Y-80509744D01*
X62004774Y-80698102D01*
X61965000Y-80898061D01*
X48165650Y-80898061D01*
X48303937Y-80759774D01*
X48417205Y-80590256D01*
X48495226Y-80401898D01*
X48535000Y-80201939D01*
X48535000Y-79998061D01*
X48495226Y-79798102D01*
X48417205Y-79609744D01*
X48303937Y-79440226D01*
X48159774Y-79296063D01*
X48033112Y-79211430D01*
X48035000Y-79201939D01*
X48035000Y-78998061D01*
X47995226Y-78798102D01*
X47917205Y-78609744D01*
X47803937Y-78440226D01*
X47659774Y-78296063D01*
X47490256Y-78182795D01*
X47301898Y-78104774D01*
X47101939Y-78065000D01*
X46898061Y-78065000D01*
X46698102Y-78104774D01*
X46509744Y-78182795D01*
X46340226Y-78296063D01*
X46196063Y-78440226D01*
X46082795Y-78609744D01*
X46004774Y-78798102D01*
X45965000Y-78998061D01*
X43282811Y-78998061D01*
X43290007Y-78925000D01*
X43270024Y-78722105D01*
X43210841Y-78527007D01*
X43114734Y-78347203D01*
X43081791Y-78307062D01*
X43145255Y-78223160D01*
X43234994Y-78037972D01*
X43244666Y-77961123D01*
X43116998Y-77802000D01*
X42127000Y-77802000D01*
X42127000Y-77822000D01*
X41873000Y-77822000D01*
X41873000Y-77802000D01*
X40883002Y-77802000D01*
X40755334Y-77961123D01*
X40765006Y-78037972D01*
X40854745Y-78223160D01*
X40918209Y-78307062D01*
X40885266Y-78347203D01*
X40789159Y-78527007D01*
X40729976Y-78722105D01*
X40709993Y-78925000D01*
X40729976Y-79127895D01*
X40789159Y-79322993D01*
X40885266Y-79502797D01*
X40924004Y-79550000D01*
X40885266Y-79597203D01*
X40789159Y-79777007D01*
X40729976Y-79972105D01*
X40709993Y-80175000D01*
X40729976Y-80377895D01*
X40789159Y-80572993D01*
X40885266Y-80752797D01*
X40924004Y-80800000D01*
X40885266Y-80847203D01*
X40845814Y-80921013D01*
X40510000Y-80585199D01*
X40510000Y-76225000D01*
X40711928Y-76225000D01*
X40711928Y-76625000D01*
X40728031Y-76788500D01*
X40775722Y-76945716D01*
X40853169Y-77090608D01*
X40868251Y-77108985D01*
X40854745Y-77126840D01*
X40765006Y-77312028D01*
X40755334Y-77388877D01*
X40883002Y-77548000D01*
X41873000Y-77548000D01*
X41873000Y-77528000D01*
X42127000Y-77528000D01*
X42127000Y-77548000D01*
X43116998Y-77548000D01*
X43244666Y-77388877D01*
X43234994Y-77312028D01*
X43179768Y-77198061D01*
X61465000Y-77198061D01*
X61465000Y-77401939D01*
X61504774Y-77601898D01*
X61582795Y-77790256D01*
X61696063Y-77959774D01*
X61840226Y-78103937D01*
X62009744Y-78217205D01*
X62198102Y-78295226D01*
X62398061Y-78335000D01*
X62601939Y-78335000D01*
X62801898Y-78295226D01*
X62990256Y-78217205D01*
X63159774Y-78103937D01*
X63303937Y-77959774D01*
X63417205Y-77790256D01*
X63495226Y-77601898D01*
X63535000Y-77401939D01*
X63535000Y-77198061D01*
X63495226Y-76998102D01*
X63417205Y-76809744D01*
X63303937Y-76640226D01*
X63159774Y-76496063D01*
X62990256Y-76382795D01*
X62801898Y-76304774D01*
X62601939Y-76265000D01*
X62398061Y-76265000D01*
X62198102Y-76304774D01*
X62009744Y-76382795D01*
X61840226Y-76496063D01*
X61696063Y-76640226D01*
X61582795Y-76809744D01*
X61504774Y-76998102D01*
X61465000Y-77198061D01*
X43179768Y-77198061D01*
X43145255Y-77126840D01*
X43131749Y-77108985D01*
X43146831Y-77090608D01*
X43224278Y-76945716D01*
X43271969Y-76788500D01*
X43288072Y-76625000D01*
X43288072Y-76225000D01*
X43271969Y-76061500D01*
X43224278Y-75904284D01*
X43146831Y-75759392D01*
X43042606Y-75632394D01*
X42915608Y-75528169D01*
X42770716Y-75450722D01*
X42613500Y-75403031D01*
X42450000Y-75386928D01*
X41550000Y-75386928D01*
X41386500Y-75403031D01*
X41229284Y-75450722D01*
X41084392Y-75528169D01*
X40957394Y-75632394D01*
X40853169Y-75759392D01*
X40775722Y-75904284D01*
X40728031Y-76061500D01*
X40711928Y-76225000D01*
X40510000Y-76225000D01*
X40510000Y-74498061D01*
X55665000Y-74498061D01*
X55665000Y-74701939D01*
X55704774Y-74901898D01*
X55782795Y-75090256D01*
X55896063Y-75259774D01*
X56040226Y-75403937D01*
X56209744Y-75517205D01*
X56398102Y-75595226D01*
X56598061Y-75635000D01*
X56801939Y-75635000D01*
X57001898Y-75595226D01*
X57190256Y-75517205D01*
X57359774Y-75403937D01*
X57503937Y-75259774D01*
X57617205Y-75090256D01*
X57695226Y-74901898D01*
X57735000Y-74701939D01*
X57735000Y-74598061D01*
X58465000Y-74598061D01*
X58465000Y-74801939D01*
X58504774Y-75001898D01*
X58582795Y-75190256D01*
X58696063Y-75359774D01*
X58840226Y-75503937D01*
X59009744Y-75617205D01*
X59198102Y-75695226D01*
X59398061Y-75735000D01*
X59601939Y-75735000D01*
X59801898Y-75695226D01*
X59990256Y-75617205D01*
X60159774Y-75503937D01*
X60303937Y-75359774D01*
X60417205Y-75190256D01*
X60495226Y-75001898D01*
X60535000Y-74801939D01*
X60535000Y-74598061D01*
X60495226Y-74398102D01*
X60417205Y-74209744D01*
X60303937Y-74040226D01*
X60161772Y-73898061D01*
X61465000Y-73898061D01*
X61465000Y-74101939D01*
X61504774Y-74301898D01*
X61582795Y-74490256D01*
X61696063Y-74659774D01*
X61840226Y-74803937D01*
X62009744Y-74917205D01*
X62198102Y-74995226D01*
X62398061Y-75035000D01*
X62601939Y-75035000D01*
X62801898Y-74995226D01*
X62990256Y-74917205D01*
X63159774Y-74803937D01*
X63303937Y-74659774D01*
X63417205Y-74490256D01*
X63495226Y-74301898D01*
X63535000Y-74101939D01*
X63535000Y-73898061D01*
X63495226Y-73698102D01*
X63417205Y-73509744D01*
X63303937Y-73340226D01*
X63159774Y-73196063D01*
X62990256Y-73082795D01*
X62801898Y-73004774D01*
X62768150Y-72998061D01*
X64165000Y-72998061D01*
X64165000Y-73201939D01*
X64204774Y-73401898D01*
X64282795Y-73590256D01*
X64396063Y-73759774D01*
X64540226Y-73903937D01*
X64709744Y-74017205D01*
X64898102Y-74095226D01*
X65098061Y-74135000D01*
X65301939Y-74135000D01*
X65501898Y-74095226D01*
X65690256Y-74017205D01*
X65859774Y-73903937D01*
X66003937Y-73759774D01*
X66117205Y-73590256D01*
X66195226Y-73401898D01*
X66235000Y-73201939D01*
X66235000Y-72998061D01*
X66195226Y-72798102D01*
X66117205Y-72609744D01*
X66003937Y-72440226D01*
X65859774Y-72296063D01*
X65690256Y-72182795D01*
X65501898Y-72104774D01*
X65301939Y-72065000D01*
X65098061Y-72065000D01*
X64898102Y-72104774D01*
X64709744Y-72182795D01*
X64540226Y-72296063D01*
X64396063Y-72440226D01*
X64282795Y-72609744D01*
X64204774Y-72798102D01*
X64165000Y-72998061D01*
X62768150Y-72998061D01*
X62601939Y-72965000D01*
X62398061Y-72965000D01*
X62198102Y-73004774D01*
X62009744Y-73082795D01*
X61840226Y-73196063D01*
X61696063Y-73340226D01*
X61582795Y-73509744D01*
X61504774Y-73698102D01*
X61465000Y-73898061D01*
X60161772Y-73898061D01*
X60159774Y-73896063D01*
X59990256Y-73782795D01*
X59801898Y-73704774D01*
X59601939Y-73665000D01*
X59398061Y-73665000D01*
X59198102Y-73704774D01*
X59009744Y-73782795D01*
X58840226Y-73896063D01*
X58696063Y-74040226D01*
X58582795Y-74209744D01*
X58504774Y-74398102D01*
X58465000Y-74598061D01*
X57735000Y-74598061D01*
X57735000Y-74498061D01*
X57695226Y-74298102D01*
X57617205Y-74109744D01*
X57503937Y-73940226D01*
X57359774Y-73796063D01*
X57190256Y-73682795D01*
X57001898Y-73604774D01*
X56801939Y-73565000D01*
X56598061Y-73565000D01*
X56398102Y-73604774D01*
X56209744Y-73682795D01*
X56040226Y-73796063D01*
X55896063Y-73940226D01*
X55782795Y-74109744D01*
X55704774Y-74298102D01*
X55665000Y-74498061D01*
X40510000Y-74498061D01*
X40510000Y-70464801D01*
X41761004Y-69213798D01*
X41790001Y-69190001D01*
X41884974Y-69074276D01*
X41955546Y-68942247D01*
X41999003Y-68798986D01*
X42010000Y-68687333D01*
X42010000Y-68687324D01*
X42013676Y-68650001D01*
X42010000Y-68612678D01*
X42010000Y-67437323D01*
X42013676Y-67400000D01*
X42010000Y-67362677D01*
X42010000Y-67362667D01*
X41999003Y-67251014D01*
X41955546Y-67107753D01*
X41933575Y-67066649D01*
X41884974Y-66975723D01*
X41813799Y-66888997D01*
X41790001Y-66859999D01*
X41761003Y-66836201D01*
X40760000Y-65835199D01*
X40760000Y-63298061D01*
X41065000Y-63298061D01*
X41065000Y-63501939D01*
X41104774Y-63701898D01*
X41182795Y-63890256D01*
X41296063Y-64059774D01*
X41440226Y-64203937D01*
X41609744Y-64317205D01*
X41798102Y-64395226D01*
X41998061Y-64435000D01*
X42201939Y-64435000D01*
X42401898Y-64395226D01*
X42590256Y-64317205D01*
X42759774Y-64203937D01*
X42903937Y-64059774D01*
X43017205Y-63890256D01*
X43095226Y-63701898D01*
X43135000Y-63501939D01*
X43135000Y-63298061D01*
X43095226Y-63098102D01*
X43017205Y-62909744D01*
X42903937Y-62740226D01*
X42759774Y-62596063D01*
X42590256Y-62482795D01*
X42401898Y-62404774D01*
X42201939Y-62365000D01*
X41998061Y-62365000D01*
X41798102Y-62404774D01*
X41609744Y-62482795D01*
X41440226Y-62596063D01*
X41296063Y-62740226D01*
X41182795Y-62909744D01*
X41104774Y-63098102D01*
X41065000Y-63298061D01*
X40760000Y-63298061D01*
X40760000Y-60837323D01*
X40763676Y-60800000D01*
X40760000Y-60762677D01*
X40760000Y-60762667D01*
X40749003Y-60651014D01*
X40705546Y-60507753D01*
X40681987Y-60463677D01*
X40634974Y-60375723D01*
X40563799Y-60288997D01*
X40540001Y-60259999D01*
X40511003Y-60236201D01*
X39660000Y-59385199D01*
X39660000Y-58398061D01*
X42465000Y-58398061D01*
X42465000Y-58601939D01*
X42504774Y-58801898D01*
X42582795Y-58990256D01*
X42696063Y-59159774D01*
X42840226Y-59303937D01*
X43009744Y-59417205D01*
X43198102Y-59495226D01*
X43398061Y-59535000D01*
X43601939Y-59535000D01*
X43715000Y-59512511D01*
X43715001Y-63619239D01*
X43709509Y-63675000D01*
X43731423Y-63897498D01*
X43796324Y-64111446D01*
X43796325Y-64111447D01*
X43901717Y-64308623D01*
X44043552Y-64481449D01*
X44086860Y-64516991D01*
X45733009Y-66163140D01*
X45768551Y-66206449D01*
X45941377Y-66348284D01*
X46138553Y-66453676D01*
X46352501Y-66518577D01*
X46519248Y-66535000D01*
X46519257Y-66535000D01*
X46574999Y-66540490D01*
X46630741Y-66535000D01*
X49354869Y-66535000D01*
X54284868Y-71465000D01*
X54198061Y-71465000D01*
X53998102Y-71504774D01*
X53809744Y-71582795D01*
X53640226Y-71696063D01*
X53496063Y-71840226D01*
X53382795Y-72009744D01*
X53304774Y-72198102D01*
X53265000Y-72398061D01*
X53265000Y-72601939D01*
X53304774Y-72801898D01*
X53382795Y-72990256D01*
X53496063Y-73159774D01*
X53640226Y-73303937D01*
X53809744Y-73417205D01*
X53998102Y-73495226D01*
X54198061Y-73535000D01*
X54401939Y-73535000D01*
X54601898Y-73495226D01*
X54790256Y-73417205D01*
X54959774Y-73303937D01*
X55103937Y-73159774D01*
X55217205Y-72990256D01*
X55295226Y-72801898D01*
X55335000Y-72601939D01*
X55335000Y-72515132D01*
X55383009Y-72563141D01*
X55418551Y-72606449D01*
X55553507Y-72717205D01*
X55591377Y-72748284D01*
X55788553Y-72853676D01*
X56002501Y-72918577D01*
X56225000Y-72940491D01*
X56280752Y-72935000D01*
X57455752Y-72935000D01*
X57622499Y-72918577D01*
X57836447Y-72853676D01*
X58033623Y-72748284D01*
X58206449Y-72606449D01*
X58348284Y-72433623D01*
X58453676Y-72236447D01*
X58518577Y-72022499D01*
X58540491Y-71800000D01*
X58518577Y-71577501D01*
X58453676Y-71363553D01*
X58365220Y-71198061D01*
X62965000Y-71198061D01*
X62965000Y-71401939D01*
X63004774Y-71601898D01*
X63082795Y-71790256D01*
X63196063Y-71959774D01*
X63340226Y-72103937D01*
X63509744Y-72217205D01*
X63698102Y-72295226D01*
X63898061Y-72335000D01*
X64101939Y-72335000D01*
X64301898Y-72295226D01*
X64490256Y-72217205D01*
X64659774Y-72103937D01*
X64803937Y-71959774D01*
X64917205Y-71790256D01*
X64995226Y-71601898D01*
X65035000Y-71401939D01*
X65035000Y-71198061D01*
X64995226Y-70998102D01*
X64917205Y-70809744D01*
X64803937Y-70640226D01*
X64659774Y-70496063D01*
X64490256Y-70382795D01*
X64301898Y-70304774D01*
X64293724Y-70303148D01*
X71826457Y-70303148D01*
X72102627Y-70721118D01*
X72647557Y-71011649D01*
X73238696Y-71190287D01*
X73853328Y-71250168D01*
X74467831Y-71188990D01*
X75058592Y-71009103D01*
X75597373Y-70721118D01*
X75873543Y-70303148D01*
X73850000Y-68279605D01*
X71826457Y-70303148D01*
X64293724Y-70303148D01*
X64101939Y-70265000D01*
X63898061Y-70265000D01*
X63698102Y-70304774D01*
X63509744Y-70382795D01*
X63340226Y-70496063D01*
X63196063Y-70640226D01*
X63082795Y-70809744D01*
X63004774Y-70998102D01*
X62965000Y-71198061D01*
X58365220Y-71198061D01*
X58348284Y-71166377D01*
X58206449Y-70993551D01*
X58033623Y-70851716D01*
X57836447Y-70746324D01*
X57622499Y-70681423D01*
X57455752Y-70665000D01*
X56695132Y-70665000D01*
X55528193Y-69498061D01*
X58065000Y-69498061D01*
X58065000Y-69701939D01*
X58104774Y-69901898D01*
X58182795Y-70090256D01*
X58296063Y-70259774D01*
X58440226Y-70403937D01*
X58609744Y-70517205D01*
X58798102Y-70595226D01*
X58998061Y-70635000D01*
X59201939Y-70635000D01*
X59401898Y-70595226D01*
X59590256Y-70517205D01*
X59759774Y-70403937D01*
X59903937Y-70259774D01*
X60017205Y-70090256D01*
X60095226Y-69901898D01*
X60135000Y-69701939D01*
X60135000Y-69498061D01*
X60095226Y-69298102D01*
X60017205Y-69109744D01*
X59903937Y-68940226D01*
X59759774Y-68796063D01*
X59590256Y-68682795D01*
X59401898Y-68604774D01*
X59201939Y-68565000D01*
X58998061Y-68565000D01*
X58798102Y-68604774D01*
X58609744Y-68682795D01*
X58440226Y-68796063D01*
X58296063Y-68940226D01*
X58182795Y-69109744D01*
X58104774Y-69298102D01*
X58065000Y-69498061D01*
X55528193Y-69498061D01*
X50666996Y-64636865D01*
X50631449Y-64593551D01*
X50458623Y-64451716D01*
X50261447Y-64346324D01*
X50047499Y-64281423D01*
X49880752Y-64265000D01*
X49880751Y-64265000D01*
X49825000Y-64259509D01*
X49769249Y-64265000D01*
X47045132Y-64265000D01*
X45985000Y-63204869D01*
X45985000Y-60698061D01*
X48465000Y-60698061D01*
X48465000Y-60901939D01*
X48504774Y-61101898D01*
X48582795Y-61290256D01*
X48696063Y-61459774D01*
X48840226Y-61603937D01*
X49009744Y-61717205D01*
X49198102Y-61795226D01*
X49398061Y-61835000D01*
X49601939Y-61835000D01*
X49801898Y-61795226D01*
X49990256Y-61717205D01*
X50159774Y-61603937D01*
X50303937Y-61459774D01*
X50417205Y-61290256D01*
X50495226Y-61101898D01*
X50535000Y-60901939D01*
X50535000Y-60698061D01*
X50495226Y-60498102D01*
X50417205Y-60309744D01*
X50303937Y-60140226D01*
X50298711Y-60135000D01*
X50401939Y-60135000D01*
X50601898Y-60095226D01*
X50790256Y-60017205D01*
X50959774Y-59903937D01*
X51103937Y-59759774D01*
X51211989Y-59598061D01*
X52365000Y-59598061D01*
X52365000Y-59801939D01*
X52404774Y-60001898D01*
X52482795Y-60190256D01*
X52596063Y-60359774D01*
X52740226Y-60503937D01*
X52909744Y-60617205D01*
X52939685Y-60629607D01*
X52840226Y-60696063D01*
X52696063Y-60840226D01*
X52582795Y-61009744D01*
X52504774Y-61198102D01*
X52465000Y-61398061D01*
X52465000Y-61601939D01*
X52504774Y-61801898D01*
X52582795Y-61990256D01*
X52696063Y-62159774D01*
X52840226Y-62303937D01*
X53009744Y-62417205D01*
X53198102Y-62495226D01*
X53398061Y-62535000D01*
X53601939Y-62535000D01*
X53801898Y-62495226D01*
X53990256Y-62417205D01*
X54159774Y-62303937D01*
X54303937Y-62159774D01*
X54417205Y-61990256D01*
X54495226Y-61801898D01*
X54535000Y-61601939D01*
X54535000Y-61398061D01*
X54495226Y-61198102D01*
X54417205Y-61009744D01*
X54303937Y-60840226D01*
X54159774Y-60696063D01*
X53990256Y-60582795D01*
X53960315Y-60570393D01*
X54059774Y-60503937D01*
X54203937Y-60359774D01*
X54317205Y-60190256D01*
X54395226Y-60001898D01*
X54435000Y-59801939D01*
X54435000Y-59598061D01*
X54395226Y-59398102D01*
X54317205Y-59209744D01*
X54203937Y-59040226D01*
X54059774Y-58896063D01*
X53890256Y-58782795D01*
X53701898Y-58704774D01*
X53501939Y-58665000D01*
X53298061Y-58665000D01*
X53098102Y-58704774D01*
X52909744Y-58782795D01*
X52740226Y-58896063D01*
X52596063Y-59040226D01*
X52482795Y-59209744D01*
X52404774Y-59398102D01*
X52365000Y-59598061D01*
X51211989Y-59598061D01*
X51217205Y-59590256D01*
X51295226Y-59401898D01*
X51335000Y-59201939D01*
X51335000Y-58998061D01*
X51295226Y-58798102D01*
X51217205Y-58609744D01*
X51103937Y-58440226D01*
X50959774Y-58296063D01*
X50790256Y-58182795D01*
X50601898Y-58104774D01*
X50401939Y-58065000D01*
X50198061Y-58065000D01*
X49998102Y-58104774D01*
X49809744Y-58182795D01*
X49640226Y-58296063D01*
X49496063Y-58440226D01*
X49382795Y-58609744D01*
X49304774Y-58798102D01*
X49265000Y-58998061D01*
X49265000Y-59201939D01*
X49304774Y-59401898D01*
X49382795Y-59590256D01*
X49496063Y-59759774D01*
X49501289Y-59765000D01*
X49398061Y-59765000D01*
X49198102Y-59804774D01*
X49009744Y-59882795D01*
X48840226Y-59996063D01*
X48696063Y-60140226D01*
X48582795Y-60309744D01*
X48504774Y-60498102D01*
X48465000Y-60698061D01*
X45985000Y-60698061D01*
X45985000Y-54295132D01*
X46176984Y-54103148D01*
X55626457Y-54103148D01*
X55902627Y-54521118D01*
X56447557Y-54811649D01*
X57038696Y-54990287D01*
X57653328Y-55050168D01*
X58267831Y-54988990D01*
X58778707Y-54833428D01*
X58131746Y-55840119D01*
X57617276Y-56966651D01*
X57268365Y-58154933D01*
X57092116Y-59380776D01*
X57092116Y-60619224D01*
X57268365Y-61845067D01*
X57617276Y-63033349D01*
X58131746Y-64159881D01*
X58801302Y-65201730D01*
X59612313Y-66137687D01*
X60548270Y-66948698D01*
X61590119Y-67618254D01*
X62716651Y-68132724D01*
X63904933Y-68481635D01*
X65130776Y-68657884D01*
X66369224Y-68657884D01*
X67595067Y-68481635D01*
X68783349Y-68132724D01*
X69909881Y-67618254D01*
X70915947Y-66971694D01*
X70759713Y-67488696D01*
X70699832Y-68103328D01*
X70761010Y-68717831D01*
X70940897Y-69308592D01*
X71228882Y-69847373D01*
X71646852Y-70123543D01*
X73670395Y-68100000D01*
X74029605Y-68100000D01*
X76053148Y-70123543D01*
X76471118Y-69847373D01*
X76761649Y-69302443D01*
X76940287Y-68711304D01*
X77000168Y-68096672D01*
X76938990Y-67482169D01*
X76759103Y-66891408D01*
X76471118Y-66352627D01*
X76053148Y-66076457D01*
X74029605Y-68100000D01*
X73670395Y-68100000D01*
X73656253Y-68085858D01*
X73835858Y-67906253D01*
X73850000Y-67920395D01*
X75873543Y-65896852D01*
X75597373Y-65478882D01*
X75052443Y-65188351D01*
X74475084Y-65013877D01*
X79355334Y-65013877D01*
X79483002Y-65173000D01*
X80473000Y-65173000D01*
X80473000Y-64416238D01*
X80727000Y-64416238D01*
X80727000Y-65173000D01*
X81716998Y-65173000D01*
X81844666Y-65013877D01*
X81834994Y-64937028D01*
X81745255Y-64751840D01*
X81621112Y-64587717D01*
X81467336Y-64450967D01*
X81289836Y-64346845D01*
X81095433Y-64279352D01*
X80891599Y-64251082D01*
X80727000Y-64416238D01*
X80473000Y-64416238D01*
X80308401Y-64251082D01*
X80104567Y-64279352D01*
X79910164Y-64346845D01*
X79732664Y-64450967D01*
X79578888Y-64587717D01*
X79454745Y-64751840D01*
X79365006Y-64937028D01*
X79355334Y-65013877D01*
X74475084Y-65013877D01*
X74461304Y-65009713D01*
X73846672Y-64949832D01*
X73232169Y-65011010D01*
X72721293Y-65166572D01*
X73368254Y-64159881D01*
X73710457Y-63410561D01*
X87752500Y-63410561D01*
X87752500Y-63614439D01*
X87792274Y-63814398D01*
X87870295Y-64002756D01*
X87983563Y-64172274D01*
X88127726Y-64316437D01*
X88297244Y-64429705D01*
X88485602Y-64507726D01*
X88685561Y-64547500D01*
X88889439Y-64547500D01*
X89089398Y-64507726D01*
X89277756Y-64429705D01*
X89447274Y-64316437D01*
X89591437Y-64172274D01*
X89704705Y-64002756D01*
X89782726Y-63814398D01*
X89822500Y-63614439D01*
X89822500Y-63410561D01*
X89782726Y-63210602D01*
X89704705Y-63022244D01*
X89591437Y-62852726D01*
X89447274Y-62708563D01*
X89277756Y-62595295D01*
X89089398Y-62517274D01*
X88889439Y-62477500D01*
X88685561Y-62477500D01*
X88485602Y-62517274D01*
X88297244Y-62595295D01*
X88127726Y-62708563D01*
X87983563Y-62852726D01*
X87870295Y-63022244D01*
X87792274Y-63210602D01*
X87752500Y-63410561D01*
X73710457Y-63410561D01*
X73882724Y-63033349D01*
X74231635Y-61845067D01*
X74407884Y-60619224D01*
X74407884Y-59548061D01*
X79265000Y-59548061D01*
X79265000Y-59751939D01*
X79304774Y-59951898D01*
X79382795Y-60140256D01*
X79496063Y-60309774D01*
X79640226Y-60453937D01*
X79809744Y-60567205D01*
X79998102Y-60645226D01*
X80198061Y-60685000D01*
X80401939Y-60685000D01*
X80601898Y-60645226D01*
X80790256Y-60567205D01*
X80959774Y-60453937D01*
X81103937Y-60309774D01*
X81217205Y-60140256D01*
X81295226Y-59951898D01*
X81335000Y-59751939D01*
X81335000Y-59548061D01*
X81295226Y-59348102D01*
X81217205Y-59159744D01*
X81103937Y-58990226D01*
X80959774Y-58846063D01*
X80790256Y-58732795D01*
X80601898Y-58654774D01*
X80401939Y-58615000D01*
X80198061Y-58615000D01*
X79998102Y-58654774D01*
X79809744Y-58732795D01*
X79640226Y-58846063D01*
X79496063Y-58990226D01*
X79382795Y-59159744D01*
X79304774Y-59348102D01*
X79265000Y-59548061D01*
X74407884Y-59548061D01*
X74407884Y-59380776D01*
X74231635Y-58154933D01*
X73882724Y-56966651D01*
X73368254Y-55840119D01*
X72721694Y-54834053D01*
X73238696Y-54990287D01*
X73853328Y-55050168D01*
X74467831Y-54988990D01*
X75058592Y-54809103D01*
X75597373Y-54521118D01*
X75873543Y-54103148D01*
X75868456Y-54098061D01*
X90265000Y-54098061D01*
X90265000Y-54301939D01*
X90304774Y-54501898D01*
X90382795Y-54690256D01*
X90496063Y-54859774D01*
X90640226Y-55003937D01*
X90809744Y-55117205D01*
X90998102Y-55195226D01*
X91198061Y-55235000D01*
X91401939Y-55235000D01*
X91601898Y-55195226D01*
X91790256Y-55117205D01*
X91959774Y-55003937D01*
X92103937Y-54859774D01*
X92217205Y-54690256D01*
X92295226Y-54501898D01*
X92335000Y-54301939D01*
X92335000Y-54098061D01*
X92295226Y-53898102D01*
X92217205Y-53709744D01*
X92103937Y-53540226D01*
X91959774Y-53396063D01*
X91790256Y-53282795D01*
X91601898Y-53204774D01*
X91401939Y-53165000D01*
X91198061Y-53165000D01*
X90998102Y-53204774D01*
X90809744Y-53282795D01*
X90640226Y-53396063D01*
X90496063Y-53540226D01*
X90382795Y-53709744D01*
X90304774Y-53898102D01*
X90265000Y-54098061D01*
X75868456Y-54098061D01*
X73850000Y-52079605D01*
X73835858Y-52093748D01*
X73656253Y-51914143D01*
X73670395Y-51900000D01*
X74029605Y-51900000D01*
X76053148Y-53923543D01*
X76471118Y-53647373D01*
X76761649Y-53102443D01*
X76940287Y-52511304D01*
X77000168Y-51896672D01*
X76938990Y-51282169D01*
X76759103Y-50691408D01*
X76471118Y-50152627D01*
X76053148Y-49876457D01*
X74029605Y-51900000D01*
X73670395Y-51900000D01*
X71646852Y-49876457D01*
X71228882Y-50152627D01*
X70938351Y-50697557D01*
X70759713Y-51288696D01*
X70699832Y-51903328D01*
X70761010Y-52517831D01*
X70916572Y-53028707D01*
X69909881Y-52381746D01*
X68783349Y-51867276D01*
X67595067Y-51518365D01*
X66369224Y-51342116D01*
X65130776Y-51342116D01*
X63904933Y-51518365D01*
X62716651Y-51867276D01*
X61590119Y-52381746D01*
X60584053Y-53028306D01*
X60740287Y-52511304D01*
X60800168Y-51896672D01*
X60738990Y-51282169D01*
X60559103Y-50691408D01*
X60455757Y-50498061D01*
X61865000Y-50498061D01*
X61865000Y-50701939D01*
X61904774Y-50901898D01*
X61982795Y-51090256D01*
X62096063Y-51259774D01*
X62240226Y-51403937D01*
X62409744Y-51517205D01*
X62598102Y-51595226D01*
X62798061Y-51635000D01*
X63001939Y-51635000D01*
X63201898Y-51595226D01*
X63390256Y-51517205D01*
X63559774Y-51403937D01*
X63703937Y-51259774D01*
X63817205Y-51090256D01*
X63895226Y-50901898D01*
X63935000Y-50701939D01*
X63935000Y-50498061D01*
X63895226Y-50298102D01*
X63817205Y-50109744D01*
X63703937Y-49940226D01*
X63559774Y-49796063D01*
X63411294Y-49696852D01*
X71826457Y-49696852D01*
X73850000Y-51720395D01*
X75873543Y-49696852D01*
X75597373Y-49278882D01*
X75052443Y-48988351D01*
X74461304Y-48809713D01*
X73846672Y-48749832D01*
X73232169Y-48811010D01*
X72641408Y-48990897D01*
X72102627Y-49278882D01*
X71826457Y-49696852D01*
X63411294Y-49696852D01*
X63390256Y-49682795D01*
X63201898Y-49604774D01*
X63001939Y-49565000D01*
X62798061Y-49565000D01*
X62598102Y-49604774D01*
X62409744Y-49682795D01*
X62240226Y-49796063D01*
X62096063Y-49940226D01*
X61982795Y-50109744D01*
X61904774Y-50298102D01*
X61865000Y-50498061D01*
X60455757Y-50498061D01*
X60271118Y-50152627D01*
X59853148Y-49876457D01*
X57829605Y-51900000D01*
X57843748Y-51914143D01*
X57664143Y-52093748D01*
X57650000Y-52079605D01*
X55626457Y-54103148D01*
X46176984Y-54103148D01*
X46620132Y-53660000D01*
X47255752Y-53660000D01*
X47422499Y-53643577D01*
X47636447Y-53578676D01*
X47833623Y-53473284D01*
X48006449Y-53331449D01*
X48148284Y-53158623D01*
X48253676Y-52961447D01*
X48318577Y-52747499D01*
X48340491Y-52525000D01*
X48318577Y-52302501D01*
X48253676Y-52088553D01*
X48154672Y-51903328D01*
X54499832Y-51903328D01*
X54561010Y-52517831D01*
X54740897Y-53108592D01*
X55028882Y-53647373D01*
X55446852Y-53923543D01*
X57470395Y-51900000D01*
X55446852Y-49876457D01*
X55028882Y-50152627D01*
X54738351Y-50697557D01*
X54559713Y-51288696D01*
X54499832Y-51903328D01*
X48154672Y-51903328D01*
X48148284Y-51891377D01*
X48006449Y-51718551D01*
X47833623Y-51576716D01*
X47636447Y-51471324D01*
X47422499Y-51406423D01*
X47255752Y-51390000D01*
X46205752Y-51390000D01*
X46150000Y-51384509D01*
X45927501Y-51406423D01*
X45713553Y-51471324D01*
X45516377Y-51576716D01*
X45386856Y-51683011D01*
X45386854Y-51683013D01*
X45343551Y-51718551D01*
X45308013Y-51761854D01*
X44086864Y-52983005D01*
X44043551Y-53018551D01*
X43901716Y-53191377D01*
X43796325Y-53388553D01*
X43796324Y-53388554D01*
X43731423Y-53602502D01*
X43709509Y-53825000D01*
X43715000Y-53880752D01*
X43715001Y-56265000D01*
X43644248Y-56265000D01*
X43477501Y-56281423D01*
X43263553Y-56346324D01*
X43066377Y-56451716D01*
X42893551Y-56593551D01*
X42751716Y-56766377D01*
X42646324Y-56963553D01*
X42581423Y-57177501D01*
X42559509Y-57400000D01*
X42581423Y-57622499D01*
X42646324Y-57836447D01*
X42669552Y-57879903D01*
X42582795Y-58009744D01*
X42504774Y-58198102D01*
X42465000Y-58398061D01*
X39660000Y-58398061D01*
X39660000Y-54617150D01*
X39809744Y-54717205D01*
X39998102Y-54795226D01*
X40198061Y-54835000D01*
X40401939Y-54835000D01*
X40601898Y-54795226D01*
X40790256Y-54717205D01*
X40959774Y-54603937D01*
X41103937Y-54459774D01*
X41217205Y-54290256D01*
X41295226Y-54101898D01*
X41335000Y-53901939D01*
X41335000Y-53698061D01*
X41295226Y-53498102D01*
X41217205Y-53309744D01*
X41103937Y-53140226D01*
X40959774Y-52996063D01*
X40790256Y-52882795D01*
X40708171Y-52848794D01*
X40708171Y-52727944D01*
X40668397Y-52527985D01*
X40590376Y-52339627D01*
X40477108Y-52170109D01*
X40332945Y-52025946D01*
X40163427Y-51912678D01*
X39975069Y-51834657D01*
X39775110Y-51794883D01*
X39660000Y-51794883D01*
X39660000Y-49696852D01*
X55626457Y-49696852D01*
X57650000Y-51720395D01*
X59673543Y-49696852D01*
X59397373Y-49278882D01*
X58852443Y-48988351D01*
X58261304Y-48809713D01*
X57646672Y-48749832D01*
X57032169Y-48811010D01*
X56441408Y-48990897D01*
X55902627Y-49278882D01*
X55626457Y-49696852D01*
X39660000Y-49696852D01*
X39660000Y-48764801D01*
X40296735Y-48128066D01*
X53016992Y-48128066D01*
X53016992Y-48331944D01*
X53056766Y-48531903D01*
X53134787Y-48720261D01*
X53248055Y-48889779D01*
X53392218Y-49033942D01*
X53561736Y-49147210D01*
X53750094Y-49225231D01*
X53950053Y-49265005D01*
X54153931Y-49265005D01*
X54353890Y-49225231D01*
X54542248Y-49147210D01*
X54711766Y-49033942D01*
X54855929Y-48889779D01*
X54969197Y-48720261D01*
X55011596Y-48617901D01*
X55189238Y-48582566D01*
X55377596Y-48504545D01*
X55547114Y-48391277D01*
X55640334Y-48298057D01*
X61865000Y-48298057D01*
X61865000Y-48501935D01*
X61904774Y-48701894D01*
X61982795Y-48890252D01*
X62096063Y-49059770D01*
X62240226Y-49203933D01*
X62409744Y-49317201D01*
X62598102Y-49395222D01*
X62798061Y-49434996D01*
X63001939Y-49434996D01*
X63201898Y-49395222D01*
X63390256Y-49317201D01*
X63559774Y-49203933D01*
X63703937Y-49059770D01*
X63817205Y-48890252D01*
X63895226Y-48701894D01*
X63935000Y-48501935D01*
X63935000Y-48298057D01*
X63895226Y-48098098D01*
X63817205Y-47909740D01*
X63703937Y-47740222D01*
X63559774Y-47596059D01*
X63390256Y-47482791D01*
X63201898Y-47404770D01*
X63001939Y-47364996D01*
X62798061Y-47364996D01*
X62598102Y-47404770D01*
X62409744Y-47482791D01*
X62240226Y-47596059D01*
X62096063Y-47740222D01*
X61982795Y-47909740D01*
X61904774Y-48098098D01*
X61865000Y-48298057D01*
X55640334Y-48298057D01*
X55691277Y-48247114D01*
X55804545Y-48077596D01*
X55882566Y-47889238D01*
X55922340Y-47689279D01*
X55922340Y-47485401D01*
X55882566Y-47285442D01*
X55804545Y-47097084D01*
X55691277Y-46927566D01*
X55547114Y-46783403D01*
X55377596Y-46670135D01*
X55189238Y-46592114D01*
X54989279Y-46552340D01*
X54785401Y-46552340D01*
X54585442Y-46592114D01*
X54397084Y-46670135D01*
X54227566Y-46783403D01*
X54083403Y-46927566D01*
X53970135Y-47097084D01*
X53927736Y-47199444D01*
X53750094Y-47234779D01*
X53561736Y-47312800D01*
X53392218Y-47426068D01*
X53248055Y-47570231D01*
X53134787Y-47739749D01*
X53056766Y-47928107D01*
X53016992Y-48128066D01*
X40296735Y-48128066D01*
X42364802Y-46060000D01*
X47492462Y-46060000D01*
X47465000Y-46198061D01*
X47465000Y-46401939D01*
X47504774Y-46601898D01*
X47582795Y-46790256D01*
X47696063Y-46959774D01*
X47840226Y-47103937D01*
X48009744Y-47217205D01*
X48198102Y-47295226D01*
X48398061Y-47335000D01*
X48601939Y-47335000D01*
X48801898Y-47295226D01*
X48990256Y-47217205D01*
X49159774Y-47103937D01*
X49303937Y-46959774D01*
X49417205Y-46790256D01*
X49495226Y-46601898D01*
X49535000Y-46401939D01*
X49535000Y-46198061D01*
X49507538Y-46060000D01*
X61162678Y-46060000D01*
X61200000Y-46063676D01*
X61237322Y-46060000D01*
X61237333Y-46060000D01*
X61348986Y-46049003D01*
X61492247Y-46005546D01*
X61624276Y-45934974D01*
X61669254Y-45898061D01*
X66565000Y-45898061D01*
X66565000Y-46101939D01*
X66604774Y-46301898D01*
X66682795Y-46490256D01*
X66796063Y-46659774D01*
X66940226Y-46803937D01*
X67109744Y-46917205D01*
X67298102Y-46995226D01*
X67498061Y-47035000D01*
X67701939Y-47035000D01*
X67901898Y-46995226D01*
X68090256Y-46917205D01*
X68259774Y-46803937D01*
X68403937Y-46659774D01*
X68517205Y-46490256D01*
X68595226Y-46301898D01*
X68635000Y-46101939D01*
X68635000Y-45898061D01*
X68595226Y-45698102D01*
X68517205Y-45509744D01*
X68403937Y-45340226D01*
X68259774Y-45196063D01*
X68090256Y-45082795D01*
X67901898Y-45004774D01*
X67701939Y-44965000D01*
X67498061Y-44965000D01*
X67298102Y-45004774D01*
X67109744Y-45082795D01*
X66940226Y-45196063D01*
X66796063Y-45340226D01*
X66682795Y-45509744D01*
X66604774Y-45698102D01*
X66565000Y-45898061D01*
X61669254Y-45898061D01*
X61740001Y-45840001D01*
X61763804Y-45810997D01*
X63161004Y-44413798D01*
X63190001Y-44390001D01*
X63284974Y-44274276D01*
X63355546Y-44142247D01*
X63399003Y-43998986D01*
X63408942Y-43898069D01*
X67715000Y-43898069D01*
X67715000Y-44101947D01*
X67754774Y-44301906D01*
X67832795Y-44490264D01*
X67946063Y-44659782D01*
X68090226Y-44803945D01*
X68259744Y-44917213D01*
X68448102Y-44995234D01*
X68648061Y-45035008D01*
X68851939Y-45035008D01*
X69037685Y-44998061D01*
X81415000Y-44998061D01*
X81415000Y-45201939D01*
X81454774Y-45401898D01*
X81532795Y-45590256D01*
X81646063Y-45759774D01*
X81790226Y-45903937D01*
X81959744Y-46017205D01*
X82148102Y-46095226D01*
X82348061Y-46135000D01*
X82551939Y-46135000D01*
X82751898Y-46095226D01*
X82940256Y-46017205D01*
X83109774Y-45903937D01*
X83253937Y-45759774D01*
X83367205Y-45590256D01*
X83445226Y-45401898D01*
X83485000Y-45201939D01*
X83485000Y-44998061D01*
X83445226Y-44798102D01*
X83367205Y-44609744D01*
X83253937Y-44440226D01*
X83109774Y-44296063D01*
X82940256Y-44182795D01*
X82751898Y-44104774D01*
X82551939Y-44065000D01*
X82348061Y-44065000D01*
X82148102Y-44104774D01*
X81959744Y-44182795D01*
X81790226Y-44296063D01*
X81646063Y-44440226D01*
X81532795Y-44609744D01*
X81454774Y-44798102D01*
X81415000Y-44998061D01*
X69037685Y-44998061D01*
X69051898Y-44995234D01*
X69240256Y-44917213D01*
X69409774Y-44803945D01*
X69553937Y-44659782D01*
X69667205Y-44490264D01*
X69745226Y-44301906D01*
X69785000Y-44101947D01*
X69785000Y-43898069D01*
X69745226Y-43698110D01*
X69667205Y-43509752D01*
X69553937Y-43340234D01*
X69409774Y-43196071D01*
X69240256Y-43082803D01*
X69051898Y-43004782D01*
X68851939Y-42965008D01*
X68648061Y-42965008D01*
X68448102Y-43004782D01*
X68259744Y-43082803D01*
X68090226Y-43196071D01*
X67946063Y-43340234D01*
X67832795Y-43509752D01*
X67754774Y-43698110D01*
X67715000Y-43898069D01*
X63408942Y-43898069D01*
X63410000Y-43887333D01*
X63410000Y-43887325D01*
X63413676Y-43850000D01*
X63410000Y-43812675D01*
X63410000Y-42548178D01*
X63596632Y-42423475D01*
X63803475Y-42216632D01*
X63920000Y-42042240D01*
X64036525Y-42216632D01*
X64243368Y-42423475D01*
X64486589Y-42585990D01*
X64756842Y-42697932D01*
X65043740Y-42755000D01*
X65336260Y-42755000D01*
X65623158Y-42697932D01*
X65893411Y-42585990D01*
X66136632Y-42423475D01*
X66343475Y-42216632D01*
X66460000Y-42042240D01*
X66576525Y-42216632D01*
X66783368Y-42423475D01*
X67026589Y-42585990D01*
X67296842Y-42697932D01*
X67583740Y-42755000D01*
X67876260Y-42755000D01*
X68163158Y-42697932D01*
X68433411Y-42585990D01*
X68676632Y-42423475D01*
X68883475Y-42216632D01*
X69000000Y-42042240D01*
X69116525Y-42216632D01*
X69323368Y-42423475D01*
X69566589Y-42585990D01*
X69836842Y-42697932D01*
X70123740Y-42755000D01*
X70416260Y-42755000D01*
X70703158Y-42697932D01*
X70973411Y-42585990D01*
X71216632Y-42423475D01*
X71423475Y-42216632D01*
X71540000Y-42042240D01*
X71656525Y-42216632D01*
X71863368Y-42423475D01*
X72106589Y-42585990D01*
X72376842Y-42697932D01*
X72663740Y-42755000D01*
X72956260Y-42755000D01*
X73243158Y-42697932D01*
X73513411Y-42585990D01*
X73756632Y-42423475D01*
X73963475Y-42216632D01*
X74085195Y-42034466D01*
X74154822Y-42151355D01*
X74349731Y-42367588D01*
X74583080Y-42541641D01*
X74845901Y-42666825D01*
X74993110Y-42711476D01*
X75223000Y-42590155D01*
X75223000Y-41397000D01*
X75203000Y-41397000D01*
X75203000Y-41143000D01*
X75223000Y-41143000D01*
X75223000Y-41123000D01*
X75477000Y-41123000D01*
X75477000Y-41143000D01*
X75497000Y-41143000D01*
X75497000Y-41397000D01*
X75477000Y-41397000D01*
X75477000Y-42590155D01*
X75706890Y-42711476D01*
X75854099Y-42666825D01*
X76116920Y-42541641D01*
X76350269Y-42367588D01*
X76545178Y-42151355D01*
X76614805Y-42034466D01*
X76736525Y-42216632D01*
X76943368Y-42423475D01*
X77186589Y-42585990D01*
X77456842Y-42697932D01*
X77743740Y-42755000D01*
X78036260Y-42755000D01*
X78323158Y-42697932D01*
X78593411Y-42585990D01*
X78836632Y-42423475D01*
X79043475Y-42216632D01*
X79160000Y-42042240D01*
X79276525Y-42216632D01*
X79483368Y-42423475D01*
X79726589Y-42585990D01*
X79996842Y-42697932D01*
X80283740Y-42755000D01*
X80576260Y-42755000D01*
X80863158Y-42697932D01*
X81133411Y-42585990D01*
X81376632Y-42423475D01*
X81583475Y-42216632D01*
X81700000Y-42042240D01*
X81816525Y-42216632D01*
X82023368Y-42423475D01*
X82266589Y-42585990D01*
X82536842Y-42697932D01*
X82823740Y-42755000D01*
X83116260Y-42755000D01*
X83403158Y-42697932D01*
X83673411Y-42585990D01*
X83916632Y-42423475D01*
X84123475Y-42216632D01*
X84240000Y-42042240D01*
X84356525Y-42216632D01*
X84563368Y-42423475D01*
X84806589Y-42585990D01*
X85076842Y-42697932D01*
X85363740Y-42755000D01*
X85656260Y-42755000D01*
X85943158Y-42697932D01*
X86213411Y-42585990D01*
X86456632Y-42423475D01*
X86663475Y-42216632D01*
X86780000Y-42042240D01*
X86896525Y-42216632D01*
X87103368Y-42423475D01*
X87346589Y-42585990D01*
X87616842Y-42697932D01*
X87903740Y-42755000D01*
X88196260Y-42755000D01*
X88483158Y-42697932D01*
X88753411Y-42585990D01*
X88996632Y-42423475D01*
X89203475Y-42216632D01*
X89320000Y-42042240D01*
X89436525Y-42216632D01*
X89643368Y-42423475D01*
X89886589Y-42585990D01*
X90156842Y-42697932D01*
X90443740Y-42755000D01*
X90736260Y-42755000D01*
X91023158Y-42697932D01*
X91293411Y-42585990D01*
X91536632Y-42423475D01*
X91743475Y-42216632D01*
X91865195Y-42034466D01*
X91934822Y-42151355D01*
X92129731Y-42367588D01*
X92363080Y-42541641D01*
X92625901Y-42666825D01*
X92773110Y-42711476D01*
X93003000Y-42590155D01*
X93003000Y-41397000D01*
X93257000Y-41397000D01*
X93257000Y-42590155D01*
X93486890Y-42711476D01*
X93634099Y-42666825D01*
X93896920Y-42541641D01*
X94130269Y-42367588D01*
X94150292Y-42345374D01*
X95834231Y-42345374D01*
X96134411Y-42783828D01*
X96713356Y-43094296D01*
X97341746Y-43285852D01*
X97995431Y-43351134D01*
X98649293Y-43287634D01*
X99278203Y-43097792D01*
X99857992Y-42788904D01*
X99865589Y-42783828D01*
X100165769Y-42345374D01*
X98000000Y-40179605D01*
X95834231Y-42345374D01*
X94150292Y-42345374D01*
X94325178Y-42151355D01*
X94474157Y-41901252D01*
X94571481Y-41626891D01*
X94450814Y-41397000D01*
X93257000Y-41397000D01*
X93003000Y-41397000D01*
X92983000Y-41397000D01*
X92983000Y-41143000D01*
X93003000Y-41143000D01*
X93003000Y-41123000D01*
X93257000Y-41123000D01*
X93257000Y-41143000D01*
X94450814Y-41143000D01*
X94571481Y-40913109D01*
X94474157Y-40638748D01*
X94325178Y-40388645D01*
X94130269Y-40172412D01*
X93900594Y-40001100D01*
X93909078Y-39995431D01*
X94648866Y-39995431D01*
X94712366Y-40649293D01*
X94902208Y-41278203D01*
X95211096Y-41857992D01*
X95216172Y-41865589D01*
X95654626Y-42165769D01*
X97820395Y-40000000D01*
X95654626Y-37834231D01*
X95216172Y-38134411D01*
X94905704Y-38713356D01*
X94714148Y-39341746D01*
X94648866Y-39995431D01*
X93909078Y-39995431D01*
X94076632Y-39883475D01*
X94283475Y-39676632D01*
X94445990Y-39433411D01*
X94557932Y-39163158D01*
X94615000Y-38876260D01*
X94615000Y-38583740D01*
X94557932Y-38296842D01*
X94445990Y-38026589D01*
X94283475Y-37783368D01*
X94076632Y-37576525D01*
X93833411Y-37414010D01*
X93563158Y-37302068D01*
X93276260Y-37245000D01*
X92983740Y-37245000D01*
X92696842Y-37302068D01*
X92426589Y-37414010D01*
X92183368Y-37576525D01*
X91976525Y-37783368D01*
X91860000Y-37957760D01*
X91743475Y-37783368D01*
X91536632Y-37576525D01*
X91293411Y-37414010D01*
X91023158Y-37302068D01*
X90736260Y-37245000D01*
X90443740Y-37245000D01*
X90156842Y-37302068D01*
X89886589Y-37414010D01*
X89643368Y-37576525D01*
X89436525Y-37783368D01*
X89320000Y-37957760D01*
X89203475Y-37783368D01*
X88996632Y-37576525D01*
X88753411Y-37414010D01*
X88483158Y-37302068D01*
X88196260Y-37245000D01*
X87903740Y-37245000D01*
X87616842Y-37302068D01*
X87346589Y-37414010D01*
X87103368Y-37576525D01*
X86896525Y-37783368D01*
X86774805Y-37965534D01*
X86705178Y-37848645D01*
X86510269Y-37632412D01*
X86276920Y-37458359D01*
X86014099Y-37333175D01*
X85866890Y-37288524D01*
X85637000Y-37409845D01*
X85637000Y-38603000D01*
X85657000Y-38603000D01*
X85657000Y-38857000D01*
X85637000Y-38857000D01*
X85637000Y-38877000D01*
X85383000Y-38877000D01*
X85383000Y-38857000D01*
X85363000Y-38857000D01*
X85363000Y-38603000D01*
X85383000Y-38603000D01*
X85383000Y-37409845D01*
X85153110Y-37288524D01*
X85005901Y-37333175D01*
X84743080Y-37458359D01*
X84509731Y-37632412D01*
X84314822Y-37848645D01*
X84245195Y-37965534D01*
X84123475Y-37783368D01*
X83916632Y-37576525D01*
X83673411Y-37414010D01*
X83403158Y-37302068D01*
X83116260Y-37245000D01*
X82823740Y-37245000D01*
X82536842Y-37302068D01*
X82266589Y-37414010D01*
X82023368Y-37576525D01*
X81816525Y-37783368D01*
X81694805Y-37965534D01*
X81625178Y-37848645D01*
X81430269Y-37632412D01*
X81196920Y-37458359D01*
X80934099Y-37333175D01*
X80786890Y-37288524D01*
X80557000Y-37409845D01*
X80557000Y-38603000D01*
X80577000Y-38603000D01*
X80577000Y-38857000D01*
X80557000Y-38857000D01*
X80557000Y-38877000D01*
X80303000Y-38877000D01*
X80303000Y-38857000D01*
X80283000Y-38857000D01*
X80283000Y-38603000D01*
X80303000Y-38603000D01*
X80303000Y-37409845D01*
X80073110Y-37288524D01*
X79925901Y-37333175D01*
X79663080Y-37458359D01*
X79429731Y-37632412D01*
X79234822Y-37848645D01*
X79165195Y-37965534D01*
X79043475Y-37783368D01*
X78836632Y-37576525D01*
X78593411Y-37414010D01*
X78323158Y-37302068D01*
X78036260Y-37245000D01*
X77743740Y-37245000D01*
X77456842Y-37302068D01*
X77186589Y-37414010D01*
X76943368Y-37576525D01*
X76736525Y-37783368D01*
X76620000Y-37957760D01*
X76503475Y-37783368D01*
X76296632Y-37576525D01*
X76053411Y-37414010D01*
X75783158Y-37302068D01*
X75496260Y-37245000D01*
X75203740Y-37245000D01*
X74916842Y-37302068D01*
X74646589Y-37414010D01*
X74403368Y-37576525D01*
X74196525Y-37783368D01*
X74080000Y-37957760D01*
X73963475Y-37783368D01*
X73756632Y-37576525D01*
X73513411Y-37414010D01*
X73243158Y-37302068D01*
X72956260Y-37245000D01*
X72663740Y-37245000D01*
X72376842Y-37302068D01*
X72106589Y-37414010D01*
X71863368Y-37576525D01*
X71656525Y-37783368D01*
X71540000Y-37957760D01*
X71423475Y-37783368D01*
X71216632Y-37576525D01*
X70973411Y-37414010D01*
X70703158Y-37302068D01*
X70416260Y-37245000D01*
X70123740Y-37245000D01*
X69836842Y-37302068D01*
X69566589Y-37414010D01*
X69323368Y-37576525D01*
X69116525Y-37783368D01*
X68994805Y-37965534D01*
X68925178Y-37848645D01*
X68730269Y-37632412D01*
X68496920Y-37458359D01*
X68234099Y-37333175D01*
X68086890Y-37288524D01*
X67857000Y-37409845D01*
X67857000Y-38603000D01*
X67877000Y-38603000D01*
X67877000Y-38857000D01*
X67857000Y-38857000D01*
X67857000Y-38877000D01*
X67603000Y-38877000D01*
X67603000Y-38857000D01*
X67583000Y-38857000D01*
X67583000Y-38603000D01*
X67603000Y-38603000D01*
X67603000Y-37409845D01*
X67373110Y-37288524D01*
X67225901Y-37333175D01*
X66963080Y-37458359D01*
X66729731Y-37632412D01*
X66534822Y-37848645D01*
X66465195Y-37965534D01*
X66343475Y-37783368D01*
X66136632Y-37576525D01*
X65893411Y-37414010D01*
X65623158Y-37302068D01*
X65336260Y-37245000D01*
X65043740Y-37245000D01*
X64756842Y-37302068D01*
X64486589Y-37414010D01*
X64243368Y-37576525D01*
X64036525Y-37783368D01*
X63920000Y-37957760D01*
X63803475Y-37783368D01*
X63596632Y-37576525D01*
X63353411Y-37414010D01*
X63083158Y-37302068D01*
X62796260Y-37245000D01*
X62503740Y-37245000D01*
X62216842Y-37302068D01*
X61946589Y-37414010D01*
X61703368Y-37576525D01*
X61496525Y-37783368D01*
X61374805Y-37965534D01*
X61305178Y-37848645D01*
X61110269Y-37632412D01*
X60876920Y-37458359D01*
X60614099Y-37333175D01*
X60466890Y-37288524D01*
X60237000Y-37409845D01*
X60237000Y-38603000D01*
X60257000Y-38603000D01*
X60257000Y-38857000D01*
X60237000Y-38857000D01*
X60237000Y-38877000D01*
X59983000Y-38877000D01*
X59983000Y-38857000D01*
X59963000Y-38857000D01*
X59963000Y-38603000D01*
X59983000Y-38603000D01*
X59983000Y-37409845D01*
X59753110Y-37288524D01*
X59605901Y-37333175D01*
X59343080Y-37458359D01*
X59109731Y-37632412D01*
X58914822Y-37848645D01*
X58845195Y-37965534D01*
X58723475Y-37783368D01*
X58516632Y-37576525D01*
X58273411Y-37414010D01*
X58003158Y-37302068D01*
X57716260Y-37245000D01*
X57423740Y-37245000D01*
X57136842Y-37302068D01*
X56866589Y-37414010D01*
X56623368Y-37576525D01*
X56416525Y-37783368D01*
X56300000Y-37957760D01*
X56183475Y-37783368D01*
X55976632Y-37576525D01*
X55733411Y-37414010D01*
X55463158Y-37302068D01*
X55176260Y-37245000D01*
X54883740Y-37245000D01*
X54596842Y-37302068D01*
X54326589Y-37414010D01*
X54083368Y-37576525D01*
X53876525Y-37783368D01*
X53760000Y-37957760D01*
X53643475Y-37783368D01*
X53436632Y-37576525D01*
X53193411Y-37414010D01*
X52923158Y-37302068D01*
X52636260Y-37245000D01*
X52343740Y-37245000D01*
X52056842Y-37302068D01*
X51786589Y-37414010D01*
X51543368Y-37576525D01*
X51336525Y-37783368D01*
X51214805Y-37965534D01*
X51145178Y-37848645D01*
X50950269Y-37632412D01*
X50716920Y-37458359D01*
X50454099Y-37333175D01*
X50306890Y-37288524D01*
X50077000Y-37409845D01*
X50077000Y-38603000D01*
X50097000Y-38603000D01*
X50097000Y-38857000D01*
X50077000Y-38857000D01*
X50077000Y-38877000D01*
X49823000Y-38877000D01*
X49823000Y-38857000D01*
X49803000Y-38857000D01*
X49803000Y-38603000D01*
X49823000Y-38603000D01*
X49823000Y-37409845D01*
X49593110Y-37288524D01*
X49445901Y-37333175D01*
X49183080Y-37458359D01*
X48949731Y-37632412D01*
X48754822Y-37848645D01*
X48685195Y-37965534D01*
X48563475Y-37783368D01*
X48356632Y-37576525D01*
X48113411Y-37414010D01*
X47843158Y-37302068D01*
X47556260Y-37245000D01*
X47263740Y-37245000D01*
X46976842Y-37302068D01*
X46706589Y-37414010D01*
X46463368Y-37576525D01*
X46256525Y-37783368D01*
X46140000Y-37957760D01*
X46023475Y-37783368D01*
X45816632Y-37576525D01*
X45573411Y-37414010D01*
X45303158Y-37302068D01*
X45016260Y-37245000D01*
X44723740Y-37245000D01*
X44436842Y-37302068D01*
X44166589Y-37414010D01*
X43923368Y-37576525D01*
X43716525Y-37783368D01*
X43554010Y-38026589D01*
X43442068Y-38296842D01*
X43385000Y-38583740D01*
X43385000Y-38876260D01*
X43442068Y-39163158D01*
X43554010Y-39433411D01*
X43716525Y-39676632D01*
X43848380Y-39808487D01*
X43775820Y-39830498D01*
X43665506Y-39889463D01*
X43568815Y-39968815D01*
X43489463Y-40065506D01*
X43430498Y-40175820D01*
X43394188Y-40295518D01*
X43381928Y-40420000D01*
X43381928Y-42120000D01*
X43394188Y-42244482D01*
X43430498Y-42364180D01*
X43489463Y-42474494D01*
X43568815Y-42571185D01*
X43665506Y-42650537D01*
X43775820Y-42709502D01*
X43895518Y-42745812D01*
X44020000Y-42758072D01*
X45720000Y-42758072D01*
X45844482Y-42745812D01*
X45964180Y-42709502D01*
X46074494Y-42650537D01*
X46171185Y-42571185D01*
X46250537Y-42474494D01*
X46309502Y-42364180D01*
X46331513Y-42291620D01*
X46463368Y-42423475D01*
X46706589Y-42585990D01*
X46976842Y-42697932D01*
X47263740Y-42755000D01*
X47556260Y-42755000D01*
X47843158Y-42697932D01*
X48113411Y-42585990D01*
X48356632Y-42423475D01*
X48563475Y-42216632D01*
X48680000Y-42042240D01*
X48796525Y-42216632D01*
X49003368Y-42423475D01*
X49246589Y-42585990D01*
X49516842Y-42697932D01*
X49803740Y-42755000D01*
X50096260Y-42755000D01*
X50383158Y-42697932D01*
X50653411Y-42585990D01*
X50896632Y-42423475D01*
X51103475Y-42216632D01*
X51220000Y-42042240D01*
X51336525Y-42216632D01*
X51543368Y-42423475D01*
X51786589Y-42585990D01*
X52056842Y-42697932D01*
X52343740Y-42755000D01*
X52636260Y-42755000D01*
X52923158Y-42697932D01*
X53193411Y-42585990D01*
X53436632Y-42423475D01*
X53643475Y-42216632D01*
X53765195Y-42034466D01*
X53834822Y-42151355D01*
X54029731Y-42367588D01*
X54263080Y-42541641D01*
X54525901Y-42666825D01*
X54673110Y-42711476D01*
X54903000Y-42590155D01*
X54903000Y-41397000D01*
X54883000Y-41397000D01*
X54883000Y-41143000D01*
X54903000Y-41143000D01*
X54903000Y-41123000D01*
X55157000Y-41123000D01*
X55157000Y-41143000D01*
X55177000Y-41143000D01*
X55177000Y-41397000D01*
X55157000Y-41397000D01*
X55157000Y-42590155D01*
X55386890Y-42711476D01*
X55534099Y-42666825D01*
X55796920Y-42541641D01*
X56030269Y-42367588D01*
X56225178Y-42151355D01*
X56294805Y-42034466D01*
X56416525Y-42216632D01*
X56623368Y-42423475D01*
X56810000Y-42548179D01*
X56810000Y-43240000D01*
X40807095Y-43240000D01*
X41278203Y-43097792D01*
X41857992Y-42788904D01*
X41865589Y-42783828D01*
X42165769Y-42345374D01*
X40000000Y-40179605D01*
X37834231Y-42345374D01*
X38134411Y-42783828D01*
X38713356Y-43094296D01*
X39341746Y-43285852D01*
X39995431Y-43351134D01*
X40369717Y-43314785D01*
X40275724Y-43365026D01*
X40275722Y-43365027D01*
X40275723Y-43365027D01*
X40188996Y-43436201D01*
X40188992Y-43436205D01*
X40159999Y-43459999D01*
X40136205Y-43488992D01*
X37160000Y-46465199D01*
X37160000Y-41762084D01*
X37211096Y-41857992D01*
X37216172Y-41865589D01*
X37654626Y-42165769D01*
X39820395Y-40000000D01*
X40179605Y-40000000D01*
X42345374Y-42165769D01*
X42783828Y-41865589D01*
X43094296Y-41286644D01*
X43285852Y-40658254D01*
X43351134Y-40004569D01*
X43287634Y-39350707D01*
X43097792Y-38721797D01*
X42788904Y-38142008D01*
X42783828Y-38134411D01*
X42345374Y-37834231D01*
X40179605Y-40000000D01*
X39820395Y-40000000D01*
X39806253Y-39985858D01*
X39985858Y-39806253D01*
X40000000Y-39820395D01*
X42165769Y-37654626D01*
X41865589Y-37216172D01*
X41760842Y-37160000D01*
X96237916Y-37160000D01*
X96142008Y-37211096D01*
G37*
X96142008Y-37211096D02*
X96134411Y-37216172D01*
X95834231Y-37654626D01*
X98000000Y-39820395D01*
X98014143Y-39806253D01*
X98193748Y-39985858D01*
X98179605Y-40000000D01*
X100345374Y-42165769D01*
X100783828Y-41865589D01*
X100840000Y-41760842D01*
X100840001Y-87237918D01*
X100788904Y-87142008D01*
X100783828Y-87134411D01*
X100345374Y-86834231D01*
X98179605Y-89000000D01*
X98193748Y-89014143D01*
X98014143Y-89193748D01*
X98000000Y-89179605D01*
X95834231Y-91345374D01*
X96134411Y-91783828D01*
X96239158Y-91840000D01*
X88535224Y-91840000D01*
X88590256Y-91817205D01*
X88759774Y-91703937D01*
X88903937Y-91559774D01*
X89017205Y-91390256D01*
X89095226Y-91201898D01*
X89135000Y-91001939D01*
X89135000Y-90798061D01*
X89095226Y-90598102D01*
X89017205Y-90409744D01*
X88903937Y-90240226D01*
X88759774Y-90096063D01*
X88590256Y-89982795D01*
X88401898Y-89904774D01*
X88201939Y-89865000D01*
X87998061Y-89865000D01*
X87798102Y-89904774D01*
X87650000Y-89966120D01*
X87501898Y-89904774D01*
X87301939Y-89865000D01*
X87098061Y-89865000D01*
X86898102Y-89904774D01*
X86750000Y-89966120D01*
X86601898Y-89904774D01*
X86401939Y-89865000D01*
X86198061Y-89865000D01*
X85998102Y-89904774D01*
X85809744Y-89982795D01*
X85640226Y-90096063D01*
X85496063Y-90240226D01*
X85382795Y-90409744D01*
X85304774Y-90598102D01*
X85265000Y-90798061D01*
X85265000Y-91001939D01*
X85304774Y-91201898D01*
X85382795Y-91390256D01*
X85496063Y-91559774D01*
X85640226Y-91703937D01*
X85809744Y-91817205D01*
X85864776Y-91840000D01*
X84032279Y-91840000D01*
X83934576Y-91830420D01*
X83871643Y-91811420D01*
X83813594Y-91780554D01*
X83762657Y-91739011D01*
X83720752Y-91688356D01*
X83689485Y-91630529D01*
X83670044Y-91567728D01*
X83660000Y-91472165D01*
X83660000Y-88995431D01*
X94648866Y-88995431D01*
X94712366Y-89649293D01*
X94902208Y-90278203D01*
X95211096Y-90857992D01*
X95216172Y-90865589D01*
X95654626Y-91165769D01*
X97820395Y-89000000D01*
X95654626Y-86834231D01*
X95216172Y-87134411D01*
X94905704Y-87713356D01*
X94714148Y-88341746D01*
X94648866Y-88995431D01*
X83660000Y-88995431D01*
X83660000Y-86654626D01*
X95834231Y-86654626D01*
X98000000Y-88820395D01*
X100165769Y-86654626D01*
X99865589Y-86216172D01*
X99286644Y-85905704D01*
X98658254Y-85714148D01*
X98004569Y-85648866D01*
X97350707Y-85712366D01*
X96721797Y-85902208D01*
X96142008Y-86211096D01*
X96134411Y-86216172D01*
X95834231Y-86654626D01*
X83660000Y-86654626D01*
X83660000Y-86134541D01*
X89345064Y-86134541D01*
X89355575Y-86327763D01*
X89525603Y-86398562D01*
X89706176Y-86434828D01*
X89890355Y-86435171D01*
X90071061Y-86399574D01*
X90241351Y-86329408D01*
X90244425Y-86327763D01*
X90254936Y-86134541D01*
X90545064Y-86134541D01*
X90555575Y-86327763D01*
X90725603Y-86398562D01*
X90906176Y-86434828D01*
X91090355Y-86435171D01*
X91271061Y-86399574D01*
X91441351Y-86329408D01*
X91444425Y-86327763D01*
X91454936Y-86134541D01*
X91000000Y-85679605D01*
X90545064Y-86134541D01*
X90254936Y-86134541D01*
X89800000Y-85679605D01*
X89345064Y-86134541D01*
X83660000Y-86134541D01*
X83660000Y-85590355D01*
X88864829Y-85590355D01*
X88900426Y-85771061D01*
X88970592Y-85941351D01*
X88972237Y-85944425D01*
X89165459Y-85954936D01*
X89620395Y-85500000D01*
X89165459Y-85045064D01*
X88972237Y-85055575D01*
X88901438Y-85225603D01*
X88865172Y-85406176D01*
X88864829Y-85590355D01*
X83660000Y-85590355D01*
X83660000Y-84390355D01*
X88864829Y-84390355D01*
X88900426Y-84571061D01*
X88970592Y-84741351D01*
X88972237Y-84744425D01*
X89165459Y-84754936D01*
X89620395Y-84300000D01*
X89165459Y-83845064D01*
X88972237Y-83855575D01*
X88901438Y-84025603D01*
X88865172Y-84206176D01*
X88864829Y-84390355D01*
X83660000Y-84390355D01*
X83660000Y-81648061D01*
X84965000Y-81648061D01*
X84965000Y-81851939D01*
X85004774Y-82051898D01*
X85082795Y-82240256D01*
X85196063Y-82409774D01*
X85340226Y-82553937D01*
X85509744Y-82667205D01*
X85698102Y-82745226D01*
X85898061Y-82785000D01*
X86101939Y-82785000D01*
X86301898Y-82745226D01*
X86490256Y-82667205D01*
X86659774Y-82553937D01*
X86803937Y-82409774D01*
X86917205Y-82240256D01*
X86995226Y-82051898D01*
X87007467Y-81990355D01*
X88864829Y-81990355D01*
X88900426Y-82171061D01*
X88970592Y-82341351D01*
X88972237Y-82344425D01*
X89119732Y-82352448D01*
X89046286Y-82425894D01*
X89070392Y-82450000D01*
X89046286Y-82474106D01*
X89119732Y-82547552D01*
X88972237Y-82555575D01*
X88901438Y-82725603D01*
X88865172Y-82906176D01*
X88864829Y-83090355D01*
X88900426Y-83271061D01*
X88970592Y-83441351D01*
X88972237Y-83444425D01*
X89165459Y-83454936D01*
X89620395Y-83000000D01*
X89606253Y-82985858D01*
X89757187Y-82834923D01*
X89842973Y-82835083D01*
X89993748Y-82985858D01*
X89979605Y-83000000D01*
X90064839Y-83085234D01*
X90064829Y-83090355D01*
X90100426Y-83271061D01*
X90170592Y-83441351D01*
X90170690Y-83441534D01*
X90074397Y-83401438D01*
X90008623Y-83388228D01*
X89800000Y-83179605D01*
X89591503Y-83388102D01*
X89528939Y-83400426D01*
X89358649Y-83470592D01*
X89355575Y-83472237D01*
X89346843Y-83632762D01*
X89345064Y-83634541D01*
X89345905Y-83650000D01*
X89345064Y-83665459D01*
X89346843Y-83667238D01*
X89355575Y-83827763D01*
X89525603Y-83898562D01*
X89591377Y-83911772D01*
X89800000Y-84120395D01*
X90008497Y-83911898D01*
X90071061Y-83899574D01*
X90171076Y-83858364D01*
X90101438Y-84025603D01*
X90065172Y-84206176D01*
X90065157Y-84214448D01*
X89979605Y-84300000D01*
X90064839Y-84385234D01*
X90064829Y-84390355D01*
X90100426Y-84571061D01*
X90120925Y-84620812D01*
X90074397Y-84601438D01*
X89893824Y-84565172D01*
X89885552Y-84565157D01*
X89800000Y-84479605D01*
X89714766Y-84564839D01*
X89709645Y-84564829D01*
X89528939Y-84600426D01*
X89358649Y-84670592D01*
X89355575Y-84672237D01*
X89345064Y-84865459D01*
X89379605Y-84900000D01*
X89345064Y-84934541D01*
X89355575Y-85127763D01*
X89525603Y-85198562D01*
X89706176Y-85234828D01*
X89714448Y-85234843D01*
X89800000Y-85320395D01*
X89885234Y-85235161D01*
X89890355Y-85235171D01*
X90071061Y-85199574D01*
X90120812Y-85179075D01*
X90101438Y-85225603D01*
X90065172Y-85406176D01*
X90065157Y-85414448D01*
X89979605Y-85500000D01*
X90064839Y-85585234D01*
X90064829Y-85590355D01*
X90100426Y-85771061D01*
X90170592Y-85941351D01*
X90172237Y-85944425D01*
X90365459Y-85954936D01*
X90400000Y-85920395D01*
X90434541Y-85954936D01*
X90627763Y-85944425D01*
X90698562Y-85774397D01*
X90734828Y-85593824D01*
X90734843Y-85585552D01*
X90820395Y-85500000D01*
X91179605Y-85500000D01*
X91634541Y-85954936D01*
X91827763Y-85944425D01*
X91898562Y-85774397D01*
X91934828Y-85593824D01*
X91935171Y-85409645D01*
X91899574Y-85228939D01*
X91829408Y-85058649D01*
X91827763Y-85055575D01*
X91634541Y-85045064D01*
X91179605Y-85500000D01*
X90820395Y-85500000D01*
X90735161Y-85414766D01*
X90735171Y-85409645D01*
X90699574Y-85228939D01*
X90679075Y-85179188D01*
X90725603Y-85198562D01*
X90906176Y-85234828D01*
X90914448Y-85234843D01*
X91000000Y-85320395D01*
X91085234Y-85235161D01*
X91090355Y-85235171D01*
X91271061Y-85199574D01*
X91441351Y-85129408D01*
X91444425Y-85127763D01*
X91454936Y-84934541D01*
X91420395Y-84900000D01*
X91454936Y-84865459D01*
X91444425Y-84672237D01*
X91274397Y-84601438D01*
X91093824Y-84565172D01*
X91085552Y-84565157D01*
X91000000Y-84479605D01*
X90914766Y-84564839D01*
X90909645Y-84564829D01*
X90728939Y-84600426D01*
X90679188Y-84620925D01*
X90698562Y-84574397D01*
X90734828Y-84393824D01*
X90734843Y-84385552D01*
X90820395Y-84300000D01*
X91179605Y-84300000D01*
X91634541Y-84754936D01*
X91827763Y-84744425D01*
X91898562Y-84574397D01*
X91934828Y-84393824D01*
X91935171Y-84209645D01*
X91899574Y-84028939D01*
X91829408Y-83858649D01*
X91827763Y-83855575D01*
X91634541Y-83845064D01*
X91179605Y-84300000D01*
X90820395Y-84300000D01*
X90735161Y-84214766D01*
X90735171Y-84209645D01*
X90699574Y-84028939D01*
X90629408Y-83858649D01*
X90629310Y-83858466D01*
X90725603Y-83898562D01*
X90791377Y-83911772D01*
X91000000Y-84120395D01*
X91208497Y-83911898D01*
X91271061Y-83899574D01*
X91441351Y-83829408D01*
X91444425Y-83827763D01*
X91453157Y-83667238D01*
X91454936Y-83665459D01*
X91454095Y-83650000D01*
X91454936Y-83634541D01*
X91453157Y-83632762D01*
X91444425Y-83472237D01*
X91274397Y-83401438D01*
X91208623Y-83388228D01*
X91000000Y-83179605D01*
X90791503Y-83388102D01*
X90728939Y-83400426D01*
X90628924Y-83441636D01*
X90698562Y-83274397D01*
X90734828Y-83093824D01*
X90734843Y-83085552D01*
X90820395Y-83000000D01*
X90806253Y-82985858D01*
X90957187Y-82834923D01*
X91042973Y-82835083D01*
X91193748Y-82985858D01*
X91179605Y-83000000D01*
X91634541Y-83454936D01*
X91827763Y-83444425D01*
X91898562Y-83274397D01*
X91934828Y-83093824D01*
X91935171Y-82909645D01*
X91899574Y-82728939D01*
X91829408Y-82558649D01*
X91827763Y-82555575D01*
X91680268Y-82547552D01*
X91753714Y-82474106D01*
X91729608Y-82450000D01*
X91753714Y-82425894D01*
X91680268Y-82352448D01*
X91827763Y-82344425D01*
X91898562Y-82174397D01*
X91934828Y-81993824D01*
X91935171Y-81809645D01*
X91899574Y-81628939D01*
X91829408Y-81458649D01*
X91827763Y-81455575D01*
X91634541Y-81445064D01*
X91179605Y-81900000D01*
X91193748Y-81914143D01*
X91042813Y-82065077D01*
X90957027Y-82064917D01*
X90806253Y-81914143D01*
X90820395Y-81900000D01*
X90735161Y-81814766D01*
X90735171Y-81809645D01*
X90699574Y-81628939D01*
X90629408Y-81458649D01*
X90627763Y-81455575D01*
X90434541Y-81445064D01*
X90400000Y-81479605D01*
X90365459Y-81445064D01*
X90172237Y-81455575D01*
X90101438Y-81625603D01*
X90065172Y-81806176D01*
X90065157Y-81814448D01*
X89979605Y-81900000D01*
X89993748Y-81914143D01*
X89842813Y-82065077D01*
X89757027Y-82064917D01*
X89606253Y-81914143D01*
X89620395Y-81900000D01*
X89165459Y-81445064D01*
X88972237Y-81455575D01*
X88901438Y-81625603D01*
X88865172Y-81806176D01*
X88864829Y-81990355D01*
X87007467Y-81990355D01*
X87035000Y-81851939D01*
X87035000Y-81648061D01*
X86995226Y-81448102D01*
X86919573Y-81265459D01*
X89345064Y-81265459D01*
X89800000Y-81720395D01*
X90254936Y-81265459D01*
X90545064Y-81265459D01*
X91000000Y-81720395D01*
X91454936Y-81265459D01*
X91444425Y-81072237D01*
X91274397Y-81001438D01*
X91093824Y-80965172D01*
X90909645Y-80964829D01*
X90728939Y-81000426D01*
X90558649Y-81070592D01*
X90555575Y-81072237D01*
X90545064Y-81265459D01*
X90254936Y-81265459D01*
X90244425Y-81072237D01*
X90074397Y-81001438D01*
X89893824Y-80965172D01*
X89709645Y-80964829D01*
X89528939Y-81000426D01*
X89358649Y-81070592D01*
X89355575Y-81072237D01*
X89345064Y-81265459D01*
X86919573Y-81265459D01*
X86917205Y-81259744D01*
X86803937Y-81090226D01*
X86659774Y-80946063D01*
X86490256Y-80832795D01*
X86301898Y-80754774D01*
X86101939Y-80715000D01*
X85898061Y-80715000D01*
X85698102Y-80754774D01*
X85509744Y-80832795D01*
X85340226Y-80946063D01*
X85196063Y-81090226D01*
X85082795Y-81259744D01*
X85004774Y-81448102D01*
X84965000Y-81648061D01*
X83660000Y-81648061D01*
X83660000Y-73148061D01*
X85215000Y-73148061D01*
X85215000Y-73351939D01*
X85254774Y-73551898D01*
X85332795Y-73740256D01*
X85446063Y-73909774D01*
X85590226Y-74053937D01*
X85759744Y-74167205D01*
X85948102Y-74245226D01*
X86148061Y-74285000D01*
X86351939Y-74285000D01*
X86551898Y-74245226D01*
X86740256Y-74167205D01*
X86750000Y-74160694D01*
X86759744Y-74167205D01*
X86948102Y-74245226D01*
X87148061Y-74285000D01*
X87351939Y-74285000D01*
X87551898Y-74245226D01*
X87740256Y-74167205D01*
X87750000Y-74160694D01*
X87759744Y-74167205D01*
X87948102Y-74245226D01*
X88148061Y-74285000D01*
X88351939Y-74285000D01*
X88551898Y-74245226D01*
X88740256Y-74167205D01*
X88750000Y-74160694D01*
X88759744Y-74167205D01*
X88948102Y-74245226D01*
X89148061Y-74285000D01*
X89351939Y-74285000D01*
X89551898Y-74245226D01*
X89740256Y-74167205D01*
X89909774Y-74053937D01*
X90053937Y-73909774D01*
X90167205Y-73740256D01*
X90245226Y-73551898D01*
X90285000Y-73351939D01*
X90285000Y-73148061D01*
X90245226Y-72948102D01*
X90167205Y-72759744D01*
X90053937Y-72590226D01*
X89909774Y-72446063D01*
X89740256Y-72332795D01*
X89551898Y-72254774D01*
X89351939Y-72215000D01*
X89148061Y-72215000D01*
X88948102Y-72254774D01*
X88759744Y-72332795D01*
X88750000Y-72339306D01*
X88740256Y-72332795D01*
X88551898Y-72254774D01*
X88351939Y-72215000D01*
X88148061Y-72215000D01*
X87948102Y-72254774D01*
X87759744Y-72332795D01*
X87750000Y-72339306D01*
X87740256Y-72332795D01*
X87551898Y-72254774D01*
X87351939Y-72215000D01*
X87148061Y-72215000D01*
X86948102Y-72254774D01*
X86759744Y-72332795D01*
X86750000Y-72339306D01*
X86740256Y-72332795D01*
X86551898Y-72254774D01*
X86351939Y-72215000D01*
X86148061Y-72215000D01*
X85948102Y-72254774D01*
X85759744Y-72332795D01*
X85590226Y-72446063D01*
X85446063Y-72590226D01*
X85332795Y-72759744D01*
X85254774Y-72948102D01*
X85215000Y-73148061D01*
X83660000Y-73148061D01*
X83660000Y-71467581D01*
X83657217Y-71439326D01*
X83657260Y-71433199D01*
X83656360Y-71424028D01*
X83635959Y-71229931D01*
X83623934Y-71171348D01*
X83612723Y-71112577D01*
X83610059Y-71103755D01*
X83552347Y-70917317D01*
X83529162Y-70862162D01*
X83506758Y-70806709D01*
X83502432Y-70798573D01*
X83409607Y-70626896D01*
X83376139Y-70577278D01*
X83343400Y-70527247D01*
X83337576Y-70520106D01*
X83213172Y-70369728D01*
X83170737Y-70327589D01*
X83128874Y-70284839D01*
X83121773Y-70278966D01*
X82970531Y-70155616D01*
X82920738Y-70122534D01*
X82871349Y-70088716D01*
X82863243Y-70084333D01*
X82690921Y-69992708D01*
X82635606Y-69969909D01*
X82580634Y-69946348D01*
X82571831Y-69943623D01*
X82384995Y-69887214D01*
X82326307Y-69875594D01*
X82267804Y-69863158D01*
X82258639Y-69862195D01*
X82064405Y-69843150D01*
X82035595Y-69843150D01*
X82006946Y-69840036D01*
X81997731Y-69840004D01*
X81990750Y-69840028D01*
X81962053Y-69842942D01*
X81933199Y-69842740D01*
X81924028Y-69843640D01*
X81729931Y-69864041D01*
X81671348Y-69876066D01*
X81612577Y-69887277D01*
X81603755Y-69889941D01*
X81417317Y-69947653D01*
X81362162Y-69970838D01*
X81306709Y-69993242D01*
X81298573Y-69997568D01*
X81126896Y-70090393D01*
X81077278Y-70123861D01*
X81027247Y-70156600D01*
X81020106Y-70162424D01*
X80869728Y-70286828D01*
X80827589Y-70329263D01*
X80784839Y-70371126D01*
X80778966Y-70378227D01*
X80655616Y-70529469D01*
X80622534Y-70579262D01*
X80588716Y-70628651D01*
X80584333Y-70636757D01*
X80492708Y-70809079D01*
X80469909Y-70864394D01*
X80446348Y-70919366D01*
X80443623Y-70928169D01*
X80387214Y-71115005D01*
X80375594Y-71173693D01*
X80363158Y-71232196D01*
X80362195Y-71241361D01*
X80343150Y-71435595D01*
X80343150Y-71435608D01*
X80340001Y-71467581D01*
X80340000Y-91467721D01*
X80330420Y-91565424D01*
X80311420Y-91628357D01*
X80280554Y-91686406D01*
X80239011Y-91737343D01*
X80188356Y-91779248D01*
X80130529Y-91810515D01*
X80067728Y-91829956D01*
X79972165Y-91840000D01*
X41762084Y-91840000D01*
X41857992Y-91788904D01*
X41865589Y-91783828D01*
X42165769Y-91345374D01*
X40000000Y-89179605D01*
X39985858Y-89193748D01*
X39806253Y-89014143D01*
X39820395Y-89000000D01*
X37654626Y-86834231D01*
X37216172Y-87134411D01*
X37160000Y-87239158D01*
X37160000Y-81634801D01*
X41597721Y-86072524D01*
X41286644Y-85905704D01*
X40658254Y-85714148D01*
X40004569Y-85648866D01*
X39350707Y-85712366D01*
X38721797Y-85902208D01*
X38142008Y-86211096D01*
X38134411Y-86216172D01*
X37834231Y-86654626D01*
X40000000Y-88820395D01*
X40014143Y-88806253D01*
X40193748Y-88985858D01*
X40179605Y-89000000D01*
X42345374Y-91165769D01*
X42783828Y-90865589D01*
X43094296Y-90286644D01*
X43285852Y-89658254D01*
X43303794Y-89478595D01*
X45136201Y-91311003D01*
X45159999Y-91340001D01*
X45275724Y-91434974D01*
X45407753Y-91505546D01*
X45551014Y-91549003D01*
X45662667Y-91560000D01*
X45662677Y-91560000D01*
X45700000Y-91563676D01*
X45737323Y-91560000D01*
X70462678Y-91560000D01*
X70500000Y-91563676D01*
X70537322Y-91560000D01*
X70537333Y-91560000D01*
X70648986Y-91549003D01*
X70792247Y-91505546D01*
X70924276Y-91434974D01*
X71040001Y-91340001D01*
X71063804Y-91310997D01*
X72211003Y-90163799D01*
X72240001Y-90140001D01*
X72334974Y-90024276D01*
X72405546Y-89892247D01*
X72449003Y-89748986D01*
X72460000Y-89637333D01*
X72460000Y-89637324D01*
X72463676Y-89600001D01*
X72460000Y-89562678D01*
X72460000Y-88661662D01*
X72552008Y-88710841D01*
X72747106Y-88770024D01*
X72950000Y-88790007D01*
X73152895Y-88770024D01*
X73347993Y-88710841D01*
X73527797Y-88614734D01*
X73575000Y-88575995D01*
X73622204Y-88614734D01*
X73802008Y-88710841D01*
X73997106Y-88770024D01*
X74200000Y-88790007D01*
X74402895Y-88770024D01*
X74597993Y-88710841D01*
X74777797Y-88614734D01*
X74825000Y-88575995D01*
X74872204Y-88614734D01*
X75052008Y-88710841D01*
X75247106Y-88770024D01*
X75450000Y-88790007D01*
X75652895Y-88770024D01*
X75847993Y-88710841D01*
X76027797Y-88614734D01*
X76185396Y-88485396D01*
X76314734Y-88327797D01*
X76410841Y-88147992D01*
X76470024Y-87952894D01*
X76485000Y-87800837D01*
X76485000Y-87199162D01*
X76470024Y-87047105D01*
X76410841Y-86852007D01*
X76314734Y-86672203D01*
X76185396Y-86514604D01*
X76027797Y-86385266D01*
X75847992Y-86289159D01*
X75652894Y-86229976D01*
X75450000Y-86209993D01*
X75247105Y-86229976D01*
X75052007Y-86289159D01*
X74872203Y-86385266D01*
X74825000Y-86424004D01*
X74777797Y-86385266D01*
X74597992Y-86289159D01*
X74402894Y-86229976D01*
X74200000Y-86209993D01*
X73997105Y-86229976D01*
X73802007Y-86289159D01*
X73622203Y-86385266D01*
X73575000Y-86424004D01*
X73527797Y-86385266D01*
X73347992Y-86289159D01*
X73152894Y-86229976D01*
X72950000Y-86209993D01*
X72747105Y-86229976D01*
X72552007Y-86289159D01*
X72372203Y-86385266D01*
X72325000Y-86424004D01*
X72277797Y-86385266D01*
X72097992Y-86289159D01*
X71902894Y-86229976D01*
X71700000Y-86209993D01*
X71497105Y-86229976D01*
X71302007Y-86289159D01*
X71122203Y-86385266D01*
X71075000Y-86424004D01*
X71027797Y-86385266D01*
X70847992Y-86289159D01*
X70652894Y-86229976D01*
X70450000Y-86209993D01*
X70247105Y-86229976D01*
X70052007Y-86289159D01*
X69872203Y-86385266D01*
X69825000Y-86424004D01*
X69777797Y-86385266D01*
X69597992Y-86289159D01*
X69402894Y-86229976D01*
X69200000Y-86209993D01*
X68997105Y-86229976D01*
X68802007Y-86289159D01*
X68622203Y-86385266D01*
X68575000Y-86424004D01*
X68527797Y-86385266D01*
X68347992Y-86289159D01*
X68152894Y-86229976D01*
X67950000Y-86209993D01*
X67747105Y-86229976D01*
X67552007Y-86289159D01*
X67372203Y-86385266D01*
X67325000Y-86424004D01*
X67277797Y-86385266D01*
X67097992Y-86289159D01*
X66902894Y-86229976D01*
X66700000Y-86209993D01*
X66497105Y-86229976D01*
X66302007Y-86289159D01*
X66122203Y-86385266D01*
X66075000Y-86424004D01*
X66027797Y-86385266D01*
X65847992Y-86289159D01*
X65652894Y-86229976D01*
X65450000Y-86209993D01*
X65247105Y-86229976D01*
X65052007Y-86289159D01*
X64872203Y-86385266D01*
X64825000Y-86424004D01*
X64777797Y-86385266D01*
X64597992Y-86289159D01*
X64402894Y-86229976D01*
X64200000Y-86209993D01*
X63997105Y-86229976D01*
X63802007Y-86289159D01*
X63622203Y-86385266D01*
X63575000Y-86424004D01*
X63527797Y-86385266D01*
X63347992Y-86289159D01*
X63152894Y-86229976D01*
X62950000Y-86209993D01*
X62747105Y-86229976D01*
X62552007Y-86289159D01*
X62372203Y-86385266D01*
X62325000Y-86424004D01*
X62277797Y-86385266D01*
X62097992Y-86289159D01*
X61902894Y-86229976D01*
X61700000Y-86209993D01*
X61497105Y-86229976D01*
X61302007Y-86289159D01*
X61122203Y-86385266D01*
X61082062Y-86418209D01*
X60998160Y-86354745D01*
X60812972Y-86265006D01*
X60736123Y-86255334D01*
X60577000Y-86383002D01*
X60577000Y-87373000D01*
X60597000Y-87373000D01*
X60597000Y-87627000D01*
X60577000Y-87627000D01*
X60577000Y-88616998D01*
X60736123Y-88744666D01*
X60812972Y-88734994D01*
X60998160Y-88645255D01*
X61082063Y-88581791D01*
X61122204Y-88614734D01*
X61302008Y-88710841D01*
X61497106Y-88770024D01*
X61700000Y-88790007D01*
X61902895Y-88770024D01*
X62097993Y-88710841D01*
X62277797Y-88614734D01*
X62325000Y-88575995D01*
X62372204Y-88614734D01*
X62552008Y-88710841D01*
X62747106Y-88770024D01*
X62950000Y-88790007D01*
X63152895Y-88770024D01*
X63347993Y-88710841D01*
X63527797Y-88614734D01*
X63575000Y-88575995D01*
X63622204Y-88614734D01*
X63802008Y-88710841D01*
X63997106Y-88770024D01*
X64200000Y-88790007D01*
X64402895Y-88770024D01*
X64597993Y-88710841D01*
X64777797Y-88614734D01*
X64825000Y-88575995D01*
X64872204Y-88614734D01*
X65052008Y-88710841D01*
X65247106Y-88770024D01*
X65450000Y-88790007D01*
X65652895Y-88770024D01*
X65847993Y-88710841D01*
X66027797Y-88614734D01*
X66075000Y-88575995D01*
X66122204Y-88614734D01*
X66302008Y-88710841D01*
X66497106Y-88770024D01*
X66700000Y-88790007D01*
X66902895Y-88770024D01*
X67097993Y-88710841D01*
X67277797Y-88614734D01*
X67325000Y-88575995D01*
X67372204Y-88614734D01*
X67552008Y-88710841D01*
X67747106Y-88770024D01*
X67950000Y-88790007D01*
X68044499Y-88780700D01*
X67935199Y-88890000D01*
X46764802Y-88890000D01*
X45510000Y-87635199D01*
X45510000Y-87050000D01*
X46311928Y-87050000D01*
X46311928Y-87950000D01*
X46328031Y-88113500D01*
X46375722Y-88270716D01*
X46453169Y-88415608D01*
X46557394Y-88542606D01*
X46684392Y-88646831D01*
X46829284Y-88724278D01*
X46986500Y-88771969D01*
X47150000Y-88788072D01*
X47550000Y-88788072D01*
X47713500Y-88771969D01*
X47870716Y-88724278D01*
X48015608Y-88646831D01*
X48033985Y-88631749D01*
X48051840Y-88645255D01*
X48237028Y-88734994D01*
X48313877Y-88744666D01*
X48473000Y-88616998D01*
X48473000Y-87627000D01*
X48453000Y-87627000D01*
X48453000Y-87373000D01*
X48473000Y-87373000D01*
X48473000Y-86383002D01*
X48727000Y-86383002D01*
X48727000Y-87373000D01*
X48747000Y-87373000D01*
X48747000Y-87627000D01*
X48727000Y-87627000D01*
X48727000Y-88616998D01*
X48886123Y-88744666D01*
X48962972Y-88734994D01*
X49148160Y-88645255D01*
X49232063Y-88581791D01*
X49272204Y-88614734D01*
X49452008Y-88710841D01*
X49647106Y-88770024D01*
X49850000Y-88790007D01*
X50052895Y-88770024D01*
X50247993Y-88710841D01*
X50427797Y-88614734D01*
X50475000Y-88575995D01*
X50522204Y-88614734D01*
X50702008Y-88710841D01*
X50897106Y-88770024D01*
X51100000Y-88790007D01*
X51302895Y-88770024D01*
X51497993Y-88710841D01*
X51677797Y-88614734D01*
X51725000Y-88575995D01*
X51772204Y-88614734D01*
X51952008Y-88710841D01*
X52147106Y-88770024D01*
X52350000Y-88790007D01*
X52552895Y-88770024D01*
X52747993Y-88710841D01*
X52927797Y-88614734D01*
X52975000Y-88575995D01*
X53022204Y-88614734D01*
X53202008Y-88710841D01*
X53397106Y-88770024D01*
X53600000Y-88790007D01*
X53802895Y-88770024D01*
X53997993Y-88710841D01*
X54177797Y-88614734D01*
X54225000Y-88575995D01*
X54272204Y-88614734D01*
X54452008Y-88710841D01*
X54647106Y-88770024D01*
X54850000Y-88790007D01*
X55052895Y-88770024D01*
X55247993Y-88710841D01*
X55427797Y-88614734D01*
X55585396Y-88485396D01*
X55714734Y-88327797D01*
X55810841Y-88147992D01*
X55870024Y-87952894D01*
X55885000Y-87800837D01*
X55885000Y-87199162D01*
X55870310Y-87050000D01*
X58161928Y-87050000D01*
X58161928Y-87950000D01*
X58178031Y-88113500D01*
X58225722Y-88270716D01*
X58303169Y-88415608D01*
X58407394Y-88542606D01*
X58534392Y-88646831D01*
X58679284Y-88724278D01*
X58836500Y-88771969D01*
X59000000Y-88788072D01*
X59400000Y-88788072D01*
X59563500Y-88771969D01*
X59720716Y-88724278D01*
X59865608Y-88646831D01*
X59883985Y-88631749D01*
X59901840Y-88645255D01*
X60087028Y-88734994D01*
X60163877Y-88744666D01*
X60323000Y-88616998D01*
X60323000Y-87627000D01*
X60303000Y-87627000D01*
X60303000Y-87373000D01*
X60323000Y-87373000D01*
X60323000Y-86383002D01*
X60163877Y-86255334D01*
X60087028Y-86265006D01*
X59901840Y-86354745D01*
X59883985Y-86368251D01*
X59865608Y-86353169D01*
X59720716Y-86275722D01*
X59563500Y-86228031D01*
X59400000Y-86211928D01*
X59000000Y-86211928D01*
X58836500Y-86228031D01*
X58679284Y-86275722D01*
X58534392Y-86353169D01*
X58407394Y-86457394D01*
X58303169Y-86584392D01*
X58225722Y-86729284D01*
X58178031Y-86886500D01*
X58161928Y-87050000D01*
X55870310Y-87050000D01*
X55870024Y-87047105D01*
X55810841Y-86852007D01*
X55714734Y-86672203D01*
X55585396Y-86514604D01*
X55427797Y-86385266D01*
X55247992Y-86289159D01*
X55052894Y-86229976D01*
X54850000Y-86209993D01*
X54647105Y-86229976D01*
X54452007Y-86289159D01*
X54272203Y-86385266D01*
X54225000Y-86424004D01*
X54177797Y-86385266D01*
X53997992Y-86289159D01*
X53802894Y-86229976D01*
X53600000Y-86209993D01*
X53397105Y-86229976D01*
X53202007Y-86289159D01*
X53022203Y-86385266D01*
X52975000Y-86424004D01*
X52927797Y-86385266D01*
X52747992Y-86289159D01*
X52552894Y-86229976D01*
X52350000Y-86209993D01*
X52147105Y-86229976D01*
X51952007Y-86289159D01*
X51772203Y-86385266D01*
X51725000Y-86424004D01*
X51677797Y-86385266D01*
X51497992Y-86289159D01*
X51302894Y-86229976D01*
X51100000Y-86209993D01*
X50897105Y-86229976D01*
X50702007Y-86289159D01*
X50522203Y-86385266D01*
X50475000Y-86424004D01*
X50427797Y-86385266D01*
X50247992Y-86289159D01*
X50052894Y-86229976D01*
X49850000Y-86209993D01*
X49647105Y-86229976D01*
X49452007Y-86289159D01*
X49272203Y-86385266D01*
X49232062Y-86418209D01*
X49148160Y-86354745D01*
X48962972Y-86265006D01*
X48886123Y-86255334D01*
X48727000Y-86383002D01*
X48473000Y-86383002D01*
X48313877Y-86255334D01*
X48237028Y-86265006D01*
X48051840Y-86354745D01*
X48033985Y-86368251D01*
X48015608Y-86353169D01*
X47870716Y-86275722D01*
X47713500Y-86228031D01*
X47550000Y-86211928D01*
X47150000Y-86211928D01*
X46986500Y-86228031D01*
X46829284Y-86275722D01*
X46684392Y-86353169D01*
X46557394Y-86457394D01*
X46453169Y-86584392D01*
X46375722Y-86729284D01*
X46328031Y-86886500D01*
X46311928Y-87050000D01*
X45510000Y-87050000D01*
X45510000Y-85937323D01*
X45513676Y-85900000D01*
X45510000Y-85862677D01*
X45510000Y-85862667D01*
X45499003Y-85751014D01*
X45455546Y-85607753D01*
X45384974Y-85475724D01*
X45290001Y-85359999D01*
X45261003Y-85336201D01*
X42624802Y-82700000D01*
X56359994Y-82700000D01*
X56365000Y-82750828D01*
X56365000Y-82801939D01*
X56374971Y-82852067D01*
X56379977Y-82902895D01*
X56394803Y-82951768D01*
X56404774Y-83001898D01*
X56424335Y-83049122D01*
X56439160Y-83097993D01*
X56463236Y-83143036D01*
X56482795Y-83190256D01*
X56511187Y-83232748D01*
X56535266Y-83277797D01*
X56567671Y-83317283D01*
X56596063Y-83359774D01*
X56740226Y-83503937D01*
X56740229Y-83503939D01*
X59032197Y-85795908D01*
X59064604Y-85835396D01*
X59104092Y-85867803D01*
X59222202Y-85964734D01*
X59402006Y-86060841D01*
X59447415Y-86074615D01*
X59597105Y-86120024D01*
X59749162Y-86135000D01*
X59749165Y-86135000D01*
X59800000Y-86140007D01*
X59850835Y-86135000D01*
X72449172Y-86135000D01*
X72500000Y-86140006D01*
X72550828Y-86135000D01*
X72550838Y-86135000D01*
X72702895Y-86120024D01*
X72897993Y-86060841D01*
X73077797Y-85964734D01*
X73235396Y-85835396D01*
X73267807Y-85795903D01*
X75595908Y-83467803D01*
X75635396Y-83435396D01*
X75667804Y-83395907D01*
X75764734Y-83277798D01*
X75860841Y-83097994D01*
X75890567Y-83000000D01*
X75920024Y-82902895D01*
X75935000Y-82750838D01*
X75935000Y-82750835D01*
X75940007Y-82700000D01*
X75935000Y-82649165D01*
X75935000Y-73428710D01*
X80028711Y-69335000D01*
X93171290Y-69335000D01*
X96665000Y-72828711D01*
X96665001Y-82198056D01*
X96665000Y-82198061D01*
X96665000Y-82401939D01*
X96674971Y-82452067D01*
X96679977Y-82502895D01*
X96694803Y-82551768D01*
X96704774Y-82601898D01*
X96724335Y-82649122D01*
X96739160Y-82697993D01*
X96763235Y-82743034D01*
X96782795Y-82790256D01*
X96811191Y-82832753D01*
X96835267Y-82877797D01*
X96867668Y-82917278D01*
X96896063Y-82959774D01*
X96932203Y-82995914D01*
X96964605Y-83035396D01*
X97004087Y-83067798D01*
X97040226Y-83103937D01*
X97082721Y-83132331D01*
X97122204Y-83164734D01*
X97167250Y-83188812D01*
X97209744Y-83217205D01*
X97256962Y-83236763D01*
X97302008Y-83260841D01*
X97350884Y-83275668D01*
X97398102Y-83295226D01*
X97448226Y-83305196D01*
X97497106Y-83320024D01*
X97547942Y-83325031D01*
X97598061Y-83335000D01*
X97649162Y-83335000D01*
X97700000Y-83340007D01*
X97750838Y-83335000D01*
X97801939Y-83335000D01*
X97852057Y-83325031D01*
X97902895Y-83320024D01*
X97951777Y-83305196D01*
X98001898Y-83295226D01*
X98049113Y-83275669D01*
X98097993Y-83260841D01*
X98143042Y-83236762D01*
X98190256Y-83217205D01*
X98232746Y-83188814D01*
X98277797Y-83164734D01*
X98317284Y-83132328D01*
X98359774Y-83103937D01*
X98395908Y-83067803D01*
X98435396Y-83035396D01*
X98467803Y-82995908D01*
X98503937Y-82959774D01*
X98532328Y-82917284D01*
X98564734Y-82877797D01*
X98588814Y-82832746D01*
X98617205Y-82790256D01*
X98636762Y-82743042D01*
X98660841Y-82697993D01*
X98675669Y-82649113D01*
X98695226Y-82601898D01*
X98705196Y-82551777D01*
X98720024Y-82502895D01*
X98725031Y-82452057D01*
X98735000Y-82401939D01*
X98735000Y-72450835D01*
X98740007Y-72400000D01*
X98729770Y-72296063D01*
X98720024Y-72197105D01*
X98667057Y-72022499D01*
X98660841Y-72002006D01*
X98564734Y-71822202D01*
X98467803Y-71704092D01*
X98435396Y-71664604D01*
X98395908Y-71632197D01*
X94367807Y-67604097D01*
X94335396Y-67564604D01*
X94177797Y-67435266D01*
X93997993Y-67339159D01*
X93802895Y-67279976D01*
X93650838Y-67265000D01*
X93650828Y-67265000D01*
X93622554Y-67262215D01*
X93709774Y-67203937D01*
X93853937Y-67059774D01*
X93967205Y-66890256D01*
X94045226Y-66701898D01*
X94085000Y-66501939D01*
X94085000Y-66298061D01*
X94045226Y-66098102D01*
X93967205Y-65909744D01*
X93853937Y-65740226D01*
X93709774Y-65596063D01*
X93540256Y-65482795D01*
X93351898Y-65404774D01*
X93151939Y-65365000D01*
X92948061Y-65365000D01*
X92748102Y-65404774D01*
X92559744Y-65482795D01*
X92390226Y-65596063D01*
X92246063Y-65740226D01*
X92132795Y-65909744D01*
X92054774Y-66098102D01*
X92015000Y-66298061D01*
X92015000Y-66501939D01*
X92054774Y-66701898D01*
X92132795Y-66890256D01*
X92246063Y-67059774D01*
X92390226Y-67203937D01*
X92481613Y-67265000D01*
X81706296Y-67265000D01*
X81746831Y-67215608D01*
X81824278Y-67070716D01*
X81871969Y-66913500D01*
X81888072Y-66750000D01*
X81888072Y-66350000D01*
X81871969Y-66186500D01*
X81824278Y-66029284D01*
X81746831Y-65884392D01*
X81731749Y-65866015D01*
X81745255Y-65848160D01*
X81834994Y-65662972D01*
X81844666Y-65586123D01*
X81716998Y-65427000D01*
X80727000Y-65427000D01*
X80727000Y-65447000D01*
X80473000Y-65447000D01*
X80473000Y-65427000D01*
X79483002Y-65427000D01*
X79355334Y-65586123D01*
X79365006Y-65662972D01*
X79454745Y-65848160D01*
X79468251Y-65866015D01*
X79453169Y-65884392D01*
X79375722Y-66029284D01*
X79328031Y-66186500D01*
X79311928Y-66350000D01*
X79311928Y-66750000D01*
X79328031Y-66913500D01*
X79375722Y-67070716D01*
X79453169Y-67215608D01*
X79497851Y-67270054D01*
X79397105Y-67279976D01*
X79202007Y-67339159D01*
X79158027Y-67362667D01*
X79022202Y-67435266D01*
X78957098Y-67488696D01*
X78864604Y-67564604D01*
X78832197Y-67604092D01*
X74204092Y-72232197D01*
X74164605Y-72264604D01*
X74132198Y-72304092D01*
X74132197Y-72304093D01*
X74035266Y-72422203D01*
X73939160Y-72602007D01*
X73879977Y-72797105D01*
X73859994Y-73000000D01*
X73865001Y-73050838D01*
X73865001Y-74101290D01*
X73759774Y-73996063D01*
X73590256Y-73882795D01*
X73401898Y-73804774D01*
X73201939Y-73765000D01*
X72998061Y-73765000D01*
X72798102Y-73804774D01*
X72609744Y-73882795D01*
X72440226Y-73996063D01*
X72434992Y-74001297D01*
X72434992Y-73898061D01*
X72395218Y-73698102D01*
X72317197Y-73509744D01*
X72203929Y-73340226D01*
X72059766Y-73196063D01*
X71890248Y-73082795D01*
X71701890Y-73004774D01*
X71501931Y-72965000D01*
X71298053Y-72965000D01*
X71098094Y-73004774D01*
X70909736Y-73082795D01*
X70740218Y-73196063D01*
X70596055Y-73340226D01*
X70482787Y-73509744D01*
X70404766Y-73698102D01*
X70364992Y-73898061D01*
X70364992Y-74101939D01*
X70404766Y-74301898D01*
X70482787Y-74490256D01*
X70596055Y-74659774D01*
X70740218Y-74803937D01*
X70909736Y-74917205D01*
X71098094Y-74995226D01*
X71298053Y-75035000D01*
X71501931Y-75035000D01*
X71701890Y-74995226D01*
X71890248Y-74917205D01*
X72059766Y-74803937D01*
X72065000Y-74798703D01*
X72065000Y-74901939D01*
X72104774Y-75101898D01*
X72182795Y-75290256D01*
X72296063Y-75459774D01*
X72440226Y-75603937D01*
X72609744Y-75717205D01*
X72798102Y-75795226D01*
X72998061Y-75835000D01*
X73201939Y-75835000D01*
X73401898Y-75795226D01*
X73590256Y-75717205D01*
X73759774Y-75603937D01*
X73865001Y-75498710D01*
X73865000Y-82271289D01*
X72071290Y-84065000D01*
X60228711Y-84065000D01*
X58203939Y-82040229D01*
X58203937Y-82040226D01*
X58059774Y-81896063D01*
X58017283Y-81867671D01*
X57977797Y-81835266D01*
X57932748Y-81811187D01*
X57890256Y-81782795D01*
X57843036Y-81763236D01*
X57797993Y-81739160D01*
X57749122Y-81724335D01*
X57701898Y-81704774D01*
X57651768Y-81694803D01*
X57602895Y-81679977D01*
X57552067Y-81674971D01*
X57501939Y-81665000D01*
X57450828Y-81665000D01*
X57400000Y-81659994D01*
X57349172Y-81665000D01*
X57298061Y-81665000D01*
X57247933Y-81674971D01*
X57197105Y-81679977D01*
X57148232Y-81694803D01*
X57098102Y-81704774D01*
X57050878Y-81724335D01*
X57002007Y-81739160D01*
X56956964Y-81763236D01*
X56909744Y-81782795D01*
X56867252Y-81811187D01*
X56822203Y-81835266D01*
X56782716Y-81867672D01*
X56740226Y-81896063D01*
X56704092Y-81932197D01*
X56664604Y-81964604D01*
X56632197Y-82004092D01*
X56596063Y-82040226D01*
X56567672Y-82082716D01*
X56535266Y-82122203D01*
X56511187Y-82167252D01*
X56482795Y-82209744D01*
X56463236Y-82256964D01*
X56439160Y-82302007D01*
X56424335Y-82350878D01*
X56404774Y-82398102D01*
X56394803Y-82448232D01*
X56379977Y-82497105D01*
X56374971Y-82547933D01*
X56365000Y-82598061D01*
X56365000Y-82649172D01*
X56359994Y-82700000D01*
X42624802Y-82700000D01*
X42377273Y-82452472D01*
X42452895Y-82445024D01*
X42647993Y-82385841D01*
X42827797Y-82289734D01*
X42985396Y-82160396D01*
X43114734Y-82002797D01*
X43210841Y-81822993D01*
X43270024Y-81627895D01*
X43290007Y-81425000D01*
X43270024Y-81222105D01*
X43210841Y-81027007D01*
X43114734Y-80847203D01*
X43075996Y-80800000D01*
X43114734Y-80752797D01*
X43210841Y-80572993D01*
X43270024Y-80377895D01*
X43290007Y-80175000D01*
X43270024Y-79972105D01*
X43210841Y-79777007D01*
X43114734Y-79597203D01*
X43075996Y-79550000D01*
X43114734Y-79502797D01*
X43210841Y-79322993D01*
X43270024Y-79127895D01*
X43282811Y-78998061D01*
X45965000Y-78998061D01*
X45965000Y-79201939D01*
X46004774Y-79401898D01*
X46082795Y-79590256D01*
X46196063Y-79759774D01*
X46340226Y-79903937D01*
X46466888Y-79988570D01*
X46465000Y-79998061D01*
X46465000Y-80201939D01*
X46504774Y-80401898D01*
X46582795Y-80590256D01*
X46696063Y-80759774D01*
X46840226Y-80903937D01*
X47009744Y-81017205D01*
X47198102Y-81095226D01*
X47398061Y-81135000D01*
X47601939Y-81135000D01*
X47801898Y-81095226D01*
X47990256Y-81017205D01*
X48159774Y-80903937D01*
X48165650Y-80898061D01*
X61965000Y-80898061D01*
X61965000Y-81101939D01*
X62004774Y-81301898D01*
X62082795Y-81490256D01*
X62196063Y-81659774D01*
X62340226Y-81803937D01*
X62509744Y-81917205D01*
X62698102Y-81995226D01*
X62898061Y-82035000D01*
X63101939Y-82035000D01*
X63301898Y-81995226D01*
X63490256Y-81917205D01*
X63659774Y-81803937D01*
X63803937Y-81659774D01*
X63917205Y-81490256D01*
X63995226Y-81301898D01*
X64035000Y-81101939D01*
X64035000Y-80898061D01*
X63995226Y-80698102D01*
X63917205Y-80509744D01*
X63803937Y-80340226D01*
X63659774Y-80196063D01*
X63490256Y-80082795D01*
X63301898Y-80004774D01*
X63101939Y-79965000D01*
X62898061Y-79965000D01*
X62698102Y-80004774D01*
X62509744Y-80082795D01*
X62340226Y-80196063D01*
X62196063Y-80340226D01*
X62082795Y-80509744D01*
X62004774Y-80698102D01*
X61965000Y-80898061D01*
X48165650Y-80898061D01*
X48303937Y-80759774D01*
X48417205Y-80590256D01*
X48495226Y-80401898D01*
X48535000Y-80201939D01*
X48535000Y-79998061D01*
X48495226Y-79798102D01*
X48417205Y-79609744D01*
X48303937Y-79440226D01*
X48159774Y-79296063D01*
X48033112Y-79211430D01*
X48035000Y-79201939D01*
X48035000Y-78998061D01*
X47995226Y-78798102D01*
X47917205Y-78609744D01*
X47803937Y-78440226D01*
X47659774Y-78296063D01*
X47490256Y-78182795D01*
X47301898Y-78104774D01*
X47101939Y-78065000D01*
X46898061Y-78065000D01*
X46698102Y-78104774D01*
X46509744Y-78182795D01*
X46340226Y-78296063D01*
X46196063Y-78440226D01*
X46082795Y-78609744D01*
X46004774Y-78798102D01*
X45965000Y-78998061D01*
X43282811Y-78998061D01*
X43290007Y-78925000D01*
X43270024Y-78722105D01*
X43210841Y-78527007D01*
X43114734Y-78347203D01*
X43081791Y-78307062D01*
X43145255Y-78223160D01*
X43234994Y-78037972D01*
X43244666Y-77961123D01*
X43116998Y-77802000D01*
X42127000Y-77802000D01*
X42127000Y-77822000D01*
X41873000Y-77822000D01*
X41873000Y-77802000D01*
X40883002Y-77802000D01*
X40755334Y-77961123D01*
X40765006Y-78037972D01*
X40854745Y-78223160D01*
X40918209Y-78307062D01*
X40885266Y-78347203D01*
X40789159Y-78527007D01*
X40729976Y-78722105D01*
X40709993Y-78925000D01*
X40729976Y-79127895D01*
X40789159Y-79322993D01*
X40885266Y-79502797D01*
X40924004Y-79550000D01*
X40885266Y-79597203D01*
X40789159Y-79777007D01*
X40729976Y-79972105D01*
X40709993Y-80175000D01*
X40729976Y-80377895D01*
X40789159Y-80572993D01*
X40885266Y-80752797D01*
X40924004Y-80800000D01*
X40885266Y-80847203D01*
X40845814Y-80921013D01*
X40510000Y-80585199D01*
X40510000Y-76225000D01*
X40711928Y-76225000D01*
X40711928Y-76625000D01*
X40728031Y-76788500D01*
X40775722Y-76945716D01*
X40853169Y-77090608D01*
X40868251Y-77108985D01*
X40854745Y-77126840D01*
X40765006Y-77312028D01*
X40755334Y-77388877D01*
X40883002Y-77548000D01*
X41873000Y-77548000D01*
X41873000Y-77528000D01*
X42127000Y-77528000D01*
X42127000Y-77548000D01*
X43116998Y-77548000D01*
X43244666Y-77388877D01*
X43234994Y-77312028D01*
X43179768Y-77198061D01*
X61465000Y-77198061D01*
X61465000Y-77401939D01*
X61504774Y-77601898D01*
X61582795Y-77790256D01*
X61696063Y-77959774D01*
X61840226Y-78103937D01*
X62009744Y-78217205D01*
X62198102Y-78295226D01*
X62398061Y-78335000D01*
X62601939Y-78335000D01*
X62801898Y-78295226D01*
X62990256Y-78217205D01*
X63159774Y-78103937D01*
X63303937Y-77959774D01*
X63417205Y-77790256D01*
X63495226Y-77601898D01*
X63535000Y-77401939D01*
X63535000Y-77198061D01*
X63495226Y-76998102D01*
X63417205Y-76809744D01*
X63303937Y-76640226D01*
X63159774Y-76496063D01*
X62990256Y-76382795D01*
X62801898Y-76304774D01*
X62601939Y-76265000D01*
X62398061Y-76265000D01*
X62198102Y-76304774D01*
X62009744Y-76382795D01*
X61840226Y-76496063D01*
X61696063Y-76640226D01*
X61582795Y-76809744D01*
X61504774Y-76998102D01*
X61465000Y-77198061D01*
X43179768Y-77198061D01*
X43145255Y-77126840D01*
X43131749Y-77108985D01*
X43146831Y-77090608D01*
X43224278Y-76945716D01*
X43271969Y-76788500D01*
X43288072Y-76625000D01*
X43288072Y-76225000D01*
X43271969Y-76061500D01*
X43224278Y-75904284D01*
X43146831Y-75759392D01*
X43042606Y-75632394D01*
X42915608Y-75528169D01*
X42770716Y-75450722D01*
X42613500Y-75403031D01*
X42450000Y-75386928D01*
X41550000Y-75386928D01*
X41386500Y-75403031D01*
X41229284Y-75450722D01*
X41084392Y-75528169D01*
X40957394Y-75632394D01*
X40853169Y-75759392D01*
X40775722Y-75904284D01*
X40728031Y-76061500D01*
X40711928Y-76225000D01*
X40510000Y-76225000D01*
X40510000Y-74498061D01*
X55665000Y-74498061D01*
X55665000Y-74701939D01*
X55704774Y-74901898D01*
X55782795Y-75090256D01*
X55896063Y-75259774D01*
X56040226Y-75403937D01*
X56209744Y-75517205D01*
X56398102Y-75595226D01*
X56598061Y-75635000D01*
X56801939Y-75635000D01*
X57001898Y-75595226D01*
X57190256Y-75517205D01*
X57359774Y-75403937D01*
X57503937Y-75259774D01*
X57617205Y-75090256D01*
X57695226Y-74901898D01*
X57735000Y-74701939D01*
X57735000Y-74598061D01*
X58465000Y-74598061D01*
X58465000Y-74801939D01*
X58504774Y-75001898D01*
X58582795Y-75190256D01*
X58696063Y-75359774D01*
X58840226Y-75503937D01*
X59009744Y-75617205D01*
X59198102Y-75695226D01*
X59398061Y-75735000D01*
X59601939Y-75735000D01*
X59801898Y-75695226D01*
X59990256Y-75617205D01*
X60159774Y-75503937D01*
X60303937Y-75359774D01*
X60417205Y-75190256D01*
X60495226Y-75001898D01*
X60535000Y-74801939D01*
X60535000Y-74598061D01*
X60495226Y-74398102D01*
X60417205Y-74209744D01*
X60303937Y-74040226D01*
X60161772Y-73898061D01*
X61465000Y-73898061D01*
X61465000Y-74101939D01*
X61504774Y-74301898D01*
X61582795Y-74490256D01*
X61696063Y-74659774D01*
X61840226Y-74803937D01*
X62009744Y-74917205D01*
X62198102Y-74995226D01*
X62398061Y-75035000D01*
X62601939Y-75035000D01*
X62801898Y-74995226D01*
X62990256Y-74917205D01*
X63159774Y-74803937D01*
X63303937Y-74659774D01*
X63417205Y-74490256D01*
X63495226Y-74301898D01*
X63535000Y-74101939D01*
X63535000Y-73898061D01*
X63495226Y-73698102D01*
X63417205Y-73509744D01*
X63303937Y-73340226D01*
X63159774Y-73196063D01*
X62990256Y-73082795D01*
X62801898Y-73004774D01*
X62768150Y-72998061D01*
X64165000Y-72998061D01*
X64165000Y-73201939D01*
X64204774Y-73401898D01*
X64282795Y-73590256D01*
X64396063Y-73759774D01*
X64540226Y-73903937D01*
X64709744Y-74017205D01*
X64898102Y-74095226D01*
X65098061Y-74135000D01*
X65301939Y-74135000D01*
X65501898Y-74095226D01*
X65690256Y-74017205D01*
X65859774Y-73903937D01*
X66003937Y-73759774D01*
X66117205Y-73590256D01*
X66195226Y-73401898D01*
X66235000Y-73201939D01*
X66235000Y-72998061D01*
X66195226Y-72798102D01*
X66117205Y-72609744D01*
X66003937Y-72440226D01*
X65859774Y-72296063D01*
X65690256Y-72182795D01*
X65501898Y-72104774D01*
X65301939Y-72065000D01*
X65098061Y-72065000D01*
X64898102Y-72104774D01*
X64709744Y-72182795D01*
X64540226Y-72296063D01*
X64396063Y-72440226D01*
X64282795Y-72609744D01*
X64204774Y-72798102D01*
X64165000Y-72998061D01*
X62768150Y-72998061D01*
X62601939Y-72965000D01*
X62398061Y-72965000D01*
X62198102Y-73004774D01*
X62009744Y-73082795D01*
X61840226Y-73196063D01*
X61696063Y-73340226D01*
X61582795Y-73509744D01*
X61504774Y-73698102D01*
X61465000Y-73898061D01*
X60161772Y-73898061D01*
X60159774Y-73896063D01*
X59990256Y-73782795D01*
X59801898Y-73704774D01*
X59601939Y-73665000D01*
X59398061Y-73665000D01*
X59198102Y-73704774D01*
X59009744Y-73782795D01*
X58840226Y-73896063D01*
X58696063Y-74040226D01*
X58582795Y-74209744D01*
X58504774Y-74398102D01*
X58465000Y-74598061D01*
X57735000Y-74598061D01*
X57735000Y-74498061D01*
X57695226Y-74298102D01*
X57617205Y-74109744D01*
X57503937Y-73940226D01*
X57359774Y-73796063D01*
X57190256Y-73682795D01*
X57001898Y-73604774D01*
X56801939Y-73565000D01*
X56598061Y-73565000D01*
X56398102Y-73604774D01*
X56209744Y-73682795D01*
X56040226Y-73796063D01*
X55896063Y-73940226D01*
X55782795Y-74109744D01*
X55704774Y-74298102D01*
X55665000Y-74498061D01*
X40510000Y-74498061D01*
X40510000Y-70464801D01*
X41761004Y-69213798D01*
X41790001Y-69190001D01*
X41884974Y-69074276D01*
X41955546Y-68942247D01*
X41999003Y-68798986D01*
X42010000Y-68687333D01*
X42010000Y-68687324D01*
X42013676Y-68650001D01*
X42010000Y-68612678D01*
X42010000Y-67437323D01*
X42013676Y-67400000D01*
X42010000Y-67362677D01*
X42010000Y-67362667D01*
X41999003Y-67251014D01*
X41955546Y-67107753D01*
X41933575Y-67066649D01*
X41884974Y-66975723D01*
X41813799Y-66888997D01*
X41790001Y-66859999D01*
X41761003Y-66836201D01*
X40760000Y-65835199D01*
X40760000Y-63298061D01*
X41065000Y-63298061D01*
X41065000Y-63501939D01*
X41104774Y-63701898D01*
X41182795Y-63890256D01*
X41296063Y-64059774D01*
X41440226Y-64203937D01*
X41609744Y-64317205D01*
X41798102Y-64395226D01*
X41998061Y-64435000D01*
X42201939Y-64435000D01*
X42401898Y-64395226D01*
X42590256Y-64317205D01*
X42759774Y-64203937D01*
X42903937Y-64059774D01*
X43017205Y-63890256D01*
X43095226Y-63701898D01*
X43135000Y-63501939D01*
X43135000Y-63298061D01*
X43095226Y-63098102D01*
X43017205Y-62909744D01*
X42903937Y-62740226D01*
X42759774Y-62596063D01*
X42590256Y-62482795D01*
X42401898Y-62404774D01*
X42201939Y-62365000D01*
X41998061Y-62365000D01*
X41798102Y-62404774D01*
X41609744Y-62482795D01*
X41440226Y-62596063D01*
X41296063Y-62740226D01*
X41182795Y-62909744D01*
X41104774Y-63098102D01*
X41065000Y-63298061D01*
X40760000Y-63298061D01*
X40760000Y-60837323D01*
X40763676Y-60800000D01*
X40760000Y-60762677D01*
X40760000Y-60762667D01*
X40749003Y-60651014D01*
X40705546Y-60507753D01*
X40681987Y-60463677D01*
X40634974Y-60375723D01*
X40563799Y-60288997D01*
X40540001Y-60259999D01*
X40511003Y-60236201D01*
X39660000Y-59385199D01*
X39660000Y-58398061D01*
X42465000Y-58398061D01*
X42465000Y-58601939D01*
X42504774Y-58801898D01*
X42582795Y-58990256D01*
X42696063Y-59159774D01*
X42840226Y-59303937D01*
X43009744Y-59417205D01*
X43198102Y-59495226D01*
X43398061Y-59535000D01*
X43601939Y-59535000D01*
X43715000Y-59512511D01*
X43715001Y-63619239D01*
X43709509Y-63675000D01*
X43731423Y-63897498D01*
X43796324Y-64111446D01*
X43796325Y-64111447D01*
X43901717Y-64308623D01*
X44043552Y-64481449D01*
X44086860Y-64516991D01*
X45733009Y-66163140D01*
X45768551Y-66206449D01*
X45941377Y-66348284D01*
X46138553Y-66453676D01*
X46352501Y-66518577D01*
X46519248Y-66535000D01*
X46519257Y-66535000D01*
X46574999Y-66540490D01*
X46630741Y-66535000D01*
X49354869Y-66535000D01*
X54284868Y-71465000D01*
X54198061Y-71465000D01*
X53998102Y-71504774D01*
X53809744Y-71582795D01*
X53640226Y-71696063D01*
X53496063Y-71840226D01*
X53382795Y-72009744D01*
X53304774Y-72198102D01*
X53265000Y-72398061D01*
X53265000Y-72601939D01*
X53304774Y-72801898D01*
X53382795Y-72990256D01*
X53496063Y-73159774D01*
X53640226Y-73303937D01*
X53809744Y-73417205D01*
X53998102Y-73495226D01*
X54198061Y-73535000D01*
X54401939Y-73535000D01*
X54601898Y-73495226D01*
X54790256Y-73417205D01*
X54959774Y-73303937D01*
X55103937Y-73159774D01*
X55217205Y-72990256D01*
X55295226Y-72801898D01*
X55335000Y-72601939D01*
X55335000Y-72515132D01*
X55383009Y-72563141D01*
X55418551Y-72606449D01*
X55553507Y-72717205D01*
X55591377Y-72748284D01*
X55788553Y-72853676D01*
X56002501Y-72918577D01*
X56225000Y-72940491D01*
X56280752Y-72935000D01*
X57455752Y-72935000D01*
X57622499Y-72918577D01*
X57836447Y-72853676D01*
X58033623Y-72748284D01*
X58206449Y-72606449D01*
X58348284Y-72433623D01*
X58453676Y-72236447D01*
X58518577Y-72022499D01*
X58540491Y-71800000D01*
X58518577Y-71577501D01*
X58453676Y-71363553D01*
X58365220Y-71198061D01*
X62965000Y-71198061D01*
X62965000Y-71401939D01*
X63004774Y-71601898D01*
X63082795Y-71790256D01*
X63196063Y-71959774D01*
X63340226Y-72103937D01*
X63509744Y-72217205D01*
X63698102Y-72295226D01*
X63898061Y-72335000D01*
X64101939Y-72335000D01*
X64301898Y-72295226D01*
X64490256Y-72217205D01*
X64659774Y-72103937D01*
X64803937Y-71959774D01*
X64917205Y-71790256D01*
X64995226Y-71601898D01*
X65035000Y-71401939D01*
X65035000Y-71198061D01*
X64995226Y-70998102D01*
X64917205Y-70809744D01*
X64803937Y-70640226D01*
X64659774Y-70496063D01*
X64490256Y-70382795D01*
X64301898Y-70304774D01*
X64293724Y-70303148D01*
X71826457Y-70303148D01*
X72102627Y-70721118D01*
X72647557Y-71011649D01*
X73238696Y-71190287D01*
X73853328Y-71250168D01*
X74467831Y-71188990D01*
X75058592Y-71009103D01*
X75597373Y-70721118D01*
X75873543Y-70303148D01*
X73850000Y-68279605D01*
X71826457Y-70303148D01*
X64293724Y-70303148D01*
X64101939Y-70265000D01*
X63898061Y-70265000D01*
X63698102Y-70304774D01*
X63509744Y-70382795D01*
X63340226Y-70496063D01*
X63196063Y-70640226D01*
X63082795Y-70809744D01*
X63004774Y-70998102D01*
X62965000Y-71198061D01*
X58365220Y-71198061D01*
X58348284Y-71166377D01*
X58206449Y-70993551D01*
X58033623Y-70851716D01*
X57836447Y-70746324D01*
X57622499Y-70681423D01*
X57455752Y-70665000D01*
X56695132Y-70665000D01*
X55528193Y-69498061D01*
X58065000Y-69498061D01*
X58065000Y-69701939D01*
X58104774Y-69901898D01*
X58182795Y-70090256D01*
X58296063Y-70259774D01*
X58440226Y-70403937D01*
X58609744Y-70517205D01*
X58798102Y-70595226D01*
X58998061Y-70635000D01*
X59201939Y-70635000D01*
X59401898Y-70595226D01*
X59590256Y-70517205D01*
X59759774Y-70403937D01*
X59903937Y-70259774D01*
X60017205Y-70090256D01*
X60095226Y-69901898D01*
X60135000Y-69701939D01*
X60135000Y-69498061D01*
X60095226Y-69298102D01*
X60017205Y-69109744D01*
X59903937Y-68940226D01*
X59759774Y-68796063D01*
X59590256Y-68682795D01*
X59401898Y-68604774D01*
X59201939Y-68565000D01*
X58998061Y-68565000D01*
X58798102Y-68604774D01*
X58609744Y-68682795D01*
X58440226Y-68796063D01*
X58296063Y-68940226D01*
X58182795Y-69109744D01*
X58104774Y-69298102D01*
X58065000Y-69498061D01*
X55528193Y-69498061D01*
X50666996Y-64636865D01*
X50631449Y-64593551D01*
X50458623Y-64451716D01*
X50261447Y-64346324D01*
X50047499Y-64281423D01*
X49880752Y-64265000D01*
X49880751Y-64265000D01*
X49825000Y-64259509D01*
X49769249Y-64265000D01*
X47045132Y-64265000D01*
X45985000Y-63204869D01*
X45985000Y-60698061D01*
X48465000Y-60698061D01*
X48465000Y-60901939D01*
X48504774Y-61101898D01*
X48582795Y-61290256D01*
X48696063Y-61459774D01*
X48840226Y-61603937D01*
X49009744Y-61717205D01*
X49198102Y-61795226D01*
X49398061Y-61835000D01*
X49601939Y-61835000D01*
X49801898Y-61795226D01*
X49990256Y-61717205D01*
X50159774Y-61603937D01*
X50303937Y-61459774D01*
X50417205Y-61290256D01*
X50495226Y-61101898D01*
X50535000Y-60901939D01*
X50535000Y-60698061D01*
X50495226Y-60498102D01*
X50417205Y-60309744D01*
X50303937Y-60140226D01*
X50298711Y-60135000D01*
X50401939Y-60135000D01*
X50601898Y-60095226D01*
X50790256Y-60017205D01*
X50959774Y-59903937D01*
X51103937Y-59759774D01*
X51211989Y-59598061D01*
X52365000Y-59598061D01*
X52365000Y-59801939D01*
X52404774Y-60001898D01*
X52482795Y-60190256D01*
X52596063Y-60359774D01*
X52740226Y-60503937D01*
X52909744Y-60617205D01*
X52939685Y-60629607D01*
X52840226Y-60696063D01*
X52696063Y-60840226D01*
X52582795Y-61009744D01*
X52504774Y-61198102D01*
X52465000Y-61398061D01*
X52465000Y-61601939D01*
X52504774Y-61801898D01*
X52582795Y-61990256D01*
X52696063Y-62159774D01*
X52840226Y-62303937D01*
X53009744Y-62417205D01*
X53198102Y-62495226D01*
X53398061Y-62535000D01*
X53601939Y-62535000D01*
X53801898Y-62495226D01*
X53990256Y-62417205D01*
X54159774Y-62303937D01*
X54303937Y-62159774D01*
X54417205Y-61990256D01*
X54495226Y-61801898D01*
X54535000Y-61601939D01*
X54535000Y-61398061D01*
X54495226Y-61198102D01*
X54417205Y-61009744D01*
X54303937Y-60840226D01*
X54159774Y-60696063D01*
X53990256Y-60582795D01*
X53960315Y-60570393D01*
X54059774Y-60503937D01*
X54203937Y-60359774D01*
X54317205Y-60190256D01*
X54395226Y-60001898D01*
X54435000Y-59801939D01*
X54435000Y-59598061D01*
X54395226Y-59398102D01*
X54317205Y-59209744D01*
X54203937Y-59040226D01*
X54059774Y-58896063D01*
X53890256Y-58782795D01*
X53701898Y-58704774D01*
X53501939Y-58665000D01*
X53298061Y-58665000D01*
X53098102Y-58704774D01*
X52909744Y-58782795D01*
X52740226Y-58896063D01*
X52596063Y-59040226D01*
X52482795Y-59209744D01*
X52404774Y-59398102D01*
X52365000Y-59598061D01*
X51211989Y-59598061D01*
X51217205Y-59590256D01*
X51295226Y-59401898D01*
X51335000Y-59201939D01*
X51335000Y-58998061D01*
X51295226Y-58798102D01*
X51217205Y-58609744D01*
X51103937Y-58440226D01*
X50959774Y-58296063D01*
X50790256Y-58182795D01*
X50601898Y-58104774D01*
X50401939Y-58065000D01*
X50198061Y-58065000D01*
X49998102Y-58104774D01*
X49809744Y-58182795D01*
X49640226Y-58296063D01*
X49496063Y-58440226D01*
X49382795Y-58609744D01*
X49304774Y-58798102D01*
X49265000Y-58998061D01*
X49265000Y-59201939D01*
X49304774Y-59401898D01*
X49382795Y-59590256D01*
X49496063Y-59759774D01*
X49501289Y-59765000D01*
X49398061Y-59765000D01*
X49198102Y-59804774D01*
X49009744Y-59882795D01*
X48840226Y-59996063D01*
X48696063Y-60140226D01*
X48582795Y-60309744D01*
X48504774Y-60498102D01*
X48465000Y-60698061D01*
X45985000Y-60698061D01*
X45985000Y-54295132D01*
X46176984Y-54103148D01*
X55626457Y-54103148D01*
X55902627Y-54521118D01*
X56447557Y-54811649D01*
X57038696Y-54990287D01*
X57653328Y-55050168D01*
X58267831Y-54988990D01*
X58778707Y-54833428D01*
X58131746Y-55840119D01*
X57617276Y-56966651D01*
X57268365Y-58154933D01*
X57092116Y-59380776D01*
X57092116Y-60619224D01*
X57268365Y-61845067D01*
X57617276Y-63033349D01*
X58131746Y-64159881D01*
X58801302Y-65201730D01*
X59612313Y-66137687D01*
X60548270Y-66948698D01*
X61590119Y-67618254D01*
X62716651Y-68132724D01*
X63904933Y-68481635D01*
X65130776Y-68657884D01*
X66369224Y-68657884D01*
X67595067Y-68481635D01*
X68783349Y-68132724D01*
X69909881Y-67618254D01*
X70915947Y-66971694D01*
X70759713Y-67488696D01*
X70699832Y-68103328D01*
X70761010Y-68717831D01*
X70940897Y-69308592D01*
X71228882Y-69847373D01*
X71646852Y-70123543D01*
X73670395Y-68100000D01*
X74029605Y-68100000D01*
X76053148Y-70123543D01*
X76471118Y-69847373D01*
X76761649Y-69302443D01*
X76940287Y-68711304D01*
X77000168Y-68096672D01*
X76938990Y-67482169D01*
X76759103Y-66891408D01*
X76471118Y-66352627D01*
X76053148Y-66076457D01*
X74029605Y-68100000D01*
X73670395Y-68100000D01*
X73656253Y-68085858D01*
X73835858Y-67906253D01*
X73850000Y-67920395D01*
X75873543Y-65896852D01*
X75597373Y-65478882D01*
X75052443Y-65188351D01*
X74475084Y-65013877D01*
X79355334Y-65013877D01*
X79483002Y-65173000D01*
X80473000Y-65173000D01*
X80473000Y-64416238D01*
X80727000Y-64416238D01*
X80727000Y-65173000D01*
X81716998Y-65173000D01*
X81844666Y-65013877D01*
X81834994Y-64937028D01*
X81745255Y-64751840D01*
X81621112Y-64587717D01*
X81467336Y-64450967D01*
X81289836Y-64346845D01*
X81095433Y-64279352D01*
X80891599Y-64251082D01*
X80727000Y-64416238D01*
X80473000Y-64416238D01*
X80308401Y-64251082D01*
X80104567Y-64279352D01*
X79910164Y-64346845D01*
X79732664Y-64450967D01*
X79578888Y-64587717D01*
X79454745Y-64751840D01*
X79365006Y-64937028D01*
X79355334Y-65013877D01*
X74475084Y-65013877D01*
X74461304Y-65009713D01*
X73846672Y-64949832D01*
X73232169Y-65011010D01*
X72721293Y-65166572D01*
X73368254Y-64159881D01*
X73710457Y-63410561D01*
X87752500Y-63410561D01*
X87752500Y-63614439D01*
X87792274Y-63814398D01*
X87870295Y-64002756D01*
X87983563Y-64172274D01*
X88127726Y-64316437D01*
X88297244Y-64429705D01*
X88485602Y-64507726D01*
X88685561Y-64547500D01*
X88889439Y-64547500D01*
X89089398Y-64507726D01*
X89277756Y-64429705D01*
X89447274Y-64316437D01*
X89591437Y-64172274D01*
X89704705Y-64002756D01*
X89782726Y-63814398D01*
X89822500Y-63614439D01*
X89822500Y-63410561D01*
X89782726Y-63210602D01*
X89704705Y-63022244D01*
X89591437Y-62852726D01*
X89447274Y-62708563D01*
X89277756Y-62595295D01*
X89089398Y-62517274D01*
X88889439Y-62477500D01*
X88685561Y-62477500D01*
X88485602Y-62517274D01*
X88297244Y-62595295D01*
X88127726Y-62708563D01*
X87983563Y-62852726D01*
X87870295Y-63022244D01*
X87792274Y-63210602D01*
X87752500Y-63410561D01*
X73710457Y-63410561D01*
X73882724Y-63033349D01*
X74231635Y-61845067D01*
X74407884Y-60619224D01*
X74407884Y-59548061D01*
X79265000Y-59548061D01*
X79265000Y-59751939D01*
X79304774Y-59951898D01*
X79382795Y-60140256D01*
X79496063Y-60309774D01*
X79640226Y-60453937D01*
X79809744Y-60567205D01*
X79998102Y-60645226D01*
X80198061Y-60685000D01*
X80401939Y-60685000D01*
X80601898Y-60645226D01*
X80790256Y-60567205D01*
X80959774Y-60453937D01*
X81103937Y-60309774D01*
X81217205Y-60140256D01*
X81295226Y-59951898D01*
X81335000Y-59751939D01*
X81335000Y-59548061D01*
X81295226Y-59348102D01*
X81217205Y-59159744D01*
X81103937Y-58990226D01*
X80959774Y-58846063D01*
X80790256Y-58732795D01*
X80601898Y-58654774D01*
X80401939Y-58615000D01*
X80198061Y-58615000D01*
X79998102Y-58654774D01*
X79809744Y-58732795D01*
X79640226Y-58846063D01*
X79496063Y-58990226D01*
X79382795Y-59159744D01*
X79304774Y-59348102D01*
X79265000Y-59548061D01*
X74407884Y-59548061D01*
X74407884Y-59380776D01*
X74231635Y-58154933D01*
X73882724Y-56966651D01*
X73368254Y-55840119D01*
X72721694Y-54834053D01*
X73238696Y-54990287D01*
X73853328Y-55050168D01*
X74467831Y-54988990D01*
X75058592Y-54809103D01*
X75597373Y-54521118D01*
X75873543Y-54103148D01*
X75868456Y-54098061D01*
X90265000Y-54098061D01*
X90265000Y-54301939D01*
X90304774Y-54501898D01*
X90382795Y-54690256D01*
X90496063Y-54859774D01*
X90640226Y-55003937D01*
X90809744Y-55117205D01*
X90998102Y-55195226D01*
X91198061Y-55235000D01*
X91401939Y-55235000D01*
X91601898Y-55195226D01*
X91790256Y-55117205D01*
X91959774Y-55003937D01*
X92103937Y-54859774D01*
X92217205Y-54690256D01*
X92295226Y-54501898D01*
X92335000Y-54301939D01*
X92335000Y-54098061D01*
X92295226Y-53898102D01*
X92217205Y-53709744D01*
X92103937Y-53540226D01*
X91959774Y-53396063D01*
X91790256Y-53282795D01*
X91601898Y-53204774D01*
X91401939Y-53165000D01*
X91198061Y-53165000D01*
X90998102Y-53204774D01*
X90809744Y-53282795D01*
X90640226Y-53396063D01*
X90496063Y-53540226D01*
X90382795Y-53709744D01*
X90304774Y-53898102D01*
X90265000Y-54098061D01*
X75868456Y-54098061D01*
X73850000Y-52079605D01*
X73835858Y-52093748D01*
X73656253Y-51914143D01*
X73670395Y-51900000D01*
X74029605Y-51900000D01*
X76053148Y-53923543D01*
X76471118Y-53647373D01*
X76761649Y-53102443D01*
X76940287Y-52511304D01*
X77000168Y-51896672D01*
X76938990Y-51282169D01*
X76759103Y-50691408D01*
X76471118Y-50152627D01*
X76053148Y-49876457D01*
X74029605Y-51900000D01*
X73670395Y-51900000D01*
X71646852Y-49876457D01*
X71228882Y-50152627D01*
X70938351Y-50697557D01*
X70759713Y-51288696D01*
X70699832Y-51903328D01*
X70761010Y-52517831D01*
X70916572Y-53028707D01*
X69909881Y-52381746D01*
X68783349Y-51867276D01*
X67595067Y-51518365D01*
X66369224Y-51342116D01*
X65130776Y-51342116D01*
X63904933Y-51518365D01*
X62716651Y-51867276D01*
X61590119Y-52381746D01*
X60584053Y-53028306D01*
X60740287Y-52511304D01*
X60800168Y-51896672D01*
X60738990Y-51282169D01*
X60559103Y-50691408D01*
X60455757Y-50498061D01*
X61865000Y-50498061D01*
X61865000Y-50701939D01*
X61904774Y-50901898D01*
X61982795Y-51090256D01*
X62096063Y-51259774D01*
X62240226Y-51403937D01*
X62409744Y-51517205D01*
X62598102Y-51595226D01*
X62798061Y-51635000D01*
X63001939Y-51635000D01*
X63201898Y-51595226D01*
X63390256Y-51517205D01*
X63559774Y-51403937D01*
X63703937Y-51259774D01*
X63817205Y-51090256D01*
X63895226Y-50901898D01*
X63935000Y-50701939D01*
X63935000Y-50498061D01*
X63895226Y-50298102D01*
X63817205Y-50109744D01*
X63703937Y-49940226D01*
X63559774Y-49796063D01*
X63411294Y-49696852D01*
X71826457Y-49696852D01*
X73850000Y-51720395D01*
X75873543Y-49696852D01*
X75597373Y-49278882D01*
X75052443Y-48988351D01*
X74461304Y-48809713D01*
X73846672Y-48749832D01*
X73232169Y-48811010D01*
X72641408Y-48990897D01*
X72102627Y-49278882D01*
X71826457Y-49696852D01*
X63411294Y-49696852D01*
X63390256Y-49682795D01*
X63201898Y-49604774D01*
X63001939Y-49565000D01*
X62798061Y-49565000D01*
X62598102Y-49604774D01*
X62409744Y-49682795D01*
X62240226Y-49796063D01*
X62096063Y-49940226D01*
X61982795Y-50109744D01*
X61904774Y-50298102D01*
X61865000Y-50498061D01*
X60455757Y-50498061D01*
X60271118Y-50152627D01*
X59853148Y-49876457D01*
X57829605Y-51900000D01*
X57843748Y-51914143D01*
X57664143Y-52093748D01*
X57650000Y-52079605D01*
X55626457Y-54103148D01*
X46176984Y-54103148D01*
X46620132Y-53660000D01*
X47255752Y-53660000D01*
X47422499Y-53643577D01*
X47636447Y-53578676D01*
X47833623Y-53473284D01*
X48006449Y-53331449D01*
X48148284Y-53158623D01*
X48253676Y-52961447D01*
X48318577Y-52747499D01*
X48340491Y-52525000D01*
X48318577Y-52302501D01*
X48253676Y-52088553D01*
X48154672Y-51903328D01*
X54499832Y-51903328D01*
X54561010Y-52517831D01*
X54740897Y-53108592D01*
X55028882Y-53647373D01*
X55446852Y-53923543D01*
X57470395Y-51900000D01*
X55446852Y-49876457D01*
X55028882Y-50152627D01*
X54738351Y-50697557D01*
X54559713Y-51288696D01*
X54499832Y-51903328D01*
X48154672Y-51903328D01*
X48148284Y-51891377D01*
X48006449Y-51718551D01*
X47833623Y-51576716D01*
X47636447Y-51471324D01*
X47422499Y-51406423D01*
X47255752Y-51390000D01*
X46205752Y-51390000D01*
X46150000Y-51384509D01*
X45927501Y-51406423D01*
X45713553Y-51471324D01*
X45516377Y-51576716D01*
X45386856Y-51683011D01*
X45386854Y-51683013D01*
X45343551Y-51718551D01*
X45308013Y-51761854D01*
X44086864Y-52983005D01*
X44043551Y-53018551D01*
X43901716Y-53191377D01*
X43796325Y-53388553D01*
X43796324Y-53388554D01*
X43731423Y-53602502D01*
X43709509Y-53825000D01*
X43715000Y-53880752D01*
X43715001Y-56265000D01*
X43644248Y-56265000D01*
X43477501Y-56281423D01*
X43263553Y-56346324D01*
X43066377Y-56451716D01*
X42893551Y-56593551D01*
X42751716Y-56766377D01*
X42646324Y-56963553D01*
X42581423Y-57177501D01*
X42559509Y-57400000D01*
X42581423Y-57622499D01*
X42646324Y-57836447D01*
X42669552Y-57879903D01*
X42582795Y-58009744D01*
X42504774Y-58198102D01*
X42465000Y-58398061D01*
X39660000Y-58398061D01*
X39660000Y-54617150D01*
X39809744Y-54717205D01*
X39998102Y-54795226D01*
X40198061Y-54835000D01*
X40401939Y-54835000D01*
X40601898Y-54795226D01*
X40790256Y-54717205D01*
X40959774Y-54603937D01*
X41103937Y-54459774D01*
X41217205Y-54290256D01*
X41295226Y-54101898D01*
X41335000Y-53901939D01*
X41335000Y-53698061D01*
X41295226Y-53498102D01*
X41217205Y-53309744D01*
X41103937Y-53140226D01*
X40959774Y-52996063D01*
X40790256Y-52882795D01*
X40708171Y-52848794D01*
X40708171Y-52727944D01*
X40668397Y-52527985D01*
X40590376Y-52339627D01*
X40477108Y-52170109D01*
X40332945Y-52025946D01*
X40163427Y-51912678D01*
X39975069Y-51834657D01*
X39775110Y-51794883D01*
X39660000Y-51794883D01*
X39660000Y-49696852D01*
X55626457Y-49696852D01*
X57650000Y-51720395D01*
X59673543Y-49696852D01*
X59397373Y-49278882D01*
X58852443Y-48988351D01*
X58261304Y-48809713D01*
X57646672Y-48749832D01*
X57032169Y-48811010D01*
X56441408Y-48990897D01*
X55902627Y-49278882D01*
X55626457Y-49696852D01*
X39660000Y-49696852D01*
X39660000Y-48764801D01*
X40296735Y-48128066D01*
X53016992Y-48128066D01*
X53016992Y-48331944D01*
X53056766Y-48531903D01*
X53134787Y-48720261D01*
X53248055Y-48889779D01*
X53392218Y-49033942D01*
X53561736Y-49147210D01*
X53750094Y-49225231D01*
X53950053Y-49265005D01*
X54153931Y-49265005D01*
X54353890Y-49225231D01*
X54542248Y-49147210D01*
X54711766Y-49033942D01*
X54855929Y-48889779D01*
X54969197Y-48720261D01*
X55011596Y-48617901D01*
X55189238Y-48582566D01*
X55377596Y-48504545D01*
X55547114Y-48391277D01*
X55640334Y-48298057D01*
X61865000Y-48298057D01*
X61865000Y-48501935D01*
X61904774Y-48701894D01*
X61982795Y-48890252D01*
X62096063Y-49059770D01*
X62240226Y-49203933D01*
X62409744Y-49317201D01*
X62598102Y-49395222D01*
X62798061Y-49434996D01*
X63001939Y-49434996D01*
X63201898Y-49395222D01*
X63390256Y-49317201D01*
X63559774Y-49203933D01*
X63703937Y-49059770D01*
X63817205Y-48890252D01*
X63895226Y-48701894D01*
X63935000Y-48501935D01*
X63935000Y-48298057D01*
X63895226Y-48098098D01*
X63817205Y-47909740D01*
X63703937Y-47740222D01*
X63559774Y-47596059D01*
X63390256Y-47482791D01*
X63201898Y-47404770D01*
X63001939Y-47364996D01*
X62798061Y-47364996D01*
X62598102Y-47404770D01*
X62409744Y-47482791D01*
X62240226Y-47596059D01*
X62096063Y-47740222D01*
X61982795Y-47909740D01*
X61904774Y-48098098D01*
X61865000Y-48298057D01*
X55640334Y-48298057D01*
X55691277Y-48247114D01*
X55804545Y-48077596D01*
X55882566Y-47889238D01*
X55922340Y-47689279D01*
X55922340Y-47485401D01*
X55882566Y-47285442D01*
X55804545Y-47097084D01*
X55691277Y-46927566D01*
X55547114Y-46783403D01*
X55377596Y-46670135D01*
X55189238Y-46592114D01*
X54989279Y-46552340D01*
X54785401Y-46552340D01*
X54585442Y-46592114D01*
X54397084Y-46670135D01*
X54227566Y-46783403D01*
X54083403Y-46927566D01*
X53970135Y-47097084D01*
X53927736Y-47199444D01*
X53750094Y-47234779D01*
X53561736Y-47312800D01*
X53392218Y-47426068D01*
X53248055Y-47570231D01*
X53134787Y-47739749D01*
X53056766Y-47928107D01*
X53016992Y-48128066D01*
X40296735Y-48128066D01*
X42364802Y-46060000D01*
X47492462Y-46060000D01*
X47465000Y-46198061D01*
X47465000Y-46401939D01*
X47504774Y-46601898D01*
X47582795Y-46790256D01*
X47696063Y-46959774D01*
X47840226Y-47103937D01*
X48009744Y-47217205D01*
X48198102Y-47295226D01*
X48398061Y-47335000D01*
X48601939Y-47335000D01*
X48801898Y-47295226D01*
X48990256Y-47217205D01*
X49159774Y-47103937D01*
X49303937Y-46959774D01*
X49417205Y-46790256D01*
X49495226Y-46601898D01*
X49535000Y-46401939D01*
X49535000Y-46198061D01*
X49507538Y-46060000D01*
X61162678Y-46060000D01*
X61200000Y-46063676D01*
X61237322Y-46060000D01*
X61237333Y-46060000D01*
X61348986Y-46049003D01*
X61492247Y-46005546D01*
X61624276Y-45934974D01*
X61669254Y-45898061D01*
X66565000Y-45898061D01*
X66565000Y-46101939D01*
X66604774Y-46301898D01*
X66682795Y-46490256D01*
X66796063Y-46659774D01*
X66940226Y-46803937D01*
X67109744Y-46917205D01*
X67298102Y-46995226D01*
X67498061Y-47035000D01*
X67701939Y-47035000D01*
X67901898Y-46995226D01*
X68090256Y-46917205D01*
X68259774Y-46803937D01*
X68403937Y-46659774D01*
X68517205Y-46490256D01*
X68595226Y-46301898D01*
X68635000Y-46101939D01*
X68635000Y-45898061D01*
X68595226Y-45698102D01*
X68517205Y-45509744D01*
X68403937Y-45340226D01*
X68259774Y-45196063D01*
X68090256Y-45082795D01*
X67901898Y-45004774D01*
X67701939Y-44965000D01*
X67498061Y-44965000D01*
X67298102Y-45004774D01*
X67109744Y-45082795D01*
X66940226Y-45196063D01*
X66796063Y-45340226D01*
X66682795Y-45509744D01*
X66604774Y-45698102D01*
X66565000Y-45898061D01*
X61669254Y-45898061D01*
X61740001Y-45840001D01*
X61763804Y-45810997D01*
X63161004Y-44413798D01*
X63190001Y-44390001D01*
X63284974Y-44274276D01*
X63355546Y-44142247D01*
X63399003Y-43998986D01*
X63408942Y-43898069D01*
X67715000Y-43898069D01*
X67715000Y-44101947D01*
X67754774Y-44301906D01*
X67832795Y-44490264D01*
X67946063Y-44659782D01*
X68090226Y-44803945D01*
X68259744Y-44917213D01*
X68448102Y-44995234D01*
X68648061Y-45035008D01*
X68851939Y-45035008D01*
X69037685Y-44998061D01*
X81415000Y-44998061D01*
X81415000Y-45201939D01*
X81454774Y-45401898D01*
X81532795Y-45590256D01*
X81646063Y-45759774D01*
X81790226Y-45903937D01*
X81959744Y-46017205D01*
X82148102Y-46095226D01*
X82348061Y-46135000D01*
X82551939Y-46135000D01*
X82751898Y-46095226D01*
X82940256Y-46017205D01*
X83109774Y-45903937D01*
X83253937Y-45759774D01*
X83367205Y-45590256D01*
X83445226Y-45401898D01*
X83485000Y-45201939D01*
X83485000Y-44998061D01*
X83445226Y-44798102D01*
X83367205Y-44609744D01*
X83253937Y-44440226D01*
X83109774Y-44296063D01*
X82940256Y-44182795D01*
X82751898Y-44104774D01*
X82551939Y-44065000D01*
X82348061Y-44065000D01*
X82148102Y-44104774D01*
X81959744Y-44182795D01*
X81790226Y-44296063D01*
X81646063Y-44440226D01*
X81532795Y-44609744D01*
X81454774Y-44798102D01*
X81415000Y-44998061D01*
X69037685Y-44998061D01*
X69051898Y-44995234D01*
X69240256Y-44917213D01*
X69409774Y-44803945D01*
X69553937Y-44659782D01*
X69667205Y-44490264D01*
X69745226Y-44301906D01*
X69785000Y-44101947D01*
X69785000Y-43898069D01*
X69745226Y-43698110D01*
X69667205Y-43509752D01*
X69553937Y-43340234D01*
X69409774Y-43196071D01*
X69240256Y-43082803D01*
X69051898Y-43004782D01*
X68851939Y-42965008D01*
X68648061Y-42965008D01*
X68448102Y-43004782D01*
X68259744Y-43082803D01*
X68090226Y-43196071D01*
X67946063Y-43340234D01*
X67832795Y-43509752D01*
X67754774Y-43698110D01*
X67715000Y-43898069D01*
X63408942Y-43898069D01*
X63410000Y-43887333D01*
X63410000Y-43887325D01*
X63413676Y-43850000D01*
X63410000Y-43812675D01*
X63410000Y-42548178D01*
X63596632Y-42423475D01*
X63803475Y-42216632D01*
X63920000Y-42042240D01*
X64036525Y-42216632D01*
X64243368Y-42423475D01*
X64486589Y-42585990D01*
X64756842Y-42697932D01*
X65043740Y-42755000D01*
X65336260Y-42755000D01*
X65623158Y-42697932D01*
X65893411Y-42585990D01*
X66136632Y-42423475D01*
X66343475Y-42216632D01*
X66460000Y-42042240D01*
X66576525Y-42216632D01*
X66783368Y-42423475D01*
X67026589Y-42585990D01*
X67296842Y-42697932D01*
X67583740Y-42755000D01*
X67876260Y-42755000D01*
X68163158Y-42697932D01*
X68433411Y-42585990D01*
X68676632Y-42423475D01*
X68883475Y-42216632D01*
X69000000Y-42042240D01*
X69116525Y-42216632D01*
X69323368Y-42423475D01*
X69566589Y-42585990D01*
X69836842Y-42697932D01*
X70123740Y-42755000D01*
X70416260Y-42755000D01*
X70703158Y-42697932D01*
X70973411Y-42585990D01*
X71216632Y-42423475D01*
X71423475Y-42216632D01*
X71540000Y-42042240D01*
X71656525Y-42216632D01*
X71863368Y-42423475D01*
X72106589Y-42585990D01*
X72376842Y-42697932D01*
X72663740Y-42755000D01*
X72956260Y-42755000D01*
X73243158Y-42697932D01*
X73513411Y-42585990D01*
X73756632Y-42423475D01*
X73963475Y-42216632D01*
X74085195Y-42034466D01*
X74154822Y-42151355D01*
X74349731Y-42367588D01*
X74583080Y-42541641D01*
X74845901Y-42666825D01*
X74993110Y-42711476D01*
X75223000Y-42590155D01*
X75223000Y-41397000D01*
X75203000Y-41397000D01*
X75203000Y-41143000D01*
X75223000Y-41143000D01*
X75223000Y-41123000D01*
X75477000Y-41123000D01*
X75477000Y-41143000D01*
X75497000Y-41143000D01*
X75497000Y-41397000D01*
X75477000Y-41397000D01*
X75477000Y-42590155D01*
X75706890Y-42711476D01*
X75854099Y-42666825D01*
X76116920Y-42541641D01*
X76350269Y-42367588D01*
X76545178Y-42151355D01*
X76614805Y-42034466D01*
X76736525Y-42216632D01*
X76943368Y-42423475D01*
X77186589Y-42585990D01*
X77456842Y-42697932D01*
X77743740Y-42755000D01*
X78036260Y-42755000D01*
X78323158Y-42697932D01*
X78593411Y-42585990D01*
X78836632Y-42423475D01*
X79043475Y-42216632D01*
X79160000Y-42042240D01*
X79276525Y-42216632D01*
X79483368Y-42423475D01*
X79726589Y-42585990D01*
X79996842Y-42697932D01*
X80283740Y-42755000D01*
X80576260Y-42755000D01*
X80863158Y-42697932D01*
X81133411Y-42585990D01*
X81376632Y-42423475D01*
X81583475Y-42216632D01*
X81700000Y-42042240D01*
X81816525Y-42216632D01*
X82023368Y-42423475D01*
X82266589Y-42585990D01*
X82536842Y-42697932D01*
X82823740Y-42755000D01*
X83116260Y-42755000D01*
X83403158Y-42697932D01*
X83673411Y-42585990D01*
X83916632Y-42423475D01*
X84123475Y-42216632D01*
X84240000Y-42042240D01*
X84356525Y-42216632D01*
X84563368Y-42423475D01*
X84806589Y-42585990D01*
X85076842Y-42697932D01*
X85363740Y-42755000D01*
X85656260Y-42755000D01*
X85943158Y-42697932D01*
X86213411Y-42585990D01*
X86456632Y-42423475D01*
X86663475Y-42216632D01*
X86780000Y-42042240D01*
X86896525Y-42216632D01*
X87103368Y-42423475D01*
X87346589Y-42585990D01*
X87616842Y-42697932D01*
X87903740Y-42755000D01*
X88196260Y-42755000D01*
X88483158Y-42697932D01*
X88753411Y-42585990D01*
X88996632Y-42423475D01*
X89203475Y-42216632D01*
X89320000Y-42042240D01*
X89436525Y-42216632D01*
X89643368Y-42423475D01*
X89886589Y-42585990D01*
X90156842Y-42697932D01*
X90443740Y-42755000D01*
X90736260Y-42755000D01*
X91023158Y-42697932D01*
X91293411Y-42585990D01*
X91536632Y-42423475D01*
X91743475Y-42216632D01*
X91865195Y-42034466D01*
X91934822Y-42151355D01*
X92129731Y-42367588D01*
X92363080Y-42541641D01*
X92625901Y-42666825D01*
X92773110Y-42711476D01*
X93003000Y-42590155D01*
X93003000Y-41397000D01*
X93257000Y-41397000D01*
X93257000Y-42590155D01*
X93486890Y-42711476D01*
X93634099Y-42666825D01*
X93896920Y-42541641D01*
X94130269Y-42367588D01*
X94150292Y-42345374D01*
X95834231Y-42345374D01*
X96134411Y-42783828D01*
X96713356Y-43094296D01*
X97341746Y-43285852D01*
X97995431Y-43351134D01*
X98649293Y-43287634D01*
X99278203Y-43097792D01*
X99857992Y-42788904D01*
X99865589Y-42783828D01*
X100165769Y-42345374D01*
X98000000Y-40179605D01*
X95834231Y-42345374D01*
X94150292Y-42345374D01*
X94325178Y-42151355D01*
X94474157Y-41901252D01*
X94571481Y-41626891D01*
X94450814Y-41397000D01*
X93257000Y-41397000D01*
X93003000Y-41397000D01*
X92983000Y-41397000D01*
X92983000Y-41143000D01*
X93003000Y-41143000D01*
X93003000Y-41123000D01*
X93257000Y-41123000D01*
X93257000Y-41143000D01*
X94450814Y-41143000D01*
X94571481Y-40913109D01*
X94474157Y-40638748D01*
X94325178Y-40388645D01*
X94130269Y-40172412D01*
X93900594Y-40001100D01*
X93909078Y-39995431D01*
X94648866Y-39995431D01*
X94712366Y-40649293D01*
X94902208Y-41278203D01*
X95211096Y-41857992D01*
X95216172Y-41865589D01*
X95654626Y-42165769D01*
X97820395Y-40000000D01*
X95654626Y-37834231D01*
X95216172Y-38134411D01*
X94905704Y-38713356D01*
X94714148Y-39341746D01*
X94648866Y-39995431D01*
X93909078Y-39995431D01*
X94076632Y-39883475D01*
X94283475Y-39676632D01*
X94445990Y-39433411D01*
X94557932Y-39163158D01*
X94615000Y-38876260D01*
X94615000Y-38583740D01*
X94557932Y-38296842D01*
X94445990Y-38026589D01*
X94283475Y-37783368D01*
X94076632Y-37576525D01*
X93833411Y-37414010D01*
X93563158Y-37302068D01*
X93276260Y-37245000D01*
X92983740Y-37245000D01*
X92696842Y-37302068D01*
X92426589Y-37414010D01*
X92183368Y-37576525D01*
X91976525Y-37783368D01*
X91860000Y-37957760D01*
X91743475Y-37783368D01*
X91536632Y-37576525D01*
X91293411Y-37414010D01*
X91023158Y-37302068D01*
X90736260Y-37245000D01*
X90443740Y-37245000D01*
X90156842Y-37302068D01*
X89886589Y-37414010D01*
X89643368Y-37576525D01*
X89436525Y-37783368D01*
X89320000Y-37957760D01*
X89203475Y-37783368D01*
X88996632Y-37576525D01*
X88753411Y-37414010D01*
X88483158Y-37302068D01*
X88196260Y-37245000D01*
X87903740Y-37245000D01*
X87616842Y-37302068D01*
X87346589Y-37414010D01*
X87103368Y-37576525D01*
X86896525Y-37783368D01*
X86774805Y-37965534D01*
X86705178Y-37848645D01*
X86510269Y-37632412D01*
X86276920Y-37458359D01*
X86014099Y-37333175D01*
X85866890Y-37288524D01*
X85637000Y-37409845D01*
X85637000Y-38603000D01*
X85657000Y-38603000D01*
X85657000Y-38857000D01*
X85637000Y-38857000D01*
X85637000Y-38877000D01*
X85383000Y-38877000D01*
X85383000Y-38857000D01*
X85363000Y-38857000D01*
X85363000Y-38603000D01*
X85383000Y-38603000D01*
X85383000Y-37409845D01*
X85153110Y-37288524D01*
X85005901Y-37333175D01*
X84743080Y-37458359D01*
X84509731Y-37632412D01*
X84314822Y-37848645D01*
X84245195Y-37965534D01*
X84123475Y-37783368D01*
X83916632Y-37576525D01*
X83673411Y-37414010D01*
X83403158Y-37302068D01*
X83116260Y-37245000D01*
X82823740Y-37245000D01*
X82536842Y-37302068D01*
X82266589Y-37414010D01*
X82023368Y-37576525D01*
X81816525Y-37783368D01*
X81694805Y-37965534D01*
X81625178Y-37848645D01*
X81430269Y-37632412D01*
X81196920Y-37458359D01*
X80934099Y-37333175D01*
X80786890Y-37288524D01*
X80557000Y-37409845D01*
X80557000Y-38603000D01*
X80577000Y-38603000D01*
X80577000Y-38857000D01*
X80557000Y-38857000D01*
X80557000Y-38877000D01*
X80303000Y-38877000D01*
X80303000Y-38857000D01*
X80283000Y-38857000D01*
X80283000Y-38603000D01*
X80303000Y-38603000D01*
X80303000Y-37409845D01*
X80073110Y-37288524D01*
X79925901Y-37333175D01*
X79663080Y-37458359D01*
X79429731Y-37632412D01*
X79234822Y-37848645D01*
X79165195Y-37965534D01*
X79043475Y-37783368D01*
X78836632Y-37576525D01*
X78593411Y-37414010D01*
X78323158Y-37302068D01*
X78036260Y-37245000D01*
X77743740Y-37245000D01*
X77456842Y-37302068D01*
X77186589Y-37414010D01*
X76943368Y-37576525D01*
X76736525Y-37783368D01*
X76620000Y-37957760D01*
X76503475Y-37783368D01*
X76296632Y-37576525D01*
X76053411Y-37414010D01*
X75783158Y-37302068D01*
X75496260Y-37245000D01*
X75203740Y-37245000D01*
X74916842Y-37302068D01*
X74646589Y-37414010D01*
X74403368Y-37576525D01*
X74196525Y-37783368D01*
X74080000Y-37957760D01*
X73963475Y-37783368D01*
X73756632Y-37576525D01*
X73513411Y-37414010D01*
X73243158Y-37302068D01*
X72956260Y-37245000D01*
X72663740Y-37245000D01*
X72376842Y-37302068D01*
X72106589Y-37414010D01*
X71863368Y-37576525D01*
X71656525Y-37783368D01*
X71540000Y-37957760D01*
X71423475Y-37783368D01*
X71216632Y-37576525D01*
X70973411Y-37414010D01*
X70703158Y-37302068D01*
X70416260Y-37245000D01*
X70123740Y-37245000D01*
X69836842Y-37302068D01*
X69566589Y-37414010D01*
X69323368Y-37576525D01*
X69116525Y-37783368D01*
X68994805Y-37965534D01*
X68925178Y-37848645D01*
X68730269Y-37632412D01*
X68496920Y-37458359D01*
X68234099Y-37333175D01*
X68086890Y-37288524D01*
X67857000Y-37409845D01*
X67857000Y-38603000D01*
X67877000Y-38603000D01*
X67877000Y-38857000D01*
X67857000Y-38857000D01*
X67857000Y-38877000D01*
X67603000Y-38877000D01*
X67603000Y-38857000D01*
X67583000Y-38857000D01*
X67583000Y-38603000D01*
X67603000Y-38603000D01*
X67603000Y-37409845D01*
X67373110Y-37288524D01*
X67225901Y-37333175D01*
X66963080Y-37458359D01*
X66729731Y-37632412D01*
X66534822Y-37848645D01*
X66465195Y-37965534D01*
X66343475Y-37783368D01*
X66136632Y-37576525D01*
X65893411Y-37414010D01*
X65623158Y-37302068D01*
X65336260Y-37245000D01*
X65043740Y-37245000D01*
X64756842Y-37302068D01*
X64486589Y-37414010D01*
X64243368Y-37576525D01*
X64036525Y-37783368D01*
X63920000Y-37957760D01*
X63803475Y-37783368D01*
X63596632Y-37576525D01*
X63353411Y-37414010D01*
X63083158Y-37302068D01*
X62796260Y-37245000D01*
X62503740Y-37245000D01*
X62216842Y-37302068D01*
X61946589Y-37414010D01*
X61703368Y-37576525D01*
X61496525Y-37783368D01*
X61374805Y-37965534D01*
X61305178Y-37848645D01*
X61110269Y-37632412D01*
X60876920Y-37458359D01*
X60614099Y-37333175D01*
X60466890Y-37288524D01*
X60237000Y-37409845D01*
X60237000Y-38603000D01*
X60257000Y-38603000D01*
X60257000Y-38857000D01*
X60237000Y-38857000D01*
X60237000Y-38877000D01*
X59983000Y-38877000D01*
X59983000Y-38857000D01*
X59963000Y-38857000D01*
X59963000Y-38603000D01*
X59983000Y-38603000D01*
X59983000Y-37409845D01*
X59753110Y-37288524D01*
X59605901Y-37333175D01*
X59343080Y-37458359D01*
X59109731Y-37632412D01*
X58914822Y-37848645D01*
X58845195Y-37965534D01*
X58723475Y-37783368D01*
X58516632Y-37576525D01*
X58273411Y-37414010D01*
X58003158Y-37302068D01*
X57716260Y-37245000D01*
X57423740Y-37245000D01*
X57136842Y-37302068D01*
X56866589Y-37414010D01*
X56623368Y-37576525D01*
X56416525Y-37783368D01*
X56300000Y-37957760D01*
X56183475Y-37783368D01*
X55976632Y-37576525D01*
X55733411Y-37414010D01*
X55463158Y-37302068D01*
X55176260Y-37245000D01*
X54883740Y-37245000D01*
X54596842Y-37302068D01*
X54326589Y-37414010D01*
X54083368Y-37576525D01*
X53876525Y-37783368D01*
X53760000Y-37957760D01*
X53643475Y-37783368D01*
X53436632Y-37576525D01*
X53193411Y-37414010D01*
X52923158Y-37302068D01*
X52636260Y-37245000D01*
X52343740Y-37245000D01*
X52056842Y-37302068D01*
X51786589Y-37414010D01*
X51543368Y-37576525D01*
X51336525Y-37783368D01*
X51214805Y-37965534D01*
X51145178Y-37848645D01*
X50950269Y-37632412D01*
X50716920Y-37458359D01*
X50454099Y-37333175D01*
X50306890Y-37288524D01*
X50077000Y-37409845D01*
X50077000Y-38603000D01*
X50097000Y-38603000D01*
X50097000Y-38857000D01*
X50077000Y-38857000D01*
X50077000Y-38877000D01*
X49823000Y-38877000D01*
X49823000Y-38857000D01*
X49803000Y-38857000D01*
X49803000Y-38603000D01*
X49823000Y-38603000D01*
X49823000Y-37409845D01*
X49593110Y-37288524D01*
X49445901Y-37333175D01*
X49183080Y-37458359D01*
X48949731Y-37632412D01*
X48754822Y-37848645D01*
X48685195Y-37965534D01*
X48563475Y-37783368D01*
X48356632Y-37576525D01*
X48113411Y-37414010D01*
X47843158Y-37302068D01*
X47556260Y-37245000D01*
X47263740Y-37245000D01*
X46976842Y-37302068D01*
X46706589Y-37414010D01*
X46463368Y-37576525D01*
X46256525Y-37783368D01*
X46140000Y-37957760D01*
X46023475Y-37783368D01*
X45816632Y-37576525D01*
X45573411Y-37414010D01*
X45303158Y-37302068D01*
X45016260Y-37245000D01*
X44723740Y-37245000D01*
X44436842Y-37302068D01*
X44166589Y-37414010D01*
X43923368Y-37576525D01*
X43716525Y-37783368D01*
X43554010Y-38026589D01*
X43442068Y-38296842D01*
X43385000Y-38583740D01*
X43385000Y-38876260D01*
X43442068Y-39163158D01*
X43554010Y-39433411D01*
X43716525Y-39676632D01*
X43848380Y-39808487D01*
X43775820Y-39830498D01*
X43665506Y-39889463D01*
X43568815Y-39968815D01*
X43489463Y-40065506D01*
X43430498Y-40175820D01*
X43394188Y-40295518D01*
X43381928Y-40420000D01*
X43381928Y-42120000D01*
X43394188Y-42244482D01*
X43430498Y-42364180D01*
X43489463Y-42474494D01*
X43568815Y-42571185D01*
X43665506Y-42650537D01*
X43775820Y-42709502D01*
X43895518Y-42745812D01*
X44020000Y-42758072D01*
X45720000Y-42758072D01*
X45844482Y-42745812D01*
X45964180Y-42709502D01*
X46074494Y-42650537D01*
X46171185Y-42571185D01*
X46250537Y-42474494D01*
X46309502Y-42364180D01*
X46331513Y-42291620D01*
X46463368Y-42423475D01*
X46706589Y-42585990D01*
X46976842Y-42697932D01*
X47263740Y-42755000D01*
X47556260Y-42755000D01*
X47843158Y-42697932D01*
X48113411Y-42585990D01*
X48356632Y-42423475D01*
X48563475Y-42216632D01*
X48680000Y-42042240D01*
X48796525Y-42216632D01*
X49003368Y-42423475D01*
X49246589Y-42585990D01*
X49516842Y-42697932D01*
X49803740Y-42755000D01*
X50096260Y-42755000D01*
X50383158Y-42697932D01*
X50653411Y-42585990D01*
X50896632Y-42423475D01*
X51103475Y-42216632D01*
X51220000Y-42042240D01*
X51336525Y-42216632D01*
X51543368Y-42423475D01*
X51786589Y-42585990D01*
X52056842Y-42697932D01*
X52343740Y-42755000D01*
X52636260Y-42755000D01*
X52923158Y-42697932D01*
X53193411Y-42585990D01*
X53436632Y-42423475D01*
X53643475Y-42216632D01*
X53765195Y-42034466D01*
X53834822Y-42151355D01*
X54029731Y-42367588D01*
X54263080Y-42541641D01*
X54525901Y-42666825D01*
X54673110Y-42711476D01*
X54903000Y-42590155D01*
X54903000Y-41397000D01*
X54883000Y-41397000D01*
X54883000Y-41143000D01*
X54903000Y-41143000D01*
X54903000Y-41123000D01*
X55157000Y-41123000D01*
X55157000Y-41143000D01*
X55177000Y-41143000D01*
X55177000Y-41397000D01*
X55157000Y-41397000D01*
X55157000Y-42590155D01*
X55386890Y-42711476D01*
X55534099Y-42666825D01*
X55796920Y-42541641D01*
X56030269Y-42367588D01*
X56225178Y-42151355D01*
X56294805Y-42034466D01*
X56416525Y-42216632D01*
X56623368Y-42423475D01*
X56810000Y-42548179D01*
X56810000Y-43240000D01*
X40807095Y-43240000D01*
X41278203Y-43097792D01*
X41857992Y-42788904D01*
X41865589Y-42783828D01*
X42165769Y-42345374D01*
X40000000Y-40179605D01*
X37834231Y-42345374D01*
X38134411Y-42783828D01*
X38713356Y-43094296D01*
X39341746Y-43285852D01*
X39995431Y-43351134D01*
X40369717Y-43314785D01*
X40275724Y-43365026D01*
X40275722Y-43365027D01*
X40275723Y-43365027D01*
X40188996Y-43436201D01*
X40188992Y-43436205D01*
X40159999Y-43459999D01*
X40136205Y-43488992D01*
X37160000Y-46465199D01*
X37160000Y-41762084D01*
X37211096Y-41857992D01*
X37216172Y-41865589D01*
X37654626Y-42165769D01*
X39820395Y-40000000D01*
X40179605Y-40000000D01*
X42345374Y-42165769D01*
X42783828Y-41865589D01*
X43094296Y-41286644D01*
X43285852Y-40658254D01*
X43351134Y-40004569D01*
X43287634Y-39350707D01*
X43097792Y-38721797D01*
X42788904Y-38142008D01*
X42783828Y-38134411D01*
X42345374Y-37834231D01*
X40179605Y-40000000D01*
X39820395Y-40000000D01*
X39806253Y-39985858D01*
X39985858Y-39806253D01*
X40000000Y-39820395D01*
X42165769Y-37654626D01*
X41865589Y-37216172D01*
X41760842Y-37160000D01*
X96237916Y-37160000D01*
X96142008Y-37211096D01*
%TD*%
M02*
