%TF.GenerationSoftware,KiCad,Pcbnew,5.1.6*%
%TF.CreationDate,2020-09-14T14:33:22+02:00*%
%TF.ProjectId,pi-shield,70692d73-6869-4656-9c64-2e6b69636164,rev?*%
%TF.SameCoordinates,Original*%
%TF.FileFunction,Legend,Top*%
%TF.FilePolarity,Positive*%
%FSLAX46Y46*%
G04 Gerber Fmt 4.6, Leading zero omitted, Abs format (unit mm)*
G04 Created by KiCad (PCBNEW 5.1.6) date 2020-09-14 14:33:22*
%MOMM*%
%LPD*%
G01*
G04 APERTURE LIST*
%ADD10C,0.150000*%
%ADD11C,0.120000*%
G04 APERTURE END LIST*
D10*
X86604761Y-54277380D02*
X86795238Y-54277380D01*
X86890476Y-54325000D01*
X86985714Y-54420238D01*
X87033333Y-54610714D01*
X87033333Y-54944047D01*
X86985714Y-55134523D01*
X86890476Y-55229761D01*
X86795238Y-55277380D01*
X86604761Y-55277380D01*
X86509523Y-55229761D01*
X86414285Y-55134523D01*
X86366666Y-54944047D01*
X86366666Y-54610714D01*
X86414285Y-54420238D01*
X86509523Y-54325000D01*
X86604761Y-54277380D01*
X87009523Y-60132142D02*
X86961904Y-60179761D01*
X86819047Y-60227380D01*
X86723809Y-60227380D01*
X86580952Y-60179761D01*
X86485714Y-60084523D01*
X86438095Y-59989285D01*
X86390476Y-59798809D01*
X86390476Y-59655952D01*
X86438095Y-59465476D01*
X86485714Y-59370238D01*
X86580952Y-59275000D01*
X86723809Y-59227380D01*
X86819047Y-59227380D01*
X86961904Y-59275000D01*
X87009523Y-59322619D01*
X82580952Y-49727380D02*
X82247619Y-49251190D01*
X82009523Y-49727380D02*
X82009523Y-48727380D01*
X82390476Y-48727380D01*
X82485714Y-48775000D01*
X82533333Y-48822619D01*
X82580952Y-48917857D01*
X82580952Y-49060714D01*
X82533333Y-49155952D01*
X82485714Y-49203571D01*
X82390476Y-49251190D01*
X82009523Y-49251190D01*
X83200000Y-48727380D02*
X83390476Y-48727380D01*
X83485714Y-48775000D01*
X83580952Y-48870238D01*
X83628571Y-49060714D01*
X83628571Y-49394047D01*
X83580952Y-49584523D01*
X83485714Y-49679761D01*
X83390476Y-49727380D01*
X83200000Y-49727380D01*
X83104761Y-49679761D01*
X83009523Y-49584523D01*
X82961904Y-49394047D01*
X82961904Y-49060714D01*
X83009523Y-48870238D01*
X83104761Y-48775000D01*
X83200000Y-48727380D01*
X84390476Y-49203571D02*
X84533333Y-49251190D01*
X84580952Y-49298809D01*
X84628571Y-49394047D01*
X84628571Y-49536904D01*
X84580952Y-49632142D01*
X84533333Y-49679761D01*
X84438095Y-49727380D01*
X84057142Y-49727380D01*
X84057142Y-48727380D01*
X84390476Y-48727380D01*
X84485714Y-48775000D01*
X84533333Y-48822619D01*
X84580952Y-48917857D01*
X84580952Y-49013095D01*
X84533333Y-49108333D01*
X84485714Y-49155952D01*
X84390476Y-49203571D01*
X84057142Y-49203571D01*
X85247619Y-48727380D02*
X85438095Y-48727380D01*
X85533333Y-48775000D01*
X85628571Y-48870238D01*
X85676190Y-49060714D01*
X85676190Y-49394047D01*
X85628571Y-49584523D01*
X85533333Y-49679761D01*
X85438095Y-49727380D01*
X85247619Y-49727380D01*
X85152380Y-49679761D01*
X85057142Y-49584523D01*
X85009523Y-49394047D01*
X85009523Y-49060714D01*
X85057142Y-48870238D01*
X85152380Y-48775000D01*
X85247619Y-48727380D01*
X85961904Y-48727380D02*
X86533333Y-48727380D01*
X86247619Y-49727380D02*
X86247619Y-48727380D01*
X81723809Y-51329761D02*
X81866666Y-51377380D01*
X82104761Y-51377380D01*
X82200000Y-51329761D01*
X82247619Y-51282142D01*
X82295238Y-51186904D01*
X82295238Y-51091666D01*
X82247619Y-50996428D01*
X82200000Y-50948809D01*
X82104761Y-50901190D01*
X81914285Y-50853571D01*
X81819047Y-50805952D01*
X81771428Y-50758333D01*
X81723809Y-50663095D01*
X81723809Y-50567857D01*
X81771428Y-50472619D01*
X81819047Y-50425000D01*
X81914285Y-50377380D01*
X82152380Y-50377380D01*
X82295238Y-50425000D01*
X82723809Y-50853571D02*
X83057142Y-50853571D01*
X83200000Y-51377380D02*
X82723809Y-51377380D01*
X82723809Y-50377380D01*
X83200000Y-50377380D01*
X84104761Y-51377380D02*
X83628571Y-51377380D01*
X83628571Y-50377380D01*
X84438095Y-50853571D02*
X84771428Y-50853571D01*
X84914285Y-51377380D02*
X84438095Y-51377380D01*
X84438095Y-50377380D01*
X84914285Y-50377380D01*
X85914285Y-51282142D02*
X85866666Y-51329761D01*
X85723809Y-51377380D01*
X85628571Y-51377380D01*
X85485714Y-51329761D01*
X85390476Y-51234523D01*
X85342857Y-51139285D01*
X85295238Y-50948809D01*
X85295238Y-50805952D01*
X85342857Y-50615476D01*
X85390476Y-50520238D01*
X85485714Y-50425000D01*
X85628571Y-50377380D01*
X85723809Y-50377380D01*
X85866666Y-50425000D01*
X85914285Y-50472619D01*
X86200000Y-50377380D02*
X86771428Y-50377380D01*
X86485714Y-51377380D02*
X86485714Y-50377380D01*
D11*
X55750000Y-55000000D02*
X55750000Y-65000000D01*
X75750000Y-55000000D02*
X75750000Y-65000000D01*
X60750000Y-70000000D02*
X70750000Y-70000000D01*
X60750000Y-50000000D02*
X70750000Y-50000000D01*
D10*
X83178571Y-66709523D02*
X83178571Y-67042857D01*
X83702380Y-67042857D02*
X82702380Y-67042857D01*
X82702380Y-66566666D01*
X83416666Y-66233333D02*
X83416666Y-65757142D01*
X83702380Y-66328571D02*
X82702380Y-65995238D01*
X83702380Y-65661904D01*
X83702380Y-65328571D02*
X82702380Y-65328571D01*
X83702380Y-64757142D01*
X82702380Y-64757142D01*
X62409523Y-44802380D02*
X62409523Y-43802380D01*
X62790476Y-43802380D01*
X62885714Y-43850000D01*
X62933333Y-43897619D01*
X62980952Y-43992857D01*
X62980952Y-44135714D01*
X62933333Y-44230952D01*
X62885714Y-44278571D01*
X62790476Y-44326190D01*
X62409523Y-44326190D01*
X63409523Y-44802380D02*
X63409523Y-44135714D01*
X63409523Y-43802380D02*
X63361904Y-43850000D01*
X63409523Y-43897619D01*
X63457142Y-43850000D01*
X63409523Y-43802380D01*
X63409523Y-43897619D01*
X64600000Y-44754761D02*
X64742857Y-44802380D01*
X64980952Y-44802380D01*
X65076190Y-44754761D01*
X65123809Y-44707142D01*
X65171428Y-44611904D01*
X65171428Y-44516666D01*
X65123809Y-44421428D01*
X65076190Y-44373809D01*
X64980952Y-44326190D01*
X64790476Y-44278571D01*
X64695238Y-44230952D01*
X64647619Y-44183333D01*
X64600000Y-44088095D01*
X64600000Y-43992857D01*
X64647619Y-43897619D01*
X64695238Y-43850000D01*
X64790476Y-43802380D01*
X65028571Y-43802380D01*
X65171428Y-43850000D01*
X65600000Y-44802380D02*
X65600000Y-43802380D01*
X66028571Y-44802380D02*
X66028571Y-44278571D01*
X65980952Y-44183333D01*
X65885714Y-44135714D01*
X65742857Y-44135714D01*
X65647619Y-44183333D01*
X65600000Y-44230952D01*
X66504761Y-44802380D02*
X66504761Y-44135714D01*
X66504761Y-43802380D02*
X66457142Y-43850000D01*
X66504761Y-43897619D01*
X66552380Y-43850000D01*
X66504761Y-43802380D01*
X66504761Y-43897619D01*
X67361904Y-44754761D02*
X67266666Y-44802380D01*
X67076190Y-44802380D01*
X66980952Y-44754761D01*
X66933333Y-44659523D01*
X66933333Y-44278571D01*
X66980952Y-44183333D01*
X67076190Y-44135714D01*
X67266666Y-44135714D01*
X67361904Y-44183333D01*
X67409523Y-44278571D01*
X67409523Y-44373809D01*
X66933333Y-44469047D01*
X67980952Y-44802380D02*
X67885714Y-44754761D01*
X67838095Y-44659523D01*
X67838095Y-43802380D01*
X68790476Y-44802380D02*
X68790476Y-43802380D01*
X68790476Y-44754761D02*
X68695238Y-44802380D01*
X68504761Y-44802380D01*
X68409523Y-44754761D01*
X68361904Y-44707142D01*
X68314285Y-44611904D01*
X68314285Y-44326190D01*
X68361904Y-44230952D01*
X68409523Y-44183333D01*
X68504761Y-44135714D01*
X68695238Y-44135714D01*
X68790476Y-44183333D01*
X52123809Y-46166666D02*
X52600000Y-46166666D01*
X52028571Y-46452380D02*
X52361904Y-45452380D01*
X52695238Y-46452380D01*
X53028571Y-45785714D02*
X53028571Y-46452380D01*
X53028571Y-45880952D02*
X53076190Y-45833333D01*
X53171428Y-45785714D01*
X53314285Y-45785714D01*
X53409523Y-45833333D01*
X53457142Y-45928571D01*
X53457142Y-46452380D01*
X53790476Y-45785714D02*
X54171428Y-45785714D01*
X53933333Y-45452380D02*
X53933333Y-46309523D01*
X53980952Y-46404761D01*
X54076190Y-46452380D01*
X54171428Y-46452380D01*
X54647619Y-46452380D02*
X54552380Y-46404761D01*
X54504761Y-46357142D01*
X54457142Y-46261904D01*
X54457142Y-45976190D01*
X54504761Y-45880952D01*
X54552380Y-45833333D01*
X54647619Y-45785714D01*
X54790476Y-45785714D01*
X54885714Y-45833333D01*
X54933333Y-45880952D01*
X54980952Y-45976190D01*
X54980952Y-46261904D01*
X54933333Y-46357142D01*
X54885714Y-46404761D01*
X54790476Y-46452380D01*
X54647619Y-46452380D01*
X55409523Y-46452380D02*
X55409523Y-45785714D01*
X55409523Y-45452380D02*
X55361904Y-45500000D01*
X55409523Y-45547619D01*
X55457142Y-45500000D01*
X55409523Y-45452380D01*
X55409523Y-45547619D01*
X55885714Y-45785714D02*
X55885714Y-46452380D01*
X55885714Y-45880952D02*
X55933333Y-45833333D01*
X56028571Y-45785714D01*
X56171428Y-45785714D01*
X56266666Y-45833333D01*
X56314285Y-45928571D01*
X56314285Y-46452380D01*
X57171428Y-46404761D02*
X57076190Y-46452380D01*
X56885714Y-46452380D01*
X56790476Y-46404761D01*
X56742857Y-46309523D01*
X56742857Y-45928571D01*
X56790476Y-45833333D01*
X56885714Y-45785714D01*
X57076190Y-45785714D01*
X57171428Y-45833333D01*
X57219047Y-45928571D01*
X57219047Y-46023809D01*
X56742857Y-46119047D01*
X58361904Y-46166666D02*
X58838095Y-46166666D01*
X58266666Y-46452380D02*
X58600000Y-45452380D01*
X58933333Y-46452380D01*
X59409523Y-46452380D02*
X59314285Y-46404761D01*
X59266666Y-46309523D01*
X59266666Y-45452380D01*
X59790476Y-46452380D02*
X59790476Y-45452380D01*
X59790476Y-45833333D02*
X59885714Y-45785714D01*
X60076190Y-45785714D01*
X60171428Y-45833333D01*
X60219047Y-45880952D01*
X60266666Y-45976190D01*
X60266666Y-46261904D01*
X60219047Y-46357142D01*
X60171428Y-46404761D01*
X60076190Y-46452380D01*
X59885714Y-46452380D01*
X59790476Y-46404761D01*
X61076190Y-46404761D02*
X60980952Y-46452380D01*
X60790476Y-46452380D01*
X60695238Y-46404761D01*
X60647619Y-46309523D01*
X60647619Y-45928571D01*
X60695238Y-45833333D01*
X60790476Y-45785714D01*
X60980952Y-45785714D01*
X61076190Y-45833333D01*
X61123809Y-45928571D01*
X61123809Y-46023809D01*
X60647619Y-46119047D01*
X61552380Y-46452380D02*
X61552380Y-45785714D01*
X61552380Y-45976190D02*
X61600000Y-45880952D01*
X61647619Y-45833333D01*
X61742857Y-45785714D01*
X61838095Y-45785714D01*
X62028571Y-45785714D02*
X62409523Y-45785714D01*
X62171428Y-45452380D02*
X62171428Y-46309523D01*
X62219047Y-46404761D01*
X62314285Y-46452380D01*
X62409523Y-46452380D01*
X63123809Y-46404761D02*
X63028571Y-46452380D01*
X62838095Y-46452380D01*
X62742857Y-46404761D01*
X62695238Y-46309523D01*
X62695238Y-45928571D01*
X62742857Y-45833333D01*
X62838095Y-45785714D01*
X63028571Y-45785714D01*
X63123809Y-45833333D01*
X63171428Y-45928571D01*
X63171428Y-46023809D01*
X62695238Y-46119047D01*
X63742857Y-46452380D02*
X63647619Y-46404761D01*
X63600000Y-46309523D01*
X63600000Y-45452380D01*
X64266666Y-46452380D02*
X64171428Y-46404761D01*
X64123809Y-46309523D01*
X64123809Y-45452380D01*
X64647619Y-46452380D02*
X64647619Y-45785714D01*
X64647619Y-45452380D02*
X64600000Y-45500000D01*
X64647619Y-45547619D01*
X64695238Y-45500000D01*
X64647619Y-45452380D01*
X64647619Y-45547619D01*
X66695238Y-46452380D02*
X66647619Y-46452380D01*
X66552380Y-46404761D01*
X66409523Y-46261904D01*
X66171428Y-45976190D01*
X66076190Y-45833333D01*
X66028571Y-45690476D01*
X66028571Y-45595238D01*
X66076190Y-45500000D01*
X66171428Y-45452380D01*
X66219047Y-45452380D01*
X66314285Y-45500000D01*
X66361904Y-45595238D01*
X66361904Y-45642857D01*
X66314285Y-45738095D01*
X66266666Y-45785714D01*
X65980952Y-45976190D01*
X65933333Y-46023809D01*
X65885714Y-46119047D01*
X65885714Y-46261904D01*
X65933333Y-46357142D01*
X65980952Y-46404761D01*
X66076190Y-46452380D01*
X66219047Y-46452380D01*
X66314285Y-46404761D01*
X66361904Y-46357142D01*
X66504761Y-46166666D01*
X66552380Y-46023809D01*
X66552380Y-45928571D01*
X67885714Y-46452380D02*
X67885714Y-45452380D01*
X68219047Y-46166666D01*
X68552380Y-45452380D01*
X68552380Y-46452380D01*
X69028571Y-46452380D02*
X69028571Y-45785714D01*
X69028571Y-45452380D02*
X68980952Y-45500000D01*
X69028571Y-45547619D01*
X69076190Y-45500000D01*
X69028571Y-45452380D01*
X69028571Y-45547619D01*
X69933333Y-46404761D02*
X69838095Y-46452380D01*
X69647619Y-46452380D01*
X69552380Y-46404761D01*
X69504761Y-46357142D01*
X69457142Y-46261904D01*
X69457142Y-45976190D01*
X69504761Y-45880952D01*
X69552380Y-45833333D01*
X69647619Y-45785714D01*
X69838095Y-45785714D01*
X69933333Y-45833333D01*
X70361904Y-46452380D02*
X70361904Y-45452380D01*
X70790476Y-46452380D02*
X70790476Y-45928571D01*
X70742857Y-45833333D01*
X70647619Y-45785714D01*
X70504761Y-45785714D01*
X70409523Y-45833333D01*
X70361904Y-45880952D01*
X71695238Y-46452380D02*
X71695238Y-45928571D01*
X71647619Y-45833333D01*
X71552380Y-45785714D01*
X71361904Y-45785714D01*
X71266666Y-45833333D01*
X71695238Y-46404761D02*
X71600000Y-46452380D01*
X71361904Y-46452380D01*
X71266666Y-46404761D01*
X71219047Y-46309523D01*
X71219047Y-46214285D01*
X71266666Y-46119047D01*
X71361904Y-46071428D01*
X71600000Y-46071428D01*
X71695238Y-46023809D01*
X72552380Y-46404761D02*
X72457142Y-46452380D01*
X72266666Y-46452380D01*
X72171428Y-46404761D01*
X72123809Y-46309523D01*
X72123809Y-45928571D01*
X72171428Y-45833333D01*
X72266666Y-45785714D01*
X72457142Y-45785714D01*
X72552380Y-45833333D01*
X72600000Y-45928571D01*
X72600000Y-46023809D01*
X72123809Y-46119047D01*
X73171428Y-46452380D02*
X73076190Y-46404761D01*
X73028571Y-46309523D01*
X73028571Y-45452380D01*
X74266666Y-46404761D02*
X74409523Y-46452380D01*
X74647619Y-46452380D01*
X74742857Y-46404761D01*
X74790476Y-46357142D01*
X74838095Y-46261904D01*
X74838095Y-46166666D01*
X74790476Y-46071428D01*
X74742857Y-46023809D01*
X74647619Y-45976190D01*
X74457142Y-45928571D01*
X74361904Y-45880952D01*
X74314285Y-45833333D01*
X74266666Y-45738095D01*
X74266666Y-45642857D01*
X74314285Y-45547619D01*
X74361904Y-45500000D01*
X74457142Y-45452380D01*
X74695238Y-45452380D01*
X74838095Y-45500000D01*
X75266666Y-45785714D02*
X75266666Y-46785714D01*
X75266666Y-45833333D02*
X75361904Y-45785714D01*
X75552380Y-45785714D01*
X75647619Y-45833333D01*
X75695238Y-45880952D01*
X75742857Y-45976190D01*
X75742857Y-46261904D01*
X75695238Y-46357142D01*
X75647619Y-46404761D01*
X75552380Y-46452380D01*
X75361904Y-46452380D01*
X75266666Y-46404761D01*
X76171428Y-46452380D02*
X76171428Y-45785714D01*
X76171428Y-45452380D02*
X76123809Y-45500000D01*
X76171428Y-45547619D01*
X76219047Y-45500000D01*
X76171428Y-45452380D01*
X76171428Y-45547619D01*
X77028571Y-46404761D02*
X76933333Y-46452380D01*
X76742857Y-46452380D01*
X76647619Y-46404761D01*
X76600000Y-46309523D01*
X76600000Y-45928571D01*
X76647619Y-45833333D01*
X76742857Y-45785714D01*
X76933333Y-45785714D01*
X77028571Y-45833333D01*
X77076190Y-45928571D01*
X77076190Y-46023809D01*
X76600000Y-46119047D01*
X77647619Y-46452380D02*
X77552380Y-46404761D01*
X77504761Y-46309523D01*
X77504761Y-45452380D01*
X78409523Y-46404761D02*
X78314285Y-46452380D01*
X78123809Y-46452380D01*
X78028571Y-46404761D01*
X77980952Y-46309523D01*
X77980952Y-45928571D01*
X78028571Y-45833333D01*
X78123809Y-45785714D01*
X78314285Y-45785714D01*
X78409523Y-45833333D01*
X78457142Y-45928571D01*
X78457142Y-46023809D01*
X77980952Y-46119047D01*
X78885714Y-46452380D02*
X78885714Y-45785714D01*
X78885714Y-45976190D02*
X78933333Y-45880952D01*
X78980952Y-45833333D01*
X79076190Y-45785714D01*
X79171428Y-45785714D01*
X62004761Y-48102380D02*
X61671428Y-47626190D01*
X61433333Y-48102380D02*
X61433333Y-47102380D01*
X61814285Y-47102380D01*
X61909523Y-47150000D01*
X61957142Y-47197619D01*
X62004761Y-47292857D01*
X62004761Y-47435714D01*
X61957142Y-47530952D01*
X61909523Y-47578571D01*
X61814285Y-47626190D01*
X61433333Y-47626190D01*
X62814285Y-48054761D02*
X62719047Y-48102380D01*
X62528571Y-48102380D01*
X62433333Y-48054761D01*
X62385714Y-47959523D01*
X62385714Y-47578571D01*
X62433333Y-47483333D01*
X62528571Y-47435714D01*
X62719047Y-47435714D01*
X62814285Y-47483333D01*
X62861904Y-47578571D01*
X62861904Y-47673809D01*
X62385714Y-47769047D01*
X63195238Y-47435714D02*
X63433333Y-48102380D01*
X63671428Y-47435714D01*
X64766666Y-47816666D02*
X65242857Y-47816666D01*
X64671428Y-48102380D02*
X65004761Y-47102380D01*
X65338095Y-48102380D01*
X66385714Y-47197619D02*
X66433333Y-47150000D01*
X66528571Y-47102380D01*
X66766666Y-47102380D01*
X66861904Y-47150000D01*
X66909523Y-47197619D01*
X66957142Y-47292857D01*
X66957142Y-47388095D01*
X66909523Y-47530952D01*
X66338095Y-48102380D01*
X66957142Y-48102380D01*
X67576190Y-47102380D02*
X67671428Y-47102380D01*
X67766666Y-47150000D01*
X67814285Y-47197619D01*
X67861904Y-47292857D01*
X67909523Y-47483333D01*
X67909523Y-47721428D01*
X67861904Y-47911904D01*
X67814285Y-48007142D01*
X67766666Y-48054761D01*
X67671428Y-48102380D01*
X67576190Y-48102380D01*
X67480952Y-48054761D01*
X67433333Y-48007142D01*
X67385714Y-47911904D01*
X67338095Y-47721428D01*
X67338095Y-47483333D01*
X67385714Y-47292857D01*
X67433333Y-47197619D01*
X67480952Y-47150000D01*
X67576190Y-47102380D01*
X68290476Y-47197619D02*
X68338095Y-47150000D01*
X68433333Y-47102380D01*
X68671428Y-47102380D01*
X68766666Y-47150000D01*
X68814285Y-47197619D01*
X68861904Y-47292857D01*
X68861904Y-47388095D01*
X68814285Y-47530952D01*
X68242857Y-48102380D01*
X68861904Y-48102380D01*
X69480952Y-47102380D02*
X69576190Y-47102380D01*
X69671428Y-47150000D01*
X69719047Y-47197619D01*
X69766666Y-47292857D01*
X69814285Y-47483333D01*
X69814285Y-47721428D01*
X69766666Y-47911904D01*
X69719047Y-48007142D01*
X69671428Y-48054761D01*
X69576190Y-48102380D01*
X69480952Y-48102380D01*
X69385714Y-48054761D01*
X69338095Y-48007142D01*
X69290476Y-47911904D01*
X69242857Y-47721428D01*
X69242857Y-47483333D01*
X69290476Y-47292857D01*
X69338095Y-47197619D01*
X69385714Y-47150000D01*
X69480952Y-47102380D01*
X44607142Y-54642857D02*
X44654761Y-54690476D01*
X44702380Y-54833333D01*
X44702380Y-54928571D01*
X44654761Y-55071428D01*
X44559523Y-55166666D01*
X44464285Y-55214285D01*
X44273809Y-55261904D01*
X44130952Y-55261904D01*
X43940476Y-55214285D01*
X43845238Y-55166666D01*
X43750000Y-55071428D01*
X43702380Y-54928571D01*
X43702380Y-54833333D01*
X43750000Y-54690476D01*
X43797619Y-54642857D01*
X44416666Y-54261904D02*
X44416666Y-53785714D01*
X44702380Y-54357142D02*
X43702380Y-54023809D01*
X44702380Y-53690476D01*
X44702380Y-53357142D02*
X43702380Y-53357142D01*
X44702380Y-52785714D01*
X43702380Y-52785714D01*
X52107142Y-54642857D02*
X52154761Y-54690476D01*
X52202380Y-54833333D01*
X52202380Y-54928571D01*
X52154761Y-55071428D01*
X52059523Y-55166666D01*
X51964285Y-55214285D01*
X51773809Y-55261904D01*
X51630952Y-55261904D01*
X51440476Y-55214285D01*
X51345238Y-55166666D01*
X51250000Y-55071428D01*
X51202380Y-54928571D01*
X51202380Y-54833333D01*
X51250000Y-54690476D01*
X51297619Y-54642857D01*
X51916666Y-54261904D02*
X51916666Y-53785714D01*
X52202380Y-54357142D02*
X51202380Y-54023809D01*
X52202380Y-53690476D01*
X52202380Y-53357142D02*
X51202380Y-53357142D01*
X52202380Y-52785714D01*
X51202380Y-52785714D01*
X52107142Y-66292857D02*
X52154761Y-66340476D01*
X52202380Y-66483333D01*
X52202380Y-66578571D01*
X52154761Y-66721428D01*
X52059523Y-66816666D01*
X51964285Y-66864285D01*
X51773809Y-66911904D01*
X51630952Y-66911904D01*
X51440476Y-66864285D01*
X51345238Y-66816666D01*
X51250000Y-66721428D01*
X51202380Y-66578571D01*
X51202380Y-66483333D01*
X51250000Y-66340476D01*
X51297619Y-66292857D01*
X51916666Y-65911904D02*
X51916666Y-65435714D01*
X52202380Y-66007142D02*
X51202380Y-65673809D01*
X52202380Y-65340476D01*
X52202380Y-65007142D02*
X51202380Y-65007142D01*
X52202380Y-64435714D01*
X51202380Y-64435714D01*
X43702380Y-67245238D02*
X44511904Y-67245238D01*
X44607142Y-67197619D01*
X44654761Y-67150000D01*
X44702380Y-67054761D01*
X44702380Y-66864285D01*
X44654761Y-66769047D01*
X44607142Y-66721428D01*
X44511904Y-66673809D01*
X43702380Y-66673809D01*
X44416666Y-66245238D02*
X44416666Y-65769047D01*
X44702380Y-66340476D02*
X43702380Y-66007142D01*
X44702380Y-65673809D01*
X44702380Y-64769047D02*
X44226190Y-65102380D01*
X44702380Y-65340476D02*
X43702380Y-65340476D01*
X43702380Y-64959523D01*
X43750000Y-64864285D01*
X43797619Y-64816666D01*
X43892857Y-64769047D01*
X44035714Y-64769047D01*
X44130952Y-64816666D01*
X44178571Y-64864285D01*
X44226190Y-64959523D01*
X44226190Y-65340476D01*
X43702380Y-64483333D02*
X43702380Y-63911904D01*
X44702380Y-64197619D02*
X43702380Y-64197619D01*
X43952380Y-79507142D02*
X43952380Y-78935714D01*
X44952380Y-79221428D02*
X43952380Y-79221428D01*
X43952380Y-78411904D02*
X43952380Y-78221428D01*
X44000000Y-78126190D01*
X44095238Y-78030952D01*
X44285714Y-77983333D01*
X44619047Y-77983333D01*
X44809523Y-78030952D01*
X44904761Y-78126190D01*
X44952380Y-78221428D01*
X44952380Y-78411904D01*
X44904761Y-78507142D01*
X44809523Y-78602380D01*
X44619047Y-78650000D01*
X44285714Y-78650000D01*
X44095238Y-78602380D01*
X44000000Y-78507142D01*
X43952380Y-78411904D01*
X43952380Y-77554761D02*
X44761904Y-77554761D01*
X44857142Y-77507142D01*
X44904761Y-77459523D01*
X44952380Y-77364285D01*
X44952380Y-77173809D01*
X44904761Y-77078571D01*
X44857142Y-77030952D01*
X44761904Y-76983333D01*
X43952380Y-76983333D01*
X44857142Y-75935714D02*
X44904761Y-75983333D01*
X44952380Y-76126190D01*
X44952380Y-76221428D01*
X44904761Y-76364285D01*
X44809523Y-76459523D01*
X44714285Y-76507142D01*
X44523809Y-76554761D01*
X44380952Y-76554761D01*
X44190476Y-76507142D01*
X44095238Y-76459523D01*
X44000000Y-76364285D01*
X43952380Y-76221428D01*
X43952380Y-76126190D01*
X44000000Y-75983333D01*
X44047619Y-75935714D01*
X44952380Y-75507142D02*
X43952380Y-75507142D01*
X44428571Y-75507142D02*
X44428571Y-74935714D01*
X44952380Y-74935714D02*
X43952380Y-74935714D01*
X51904761Y-78983333D02*
X51952380Y-78840476D01*
X51952380Y-78602380D01*
X51904761Y-78507142D01*
X51857142Y-78459523D01*
X51761904Y-78411904D01*
X51666666Y-78411904D01*
X51571428Y-78459523D01*
X51523809Y-78507142D01*
X51476190Y-78602380D01*
X51428571Y-78792857D01*
X51380952Y-78888095D01*
X51333333Y-78935714D01*
X51238095Y-78983333D01*
X51142857Y-78983333D01*
X51047619Y-78935714D01*
X51000000Y-78888095D01*
X50952380Y-78792857D01*
X50952380Y-78554761D01*
X51000000Y-78411904D01*
X51952380Y-77983333D02*
X50952380Y-77983333D01*
X51428571Y-77983333D02*
X51428571Y-77411904D01*
X51952380Y-77411904D02*
X50952380Y-77411904D01*
X51952380Y-76935714D02*
X50952380Y-76935714D01*
X50952380Y-76697619D01*
X51000000Y-76554761D01*
X51095238Y-76459523D01*
X51190476Y-76411904D01*
X51380952Y-76364285D01*
X51523809Y-76364285D01*
X51714285Y-76411904D01*
X51809523Y-76459523D01*
X51904761Y-76554761D01*
X51952380Y-76697619D01*
X51952380Y-76935714D01*
X51952380Y-75935714D02*
X50952380Y-75935714D01*
X51952380Y-75364285D01*
X50952380Y-75364285D01*
X59359404Y-80852380D02*
X58787976Y-80852380D01*
X59073690Y-80852380D02*
X59073690Y-79852380D01*
X58978452Y-79995238D01*
X58883214Y-80090476D01*
X58787976Y-80138095D01*
X59740357Y-79947619D02*
X59787976Y-79900000D01*
X59883214Y-79852380D01*
X60121309Y-79852380D01*
X60216547Y-79900000D01*
X60264166Y-79947619D01*
X60311785Y-80042857D01*
X60311785Y-80138095D01*
X60264166Y-80280952D01*
X59692738Y-80852380D01*
X60311785Y-80852380D01*
X60597500Y-79852380D02*
X60930833Y-80852380D01*
X61264166Y-79852380D01*
X66023809Y-85428571D02*
X65690476Y-85428571D01*
X65690476Y-85952380D02*
X65690476Y-84952380D01*
X66166666Y-84952380D01*
X67119047Y-85952380D02*
X66785714Y-85476190D01*
X66547619Y-85952380D02*
X66547619Y-84952380D01*
X66928571Y-84952380D01*
X67023809Y-85000000D01*
X67071428Y-85047619D01*
X67119047Y-85142857D01*
X67119047Y-85285714D01*
X67071428Y-85380952D01*
X67023809Y-85428571D01*
X66928571Y-85476190D01*
X66547619Y-85476190D01*
X67738095Y-84952380D02*
X67928571Y-84952380D01*
X68023809Y-85000000D01*
X68119047Y-85095238D01*
X68166666Y-85285714D01*
X68166666Y-85619047D01*
X68119047Y-85809523D01*
X68023809Y-85904761D01*
X67928571Y-85952380D01*
X67738095Y-85952380D01*
X67642857Y-85904761D01*
X67547619Y-85809523D01*
X67500000Y-85619047D01*
X67500000Y-85285714D01*
X67547619Y-85095238D01*
X67642857Y-85000000D01*
X67738095Y-84952380D01*
X68595238Y-85952380D02*
X68595238Y-84952380D01*
X69166666Y-85952380D01*
X69166666Y-84952380D01*
X69500000Y-84952380D02*
X70071428Y-84952380D01*
X69785714Y-85952380D02*
X69785714Y-84952380D01*
X71166666Y-85952380D02*
X71166666Y-84952380D01*
X71547619Y-84952380D01*
X71642857Y-85000000D01*
X71690476Y-85047619D01*
X71738095Y-85142857D01*
X71738095Y-85285714D01*
X71690476Y-85380952D01*
X71642857Y-85428571D01*
X71547619Y-85476190D01*
X71166666Y-85476190D01*
X72119047Y-85666666D02*
X72595238Y-85666666D01*
X72023809Y-85952380D02*
X72357142Y-84952380D01*
X72690476Y-85952380D01*
X73023809Y-85952380D02*
X73023809Y-84952380D01*
X73595238Y-85952380D01*
X73595238Y-84952380D01*
X74071428Y-85428571D02*
X74404761Y-85428571D01*
X74547619Y-85952380D02*
X74071428Y-85952380D01*
X74071428Y-84952380D01*
X74547619Y-84952380D01*
X75452380Y-85952380D02*
X74976190Y-85952380D01*
X74976190Y-84952380D01*
X52809523Y-85952380D02*
X52333333Y-85952380D01*
X52333333Y-84952380D01*
X53714285Y-85857142D02*
X53666666Y-85904761D01*
X53523809Y-85952380D01*
X53428571Y-85952380D01*
X53285714Y-85904761D01*
X53190476Y-85809523D01*
X53142857Y-85714285D01*
X53095238Y-85523809D01*
X53095238Y-85380952D01*
X53142857Y-85190476D01*
X53190476Y-85095238D01*
X53285714Y-85000000D01*
X53428571Y-84952380D01*
X53523809Y-84952380D01*
X53666666Y-85000000D01*
X53714285Y-85047619D01*
X54142857Y-85952380D02*
X54142857Y-84952380D01*
X54380952Y-84952380D01*
X54523809Y-85000000D01*
X54619047Y-85095238D01*
X54666666Y-85190476D01*
X54714285Y-85380952D01*
X54714285Y-85523809D01*
X54666666Y-85714285D01*
X54619047Y-85809523D01*
X54523809Y-85904761D01*
X54380952Y-85952380D01*
X54142857Y-85952380D01*
D11*
%TO.C,BT1*%
X90350000Y-45000000D02*
X100350000Y-45000000D01*
X90350000Y-63000000D02*
X90350000Y-45000000D01*
X100350000Y-63000000D02*
X90350000Y-63000000D01*
X100350000Y-45000000D02*
X100350000Y-63000000D01*
%TO.C,L1*%
X86500000Y-84000000D02*
X86500000Y-81000000D01*
X99500000Y-84000000D02*
X86500000Y-84000000D01*
X99500000Y-81000000D02*
X99500000Y-84000000D01*
X99500000Y-71000000D02*
X99500000Y-74000000D01*
X86500000Y-71000000D02*
X99500000Y-71000000D01*
X86500000Y-71000000D02*
X86500000Y-74000000D01*
%TO.C,U2*%
X43400000Y-44290000D02*
X41600000Y-44290000D01*
X41600000Y-47510000D02*
X44550000Y-47510000D01*
%TO.C,C4*%
X47410000Y-45438748D02*
X47410000Y-45961252D01*
X45990000Y-45438748D02*
X45990000Y-45961252D01*
%TO.C,C6*%
X62261252Y-74990000D02*
X61738748Y-74990000D01*
X62261252Y-76410000D02*
X61738748Y-76410000D01*
%TO.C,D1*%
X77250000Y-81960000D02*
X80110000Y-81960000D01*
X80110000Y-81960000D02*
X80110000Y-80040000D01*
X80110000Y-80040000D02*
X77250000Y-80040000D01*
%TO.C,J4*%
X78440000Y-68160000D02*
X81860000Y-68160000D01*
X81860000Y-68160000D02*
X81860000Y-63690000D01*
X81860000Y-63690000D02*
X78440000Y-63690000D01*
X78440000Y-63690000D02*
X78440000Y-68160000D01*
X81350000Y-65925000D02*
X81350000Y-67650000D01*
X81350000Y-67650000D02*
X80600000Y-67650000D01*
X80600000Y-67650000D02*
X80600000Y-67850000D01*
X80600000Y-67850000D02*
X79800000Y-67850000D01*
X79800000Y-67850000D02*
X79800000Y-67650000D01*
X79800000Y-67650000D02*
X78950000Y-67650000D01*
X78950000Y-67650000D02*
X78950000Y-65925000D01*
X81350000Y-65925000D02*
X81350000Y-64200000D01*
X81350000Y-64200000D02*
X80600000Y-64200000D01*
X80600000Y-64200000D02*
X80600000Y-64000000D01*
X80600000Y-64000000D02*
X79800000Y-64000000D01*
X79800000Y-64000000D02*
X79800000Y-64200000D01*
X79800000Y-64200000D02*
X78950000Y-64200000D01*
X78950000Y-64200000D02*
X78950000Y-65925000D01*
X82150000Y-68450000D02*
X81150000Y-68450000D01*
X82150000Y-68450000D02*
X82150000Y-67450000D01*
%TO.C,U4*%
X66969670Y-75132126D02*
X67500000Y-74601796D01*
X67500000Y-74601796D02*
X68030330Y-75132126D01*
X68030330Y-82867874D02*
X67500000Y-83398204D01*
X67500000Y-83398204D02*
X66969670Y-82867874D01*
X71367874Y-79530330D02*
X71898204Y-79000000D01*
X71898204Y-79000000D02*
X71367874Y-78469670D01*
X63632126Y-78469670D02*
X63101796Y-79000000D01*
%TO.C,J5*%
X37440000Y-83035000D02*
X37440000Y-78925000D01*
X43160000Y-83035000D02*
X37440000Y-83035000D01*
X43160000Y-81965000D02*
X43160000Y-83035000D01*
X42860000Y-81965000D02*
X43160000Y-81965000D01*
X42860000Y-78925000D02*
X42860000Y-81965000D01*
X37440000Y-74815000D02*
X37440000Y-78925000D01*
X43160000Y-74815000D02*
X37440000Y-74815000D01*
X43160000Y-75885000D02*
X43160000Y-74815000D01*
X42860000Y-75885000D02*
X43160000Y-75885000D01*
X42860000Y-78925000D02*
X42860000Y-75885000D01*
X43450000Y-76175000D02*
X43450000Y-75675000D01*
X43150000Y-76175000D02*
X43450000Y-76175000D01*
%TO.C,SW1*%
X85630000Y-59960000D02*
X85630000Y-54440000D01*
X83620000Y-61810000D02*
X83620000Y-59960000D01*
X82970000Y-59960000D02*
X83620000Y-59960000D01*
X82970000Y-59960000D02*
X82970000Y-54440000D01*
X82970000Y-54440000D02*
X84239000Y-54440000D01*
X84361000Y-59960000D02*
X85630000Y-59960000D01*
X84361000Y-54440000D02*
X85630000Y-54440000D01*
%TO.C,J8*%
X41160000Y-63015000D02*
X41610000Y-63015000D01*
X41610000Y-63015000D02*
X41610000Y-63965000D01*
X41610000Y-63965000D02*
X43100000Y-63965000D01*
X41160000Y-69985000D02*
X41610000Y-69985000D01*
X41610000Y-69985000D02*
X41610000Y-69035000D01*
X37640000Y-63015000D02*
X37190000Y-63015000D01*
X37190000Y-63015000D02*
X37190000Y-69985000D01*
X37190000Y-69985000D02*
X37640000Y-69985000D01*
%TO.C,J9*%
X37190000Y-57885000D02*
X37640000Y-57885000D01*
X37190000Y-50915000D02*
X37190000Y-57885000D01*
X37640000Y-50915000D02*
X37190000Y-50915000D01*
X41610000Y-57885000D02*
X41610000Y-56935000D01*
X41160000Y-57885000D02*
X41610000Y-57885000D01*
X41610000Y-51865000D02*
X43100000Y-51865000D01*
X41610000Y-50915000D02*
X41610000Y-51865000D01*
X41160000Y-50915000D02*
X41610000Y-50915000D01*
%TO.C,Q1*%
X58520000Y-72860000D02*
X59450000Y-72860000D01*
X61680000Y-72860000D02*
X60750000Y-72860000D01*
X61680000Y-72860000D02*
X61680000Y-70700000D01*
X58520000Y-72860000D02*
X58520000Y-71400000D01*
%TO.C,J2*%
X45690000Y-51285000D02*
X45690000Y-57515000D01*
X49610000Y-57885000D02*
X49610000Y-56935000D01*
X48660000Y-57885000D02*
X49610000Y-57885000D01*
X49610000Y-51865000D02*
X50300000Y-51865000D01*
X49610000Y-50915000D02*
X49610000Y-51865000D01*
X48660000Y-50915000D02*
X49610000Y-50915000D01*
%TO.C,J3*%
X48660000Y-63015000D02*
X49610000Y-63015000D01*
X49610000Y-63015000D02*
X49610000Y-63965000D01*
X49610000Y-63965000D02*
X50300000Y-63965000D01*
X48660000Y-69985000D02*
X49610000Y-69985000D01*
X49610000Y-69985000D02*
X49610000Y-69035000D01*
X45690000Y-63385000D02*
X45690000Y-69615000D01*
%TO.C,J6*%
X56460000Y-92060000D02*
X51100000Y-92060000D01*
X56460000Y-86340000D02*
X56460000Y-92060000D01*
X55390000Y-86340000D02*
X56460000Y-86340000D01*
X55390000Y-86640000D02*
X55390000Y-86340000D01*
X51100000Y-86640000D02*
X55390000Y-86640000D01*
X45740000Y-92060000D02*
X51100000Y-92060000D01*
X45740000Y-86340000D02*
X45740000Y-92060000D01*
X46810000Y-86340000D02*
X45740000Y-86340000D01*
X46810000Y-86640000D02*
X46810000Y-86340000D01*
X51100000Y-86640000D02*
X46810000Y-86640000D01*
X47100000Y-86050000D02*
X46600000Y-86050000D01*
X47100000Y-86350000D02*
X47100000Y-86050000D01*
%TO.C,J7*%
X77060000Y-92060000D02*
X67325000Y-92060000D01*
X77060000Y-86340000D02*
X77060000Y-92060000D01*
X75990000Y-86340000D02*
X77060000Y-86340000D01*
X75990000Y-86640000D02*
X75990000Y-86340000D01*
X67325000Y-86640000D02*
X75990000Y-86640000D01*
X57590000Y-92060000D02*
X67325000Y-92060000D01*
X57590000Y-86340000D02*
X57590000Y-92060000D01*
X58660000Y-86340000D02*
X57590000Y-86340000D01*
X58660000Y-86640000D02*
X58660000Y-86340000D01*
X67325000Y-86640000D02*
X58660000Y-86640000D01*
X58950000Y-86050000D02*
X58450000Y-86050000D01*
X58950000Y-86350000D02*
X58950000Y-86050000D01*
%TO.C,J11*%
X56460000Y-77865000D02*
X57410000Y-77865000D01*
X57410000Y-77865000D02*
X57410000Y-78815000D01*
X57410000Y-78815000D02*
X58100000Y-78815000D01*
X56460000Y-82335000D02*
X57410000Y-82335000D01*
X57410000Y-82335000D02*
X57410000Y-81385000D01*
X53490000Y-78235000D02*
X53490000Y-81965000D01*
%TO.C,R10*%
X66290000Y-72462779D02*
X66290000Y-72137221D01*
X67310000Y-72462779D02*
X67310000Y-72137221D01*
%TO.C,R2*%
X80937221Y-60490000D02*
X81262779Y-60490000D01*
X80937221Y-61510000D02*
X81262779Y-61510000D01*
%TO.C,R3*%
X78162779Y-83760000D02*
X77837221Y-83760000D01*
X78162779Y-82740000D02*
X77837221Y-82740000D01*
%TO.C,R4*%
X83790000Y-79387221D02*
X83790000Y-79712779D01*
X84810000Y-79387221D02*
X84810000Y-79712779D01*
%TO.C,R5*%
X84810000Y-83137221D02*
X84810000Y-83462779D01*
X83790000Y-83137221D02*
X83790000Y-83462779D01*
%TO.C,J12*%
X45690000Y-76385000D02*
X45690000Y-81365000D01*
X49610000Y-81735000D02*
X49610000Y-80785000D01*
X48660000Y-81735000D02*
X49610000Y-81735000D01*
X49610000Y-76965000D02*
X50300000Y-76965000D01*
X49610000Y-76015000D02*
X49610000Y-76965000D01*
X48660000Y-76015000D02*
X49610000Y-76015000D01*
%TO.C,BT1*%
D10*
X94664285Y-43778571D02*
X94807142Y-43826190D01*
X94854761Y-43873809D01*
X94902380Y-43969047D01*
X94902380Y-44111904D01*
X94854761Y-44207142D01*
X94807142Y-44254761D01*
X94711904Y-44302380D01*
X94330952Y-44302380D01*
X94330952Y-43302380D01*
X94664285Y-43302380D01*
X94759523Y-43350000D01*
X94807142Y-43397619D01*
X94854761Y-43492857D01*
X94854761Y-43588095D01*
X94807142Y-43683333D01*
X94759523Y-43730952D01*
X94664285Y-43778571D01*
X94330952Y-43778571D01*
X95188095Y-43302380D02*
X95759523Y-43302380D01*
X95473809Y-44302380D02*
X95473809Y-43302380D01*
X96616666Y-44302380D02*
X96045238Y-44302380D01*
X96330952Y-44302380D02*
X96330952Y-43302380D01*
X96235714Y-43445238D01*
X96140476Y-43540476D01*
X96045238Y-43588095D01*
%TO.C,L1*%
X92833333Y-85452380D02*
X92357142Y-85452380D01*
X92357142Y-84452380D01*
X93690476Y-85452380D02*
X93119047Y-85452380D01*
X93404761Y-85452380D02*
X93404761Y-84452380D01*
X93309523Y-84595238D01*
X93214285Y-84690476D01*
X93119047Y-84738095D01*
%TO.C,U2*%
X41738095Y-47852380D02*
X41738095Y-48661904D01*
X41785714Y-48757142D01*
X41833333Y-48804761D01*
X41928571Y-48852380D01*
X42119047Y-48852380D01*
X42214285Y-48804761D01*
X42261904Y-48757142D01*
X42309523Y-48661904D01*
X42309523Y-47852380D01*
X42738095Y-47947619D02*
X42785714Y-47900000D01*
X42880952Y-47852380D01*
X43119047Y-47852380D01*
X43214285Y-47900000D01*
X43261904Y-47947619D01*
X43309523Y-48042857D01*
X43309523Y-48138095D01*
X43261904Y-48280952D01*
X42690476Y-48852380D01*
X43309523Y-48852380D01*
%TO.C,C4*%
X48707142Y-45866666D02*
X48754761Y-45914285D01*
X48802380Y-46057142D01*
X48802380Y-46152380D01*
X48754761Y-46295238D01*
X48659523Y-46390476D01*
X48564285Y-46438095D01*
X48373809Y-46485714D01*
X48230952Y-46485714D01*
X48040476Y-46438095D01*
X47945238Y-46390476D01*
X47850000Y-46295238D01*
X47802380Y-46152380D01*
X47802380Y-46057142D01*
X47850000Y-45914285D01*
X47897619Y-45866666D01*
X48135714Y-45009523D02*
X48802380Y-45009523D01*
X47754761Y-45247619D02*
X48469047Y-45485714D01*
X48469047Y-44866666D01*
%TO.C,C6*%
X58833333Y-76007142D02*
X58785714Y-76054761D01*
X58642857Y-76102380D01*
X58547619Y-76102380D01*
X58404761Y-76054761D01*
X58309523Y-75959523D01*
X58261904Y-75864285D01*
X58214285Y-75673809D01*
X58214285Y-75530952D01*
X58261904Y-75340476D01*
X58309523Y-75245238D01*
X58404761Y-75150000D01*
X58547619Y-75102380D01*
X58642857Y-75102380D01*
X58785714Y-75150000D01*
X58833333Y-75197619D01*
X59690476Y-75102380D02*
X59500000Y-75102380D01*
X59404761Y-75150000D01*
X59357142Y-75197619D01*
X59261904Y-75340476D01*
X59214285Y-75530952D01*
X59214285Y-75911904D01*
X59261904Y-76007142D01*
X59309523Y-76054761D01*
X59404761Y-76102380D01*
X59595238Y-76102380D01*
X59690476Y-76054761D01*
X59738095Y-76007142D01*
X59785714Y-75911904D01*
X59785714Y-75673809D01*
X59738095Y-75578571D01*
X59690476Y-75530952D01*
X59595238Y-75483333D01*
X59404761Y-75483333D01*
X59309523Y-75530952D01*
X59261904Y-75578571D01*
X59214285Y-75673809D01*
%TO.C,D1*%
X77636904Y-79602380D02*
X77636904Y-78602380D01*
X77875000Y-78602380D01*
X78017857Y-78650000D01*
X78113095Y-78745238D01*
X78160714Y-78840476D01*
X78208333Y-79030952D01*
X78208333Y-79173809D01*
X78160714Y-79364285D01*
X78113095Y-79459523D01*
X78017857Y-79554761D01*
X77875000Y-79602380D01*
X77636904Y-79602380D01*
X79160714Y-79602380D02*
X78589285Y-79602380D01*
X78875000Y-79602380D02*
X78875000Y-78602380D01*
X78779761Y-78745238D01*
X78684523Y-78840476D01*
X78589285Y-78888095D01*
%TO.C,J4*%
X76802380Y-66263333D02*
X77516666Y-66263333D01*
X77659523Y-66310952D01*
X77754761Y-66406190D01*
X77802380Y-66549047D01*
X77802380Y-66644285D01*
X77135714Y-65358571D02*
X77802380Y-65358571D01*
X76754761Y-65596666D02*
X77469047Y-65834761D01*
X77469047Y-65215714D01*
%TO.C,U4*%
X70348477Y-75033467D02*
X69776057Y-75605887D01*
X69742385Y-75706902D01*
X69742385Y-75774246D01*
X69776057Y-75875261D01*
X69910744Y-76009948D01*
X70011759Y-76043620D01*
X70079103Y-76043620D01*
X70180118Y-76009948D01*
X70752538Y-75437528D01*
X71156599Y-76312994D02*
X70685194Y-76784398D01*
X71257614Y-75875261D02*
X70584179Y-76211979D01*
X71021912Y-76649711D01*
%TO.C,J5*%
X43952380Y-81483333D02*
X44666666Y-81483333D01*
X44809523Y-81530952D01*
X44904761Y-81626190D01*
X44952380Y-81769047D01*
X44952380Y-81864285D01*
X43952380Y-80530952D02*
X43952380Y-81007142D01*
X44428571Y-81054761D01*
X44380952Y-81007142D01*
X44333333Y-80911904D01*
X44333333Y-80673809D01*
X44380952Y-80578571D01*
X44428571Y-80530952D01*
X44523809Y-80483333D01*
X44761904Y-80483333D01*
X44857142Y-80530952D01*
X44904761Y-80578571D01*
X44952380Y-80673809D01*
X44952380Y-80911904D01*
X44904761Y-81007142D01*
X44857142Y-81054761D01*
%TO.C,SW1*%
X81704761Y-57233333D02*
X81752380Y-57090476D01*
X81752380Y-56852380D01*
X81704761Y-56757142D01*
X81657142Y-56709523D01*
X81561904Y-56661904D01*
X81466666Y-56661904D01*
X81371428Y-56709523D01*
X81323809Y-56757142D01*
X81276190Y-56852380D01*
X81228571Y-57042857D01*
X81180952Y-57138095D01*
X81133333Y-57185714D01*
X81038095Y-57233333D01*
X80942857Y-57233333D01*
X80847619Y-57185714D01*
X80800000Y-57138095D01*
X80752380Y-57042857D01*
X80752380Y-56804761D01*
X80800000Y-56661904D01*
X80752380Y-56328571D02*
X81752380Y-56090476D01*
X81038095Y-55900000D01*
X81752380Y-55709523D01*
X80752380Y-55471428D01*
X81752380Y-54566666D02*
X81752380Y-55138095D01*
X81752380Y-54852380D02*
X80752380Y-54852380D01*
X80895238Y-54947619D01*
X80990476Y-55042857D01*
X81038095Y-55138095D01*
%TO.C,J8*%
X43702380Y-69483333D02*
X44416666Y-69483333D01*
X44559523Y-69530952D01*
X44654761Y-69626190D01*
X44702380Y-69769047D01*
X44702380Y-69864285D01*
X44130952Y-68864285D02*
X44083333Y-68959523D01*
X44035714Y-69007142D01*
X43940476Y-69054761D01*
X43892857Y-69054761D01*
X43797619Y-69007142D01*
X43750000Y-68959523D01*
X43702380Y-68864285D01*
X43702380Y-68673809D01*
X43750000Y-68578571D01*
X43797619Y-68530952D01*
X43892857Y-68483333D01*
X43940476Y-68483333D01*
X44035714Y-68530952D01*
X44083333Y-68578571D01*
X44130952Y-68673809D01*
X44130952Y-68864285D01*
X44178571Y-68959523D01*
X44226190Y-69007142D01*
X44321428Y-69054761D01*
X44511904Y-69054761D01*
X44607142Y-69007142D01*
X44654761Y-68959523D01*
X44702380Y-68864285D01*
X44702380Y-68673809D01*
X44654761Y-68578571D01*
X44607142Y-68530952D01*
X44511904Y-68483333D01*
X44321428Y-68483333D01*
X44226190Y-68530952D01*
X44178571Y-68578571D01*
X44130952Y-68673809D01*
%TO.C,J9*%
X43702380Y-57333333D02*
X44416666Y-57333333D01*
X44559523Y-57380952D01*
X44654761Y-57476190D01*
X44702380Y-57619047D01*
X44702380Y-57714285D01*
X44702380Y-56809523D02*
X44702380Y-56619047D01*
X44654761Y-56523809D01*
X44607142Y-56476190D01*
X44464285Y-56380952D01*
X44273809Y-56333333D01*
X43892857Y-56333333D01*
X43797619Y-56380952D01*
X43750000Y-56428571D01*
X43702380Y-56523809D01*
X43702380Y-56714285D01*
X43750000Y-56809523D01*
X43797619Y-56857142D01*
X43892857Y-56904761D01*
X44130952Y-56904761D01*
X44226190Y-56857142D01*
X44273809Y-56809523D01*
X44321428Y-56714285D01*
X44321428Y-56523809D01*
X44273809Y-56428571D01*
X44226190Y-56380952D01*
X44130952Y-56333333D01*
%TO.C,Q1*%
X58097619Y-72195238D02*
X58050000Y-72290476D01*
X57954761Y-72385714D01*
X57811904Y-72528571D01*
X57764285Y-72623809D01*
X57764285Y-72719047D01*
X58002380Y-72671428D02*
X57954761Y-72766666D01*
X57859523Y-72861904D01*
X57669047Y-72909523D01*
X57335714Y-72909523D01*
X57145238Y-72861904D01*
X57050000Y-72766666D01*
X57002380Y-72671428D01*
X57002380Y-72480952D01*
X57050000Y-72385714D01*
X57145238Y-72290476D01*
X57335714Y-72242857D01*
X57669047Y-72242857D01*
X57859523Y-72290476D01*
X57954761Y-72385714D01*
X58002380Y-72480952D01*
X58002380Y-72671428D01*
X58002380Y-71290476D02*
X58002380Y-71861904D01*
X58002380Y-71576190D02*
X57002380Y-71576190D01*
X57145238Y-71671428D01*
X57240476Y-71766666D01*
X57288095Y-71861904D01*
%TO.C,J2*%
X51202380Y-57333333D02*
X51916666Y-57333333D01*
X52059523Y-57380952D01*
X52154761Y-57476190D01*
X52202380Y-57619047D01*
X52202380Y-57714285D01*
X51297619Y-56904761D02*
X51250000Y-56857142D01*
X51202380Y-56761904D01*
X51202380Y-56523809D01*
X51250000Y-56428571D01*
X51297619Y-56380952D01*
X51392857Y-56333333D01*
X51488095Y-56333333D01*
X51630952Y-56380952D01*
X52202380Y-56952380D01*
X52202380Y-56333333D01*
%TO.C,J3*%
X51202380Y-69483333D02*
X51916666Y-69483333D01*
X52059523Y-69530952D01*
X52154761Y-69626190D01*
X52202380Y-69769047D01*
X52202380Y-69864285D01*
X51202380Y-69102380D02*
X51202380Y-68483333D01*
X51583333Y-68816666D01*
X51583333Y-68673809D01*
X51630952Y-68578571D01*
X51678571Y-68530952D01*
X51773809Y-68483333D01*
X52011904Y-68483333D01*
X52107142Y-68530952D01*
X52154761Y-68578571D01*
X52202380Y-68673809D01*
X52202380Y-68959523D01*
X52154761Y-69054761D01*
X52107142Y-69102380D01*
%TO.C,J6*%
X47916666Y-84952380D02*
X47916666Y-85666666D01*
X47869047Y-85809523D01*
X47773809Y-85904761D01*
X47630952Y-85952380D01*
X47535714Y-85952380D01*
X48821428Y-84952380D02*
X48630952Y-84952380D01*
X48535714Y-85000000D01*
X48488095Y-85047619D01*
X48392857Y-85190476D01*
X48345238Y-85380952D01*
X48345238Y-85761904D01*
X48392857Y-85857142D01*
X48440476Y-85904761D01*
X48535714Y-85952380D01*
X48726190Y-85952380D01*
X48821428Y-85904761D01*
X48869047Y-85857142D01*
X48916666Y-85761904D01*
X48916666Y-85523809D01*
X48869047Y-85428571D01*
X48821428Y-85380952D01*
X48726190Y-85333333D01*
X48535714Y-85333333D01*
X48440476Y-85380952D01*
X48392857Y-85428571D01*
X48345238Y-85523809D01*
%TO.C,J7*%
X60416666Y-84952380D02*
X60416666Y-85666666D01*
X60369047Y-85809523D01*
X60273809Y-85904761D01*
X60130952Y-85952380D01*
X60035714Y-85952380D01*
X60797619Y-84952380D02*
X61464285Y-84952380D01*
X61035714Y-85952380D01*
%TO.C,J11*%
X59121309Y-78352380D02*
X59121309Y-79066666D01*
X59073690Y-79209523D01*
X58978452Y-79304761D01*
X58835595Y-79352380D01*
X58740357Y-79352380D01*
X60121309Y-79352380D02*
X59549880Y-79352380D01*
X59835595Y-79352380D02*
X59835595Y-78352380D01*
X59740357Y-78495238D01*
X59645119Y-78590476D01*
X59549880Y-78638095D01*
X61073690Y-79352380D02*
X60502261Y-79352380D01*
X60787976Y-79352380D02*
X60787976Y-78352380D01*
X60692738Y-78495238D01*
X60597500Y-78590476D01*
X60502261Y-78638095D01*
%TO.C,R10*%
X68902380Y-72942857D02*
X68426190Y-73276190D01*
X68902380Y-73514285D02*
X67902380Y-73514285D01*
X67902380Y-73133333D01*
X67950000Y-73038095D01*
X67997619Y-72990476D01*
X68092857Y-72942857D01*
X68235714Y-72942857D01*
X68330952Y-72990476D01*
X68378571Y-73038095D01*
X68426190Y-73133333D01*
X68426190Y-73514285D01*
X68902380Y-71990476D02*
X68902380Y-72561904D01*
X68902380Y-72276190D02*
X67902380Y-72276190D01*
X68045238Y-72371428D01*
X68140476Y-72466666D01*
X68188095Y-72561904D01*
X67902380Y-71371428D02*
X67902380Y-71276190D01*
X67950000Y-71180952D01*
X67997619Y-71133333D01*
X68092857Y-71085714D01*
X68283333Y-71038095D01*
X68521428Y-71038095D01*
X68711904Y-71085714D01*
X68807142Y-71133333D01*
X68854761Y-71180952D01*
X68902380Y-71276190D01*
X68902380Y-71371428D01*
X68854761Y-71466666D01*
X68807142Y-71514285D01*
X68711904Y-71561904D01*
X68521428Y-71609523D01*
X68283333Y-71609523D01*
X68092857Y-71561904D01*
X67997619Y-71514285D01*
X67950000Y-71466666D01*
X67902380Y-71371428D01*
%TO.C,R2*%
X80933333Y-60022380D02*
X80600000Y-59546190D01*
X80361904Y-60022380D02*
X80361904Y-59022380D01*
X80742857Y-59022380D01*
X80838095Y-59070000D01*
X80885714Y-59117619D01*
X80933333Y-59212857D01*
X80933333Y-59355714D01*
X80885714Y-59450952D01*
X80838095Y-59498571D01*
X80742857Y-59546190D01*
X80361904Y-59546190D01*
X81314285Y-59117619D02*
X81361904Y-59070000D01*
X81457142Y-59022380D01*
X81695238Y-59022380D01*
X81790476Y-59070000D01*
X81838095Y-59117619D01*
X81885714Y-59212857D01*
X81885714Y-59308095D01*
X81838095Y-59450952D01*
X81266666Y-60022380D01*
X81885714Y-60022380D01*
%TO.C,R3*%
X77833333Y-85352380D02*
X77500000Y-84876190D01*
X77261904Y-85352380D02*
X77261904Y-84352380D01*
X77642857Y-84352380D01*
X77738095Y-84400000D01*
X77785714Y-84447619D01*
X77833333Y-84542857D01*
X77833333Y-84685714D01*
X77785714Y-84780952D01*
X77738095Y-84828571D01*
X77642857Y-84876190D01*
X77261904Y-84876190D01*
X78166666Y-84352380D02*
X78785714Y-84352380D01*
X78452380Y-84733333D01*
X78595238Y-84733333D01*
X78690476Y-84780952D01*
X78738095Y-84828571D01*
X78785714Y-84923809D01*
X78785714Y-85161904D01*
X78738095Y-85257142D01*
X78690476Y-85304761D01*
X78595238Y-85352380D01*
X78309523Y-85352380D01*
X78214285Y-85304761D01*
X78166666Y-85257142D01*
%TO.C,R4*%
X84702380Y-77066666D02*
X84226190Y-77400000D01*
X84702380Y-77638095D02*
X83702380Y-77638095D01*
X83702380Y-77257142D01*
X83750000Y-77161904D01*
X83797619Y-77114285D01*
X83892857Y-77066666D01*
X84035714Y-77066666D01*
X84130952Y-77114285D01*
X84178571Y-77161904D01*
X84226190Y-77257142D01*
X84226190Y-77638095D01*
X84035714Y-76209523D02*
X84702380Y-76209523D01*
X83654761Y-76447619D02*
X84369047Y-76685714D01*
X84369047Y-76066666D01*
%TO.C,R5*%
X84702380Y-86066666D02*
X84226190Y-86400000D01*
X84702380Y-86638095D02*
X83702380Y-86638095D01*
X83702380Y-86257142D01*
X83750000Y-86161904D01*
X83797619Y-86114285D01*
X83892857Y-86066666D01*
X84035714Y-86066666D01*
X84130952Y-86114285D01*
X84178571Y-86161904D01*
X84226190Y-86257142D01*
X84226190Y-86638095D01*
X83702380Y-85161904D02*
X83702380Y-85638095D01*
X84178571Y-85685714D01*
X84130952Y-85638095D01*
X84083333Y-85542857D01*
X84083333Y-85304761D01*
X84130952Y-85209523D01*
X84178571Y-85161904D01*
X84273809Y-85114285D01*
X84511904Y-85114285D01*
X84607142Y-85161904D01*
X84654761Y-85209523D01*
X84702380Y-85304761D01*
X84702380Y-85542857D01*
X84654761Y-85638095D01*
X84607142Y-85685714D01*
%TO.C,J12*%
X50952380Y-79684523D02*
X51666666Y-79684523D01*
X51809523Y-79732142D01*
X51904761Y-79827380D01*
X51952380Y-79970238D01*
X51952380Y-80065476D01*
X51952380Y-78684523D02*
X51952380Y-79255952D01*
X51952380Y-78970238D02*
X50952380Y-78970238D01*
X51095238Y-79065476D01*
X51190476Y-79160714D01*
X51238095Y-79255952D01*
X51047619Y-78303571D02*
X51000000Y-78255952D01*
X50952380Y-78160714D01*
X50952380Y-77922619D01*
X51000000Y-77827380D01*
X51047619Y-77779761D01*
X51142857Y-77732142D01*
X51238095Y-77732142D01*
X51380952Y-77779761D01*
X51952380Y-78351190D01*
X51952380Y-77732142D01*
%TD*%
M02*
