%TF.GenerationSoftware,KiCad,Pcbnew,5.1.6*%
%TF.CreationDate,2020-09-14T14:33:22+02:00*%
%TF.ProjectId,pi-shield,70692d73-6869-4656-9c64-2e6b69636164,rev?*%
%TF.SameCoordinates,Original*%
%TF.FileFunction,Legend,Bot*%
%TF.FilePolarity,Positive*%
%FSLAX46Y46*%
G04 Gerber Fmt 4.6, Leading zero omitted, Abs format (unit mm)*
G04 Created by KiCad (PCBNEW 5.1.6) date 2020-09-14 14:33:22*
%MOMM*%
%LPD*%
G01*
G04 APERTURE LIST*
%ADD10C,0.150000*%
%ADD11C,0.120000*%
G04 APERTURE END LIST*
D10*
X46357142Y-55307023D02*
X46404761Y-55259404D01*
X46452380Y-55116547D01*
X46452380Y-55021309D01*
X46404761Y-54878452D01*
X46309523Y-54783214D01*
X46214285Y-54735595D01*
X46023809Y-54687976D01*
X45880952Y-54687976D01*
X45690476Y-54735595D01*
X45595238Y-54783214D01*
X45500000Y-54878452D01*
X45452380Y-55021309D01*
X45452380Y-55116547D01*
X45500000Y-55259404D01*
X45547619Y-55307023D01*
X46166666Y-55687976D02*
X46166666Y-56164166D01*
X46452380Y-55592738D02*
X45452380Y-55926071D01*
X46452380Y-56259404D01*
X46452380Y-56592738D02*
X45452380Y-56592738D01*
X46452380Y-57164166D01*
X45452380Y-57164166D01*
D11*
%TO.C,U1*%
X49250000Y-69885000D02*
X47050000Y-69885000D01*
X49250000Y-69885000D02*
X51450000Y-69885000D01*
X49250000Y-63115000D02*
X47050000Y-63115000D01*
X49250000Y-63115000D02*
X52850000Y-63115000D01*
%TO.C,C1*%
X44061252Y-73710000D02*
X43538748Y-73710000D01*
X44061252Y-72290000D02*
X43538748Y-72290000D01*
%TO.C,C2*%
X51490000Y-72738748D02*
X51490000Y-73261252D01*
X52910000Y-72738748D02*
X52910000Y-73261252D01*
%TO.C,C3*%
X43490000Y-62761252D02*
X43490000Y-62238748D01*
X44910000Y-62761252D02*
X44910000Y-62238748D01*
%TO.C,C5*%
X81460000Y-54736252D02*
X81460000Y-54213748D01*
X80040000Y-54736252D02*
X80040000Y-54213748D01*
%TO.C,J1*%
X43540000Y-37400000D02*
X43540000Y-40000000D01*
X43540000Y-37400000D02*
X94460000Y-37400000D01*
X94460000Y-37400000D02*
X94460000Y-42600000D01*
X46140000Y-42600000D02*
X94460000Y-42600000D01*
X46140000Y-40000000D02*
X46140000Y-42600000D01*
X43540000Y-40000000D02*
X46140000Y-40000000D01*
X43540000Y-42600000D02*
X44870000Y-42600000D01*
X43540000Y-41270000D02*
X43540000Y-42600000D01*
%TO.C,U3*%
X88600000Y-45790000D02*
X92460000Y-45790000D01*
X92460000Y-45790000D02*
X92460000Y-47295000D01*
X88600000Y-45790000D02*
X84740000Y-45790000D01*
X84740000Y-45790000D02*
X84740000Y-47295000D01*
X88600000Y-58810000D02*
X92460000Y-58810000D01*
X92460000Y-58810000D02*
X92460000Y-57305000D01*
X88600000Y-58810000D02*
X84740000Y-58810000D01*
X84740000Y-58810000D02*
X84740000Y-57305000D01*
X84740000Y-57305000D02*
X82925000Y-57305000D01*
%TO.C,C7*%
X100310000Y-83115748D02*
X100310000Y-80284252D01*
X95090000Y-83115748D02*
X95090000Y-80284252D01*
%TO.C,C8*%
X84910000Y-87771267D02*
X84910000Y-87428733D01*
X83890000Y-87771267D02*
X83890000Y-87428733D01*
%TO.C,C9*%
X93550000Y-80460000D02*
X85315000Y-80460000D01*
X85315000Y-80460000D02*
X85315000Y-75940000D01*
X85315000Y-75940000D02*
X93550000Y-75940000D01*
%TO.C,D2*%
X93500000Y-86850000D02*
X93500000Y-90150000D01*
X93500000Y-90150000D02*
X88100000Y-90150000D01*
X93500000Y-86850000D02*
X88100000Y-86850000D01*
D10*
%TO.C,U5*%
X88325000Y-86275000D02*
X88325000Y-86225000D01*
X92475000Y-86275000D02*
X92475000Y-86130000D01*
X92475000Y-81125000D02*
X92475000Y-81270000D01*
X88325000Y-81125000D02*
X88325000Y-81270000D01*
X88325000Y-86275000D02*
X92475000Y-86275000D01*
X88325000Y-81125000D02*
X92475000Y-81125000D01*
X88325000Y-86225000D02*
X86925000Y-86225000D01*
D11*
%TO.C,Y1*%
X50500000Y-76750000D02*
X46500000Y-76750000D01*
X46500000Y-76750000D02*
X46500000Y-70950000D01*
%TO.C,J10*%
X41160000Y-57885000D02*
X41610000Y-57885000D01*
X41610000Y-57885000D02*
X41610000Y-56935000D01*
X41610000Y-56935000D02*
X43100000Y-56935000D01*
X41160000Y-50915000D02*
X41610000Y-50915000D01*
X41610000Y-50915000D02*
X41610000Y-51865000D01*
X37640000Y-57885000D02*
X37190000Y-57885000D01*
X37190000Y-57885000D02*
X37190000Y-50915000D01*
X37190000Y-50915000D02*
X37640000Y-50915000D01*
%TO.C,R6*%
X38760000Y-65062779D02*
X38760000Y-64737221D01*
X37740000Y-65062779D02*
X37740000Y-64737221D01*
%TO.C,R7*%
X39240000Y-65062779D02*
X39240000Y-64737221D01*
X40260000Y-65062779D02*
X40260000Y-64737221D01*
%TO.C,R8*%
X87940000Y-68012779D02*
X87940000Y-67687221D01*
X88960000Y-68012779D02*
X88960000Y-67687221D01*
%TO.C,R9*%
X86090000Y-64137221D02*
X86090000Y-64462779D01*
X87110000Y-64137221D02*
X87110000Y-64462779D01*
%TO.C,R1*%
X42737221Y-65140000D02*
X43062779Y-65140000D01*
X42737221Y-66160000D02*
X43062779Y-66160000D01*
%TO.C,U1*%
D10*
X50011904Y-61752380D02*
X50011904Y-62561904D01*
X49964285Y-62657142D01*
X49916666Y-62704761D01*
X49821428Y-62752380D01*
X49630952Y-62752380D01*
X49535714Y-62704761D01*
X49488095Y-62657142D01*
X49440476Y-62561904D01*
X49440476Y-61752380D01*
X48440476Y-62752380D02*
X49011904Y-62752380D01*
X48726190Y-62752380D02*
X48726190Y-61752380D01*
X48821428Y-61895238D01*
X48916666Y-61990476D01*
X49011904Y-62038095D01*
%TO.C,C1*%
X43966666Y-71707142D02*
X44014285Y-71754761D01*
X44157142Y-71802380D01*
X44252380Y-71802380D01*
X44395238Y-71754761D01*
X44490476Y-71659523D01*
X44538095Y-71564285D01*
X44585714Y-71373809D01*
X44585714Y-71230952D01*
X44538095Y-71040476D01*
X44490476Y-70945238D01*
X44395238Y-70850000D01*
X44252380Y-70802380D01*
X44157142Y-70802380D01*
X44014285Y-70850000D01*
X43966666Y-70897619D01*
X43014285Y-71802380D02*
X43585714Y-71802380D01*
X43300000Y-71802380D02*
X43300000Y-70802380D01*
X43395238Y-70945238D01*
X43490476Y-71040476D01*
X43585714Y-71088095D01*
%TO.C,C2*%
X54357142Y-72833333D02*
X54404761Y-72785714D01*
X54452380Y-72642857D01*
X54452380Y-72547619D01*
X54404761Y-72404761D01*
X54309523Y-72309523D01*
X54214285Y-72261904D01*
X54023809Y-72214285D01*
X53880952Y-72214285D01*
X53690476Y-72261904D01*
X53595238Y-72309523D01*
X53500000Y-72404761D01*
X53452380Y-72547619D01*
X53452380Y-72642857D01*
X53500000Y-72785714D01*
X53547619Y-72833333D01*
X53547619Y-73214285D02*
X53500000Y-73261904D01*
X53452380Y-73357142D01*
X53452380Y-73595238D01*
X53500000Y-73690476D01*
X53547619Y-73738095D01*
X53642857Y-73785714D01*
X53738095Y-73785714D01*
X53880952Y-73738095D01*
X54452380Y-73166666D01*
X54452380Y-73785714D01*
%TO.C,C3*%
X44607142Y-59233333D02*
X44654761Y-59185714D01*
X44702380Y-59042857D01*
X44702380Y-58947619D01*
X44654761Y-58804761D01*
X44559523Y-58709523D01*
X44464285Y-58661904D01*
X44273809Y-58614285D01*
X44130952Y-58614285D01*
X43940476Y-58661904D01*
X43845238Y-58709523D01*
X43750000Y-58804761D01*
X43702380Y-58947619D01*
X43702380Y-59042857D01*
X43750000Y-59185714D01*
X43797619Y-59233333D01*
X43702380Y-59566666D02*
X43702380Y-60185714D01*
X44083333Y-59852380D01*
X44083333Y-59995238D01*
X44130952Y-60090476D01*
X44178571Y-60138095D01*
X44273809Y-60185714D01*
X44511904Y-60185714D01*
X44607142Y-60138095D01*
X44654761Y-60090476D01*
X44702380Y-59995238D01*
X44702380Y-59709523D01*
X44654761Y-59614285D01*
X44607142Y-59566666D01*
%TO.C,C5*%
X81107142Y-57233333D02*
X81154761Y-57185714D01*
X81202380Y-57042857D01*
X81202380Y-56947619D01*
X81154761Y-56804761D01*
X81059523Y-56709523D01*
X80964285Y-56661904D01*
X80773809Y-56614285D01*
X80630952Y-56614285D01*
X80440476Y-56661904D01*
X80345238Y-56709523D01*
X80250000Y-56804761D01*
X80202380Y-56947619D01*
X80202380Y-57042857D01*
X80250000Y-57185714D01*
X80297619Y-57233333D01*
X80202380Y-58138095D02*
X80202380Y-57661904D01*
X80678571Y-57614285D01*
X80630952Y-57661904D01*
X80583333Y-57757142D01*
X80583333Y-57995238D01*
X80630952Y-58090476D01*
X80678571Y-58138095D01*
X80773809Y-58185714D01*
X81011904Y-58185714D01*
X81107142Y-58138095D01*
X81154761Y-58090476D01*
X81202380Y-57995238D01*
X81202380Y-57757142D01*
X81154761Y-57661904D01*
X81107142Y-57614285D01*
%TO.C,J1*%
X41552380Y-39666666D02*
X42266666Y-39666666D01*
X42409523Y-39619047D01*
X42504761Y-39523809D01*
X42552380Y-39380952D01*
X42552380Y-39285714D01*
X42552380Y-40666666D02*
X42552380Y-40095238D01*
X42552380Y-40380952D02*
X41552380Y-40380952D01*
X41695238Y-40285714D01*
X41790476Y-40190476D01*
X41838095Y-40095238D01*
%TO.C,U3*%
X89361904Y-59102380D02*
X89361904Y-59911904D01*
X89314285Y-60007142D01*
X89266666Y-60054761D01*
X89171428Y-60102380D01*
X88980952Y-60102380D01*
X88885714Y-60054761D01*
X88838095Y-60007142D01*
X88790476Y-59911904D01*
X88790476Y-59102380D01*
X88409523Y-59102380D02*
X87790476Y-59102380D01*
X88123809Y-59483333D01*
X87980952Y-59483333D01*
X87885714Y-59530952D01*
X87838095Y-59578571D01*
X87790476Y-59673809D01*
X87790476Y-59911904D01*
X87838095Y-60007142D01*
X87885714Y-60054761D01*
X87980952Y-60102380D01*
X88266666Y-60102380D01*
X88361904Y-60054761D01*
X88409523Y-60007142D01*
%TO.C,C7*%
X98107142Y-76483333D02*
X98154761Y-76435714D01*
X98202380Y-76292857D01*
X98202380Y-76197619D01*
X98154761Y-76054761D01*
X98059523Y-75959523D01*
X97964285Y-75911904D01*
X97773809Y-75864285D01*
X97630952Y-75864285D01*
X97440476Y-75911904D01*
X97345238Y-75959523D01*
X97250000Y-76054761D01*
X97202380Y-76197619D01*
X97202380Y-76292857D01*
X97250000Y-76435714D01*
X97297619Y-76483333D01*
X97202380Y-76816666D02*
X97202380Y-77483333D01*
X98202380Y-77054761D01*
%TO.C,C8*%
X84757142Y-84733333D02*
X84804761Y-84685714D01*
X84852380Y-84542857D01*
X84852380Y-84447619D01*
X84804761Y-84304761D01*
X84709523Y-84209523D01*
X84614285Y-84161904D01*
X84423809Y-84114285D01*
X84280952Y-84114285D01*
X84090476Y-84161904D01*
X83995238Y-84209523D01*
X83900000Y-84304761D01*
X83852380Y-84447619D01*
X83852380Y-84542857D01*
X83900000Y-84685714D01*
X83947619Y-84733333D01*
X84280952Y-85304761D02*
X84233333Y-85209523D01*
X84185714Y-85161904D01*
X84090476Y-85114285D01*
X84042857Y-85114285D01*
X83947619Y-85161904D01*
X83900000Y-85209523D01*
X83852380Y-85304761D01*
X83852380Y-85495238D01*
X83900000Y-85590476D01*
X83947619Y-85638095D01*
X84042857Y-85685714D01*
X84090476Y-85685714D01*
X84185714Y-85638095D01*
X84233333Y-85590476D01*
X84280952Y-85495238D01*
X84280952Y-85304761D01*
X84328571Y-85209523D01*
X84376190Y-85161904D01*
X84471428Y-85114285D01*
X84661904Y-85114285D01*
X84757142Y-85161904D01*
X84804761Y-85209523D01*
X84852380Y-85304761D01*
X84852380Y-85495238D01*
X84804761Y-85590476D01*
X84757142Y-85638095D01*
X84661904Y-85685714D01*
X84471428Y-85685714D01*
X84376190Y-85638095D01*
X84328571Y-85590476D01*
X84280952Y-85495238D01*
%TO.C,C9*%
X89916666Y-75257142D02*
X89964285Y-75304761D01*
X90107142Y-75352380D01*
X90202380Y-75352380D01*
X90345238Y-75304761D01*
X90440476Y-75209523D01*
X90488095Y-75114285D01*
X90535714Y-74923809D01*
X90535714Y-74780952D01*
X90488095Y-74590476D01*
X90440476Y-74495238D01*
X90345238Y-74400000D01*
X90202380Y-74352380D01*
X90107142Y-74352380D01*
X89964285Y-74400000D01*
X89916666Y-74447619D01*
X89440476Y-75352380D02*
X89250000Y-75352380D01*
X89154761Y-75304761D01*
X89107142Y-75257142D01*
X89011904Y-75114285D01*
X88964285Y-74923809D01*
X88964285Y-74542857D01*
X89011904Y-74447619D01*
X89059523Y-74400000D01*
X89154761Y-74352380D01*
X89345238Y-74352380D01*
X89440476Y-74400000D01*
X89488095Y-74447619D01*
X89535714Y-74542857D01*
X89535714Y-74780952D01*
X89488095Y-74876190D01*
X89440476Y-74923809D01*
X89345238Y-74971428D01*
X89154761Y-74971428D01*
X89059523Y-74923809D01*
X89011904Y-74876190D01*
X88964285Y-74780952D01*
%TO.C,D2*%
X90838095Y-91602380D02*
X90838095Y-90602380D01*
X90600000Y-90602380D01*
X90457142Y-90650000D01*
X90361904Y-90745238D01*
X90314285Y-90840476D01*
X90266666Y-91030952D01*
X90266666Y-91173809D01*
X90314285Y-91364285D01*
X90361904Y-91459523D01*
X90457142Y-91554761D01*
X90600000Y-91602380D01*
X90838095Y-91602380D01*
X89885714Y-90697619D02*
X89838095Y-90650000D01*
X89742857Y-90602380D01*
X89504761Y-90602380D01*
X89409523Y-90650000D01*
X89361904Y-90697619D01*
X89314285Y-90792857D01*
X89314285Y-90888095D01*
X89361904Y-91030952D01*
X89933333Y-91602380D01*
X89314285Y-91602380D01*
%TO.C,U5*%
X85452380Y-83138095D02*
X86261904Y-83138095D01*
X86357142Y-83185714D01*
X86404761Y-83233333D01*
X86452380Y-83328571D01*
X86452380Y-83519047D01*
X86404761Y-83614285D01*
X86357142Y-83661904D01*
X86261904Y-83709523D01*
X85452380Y-83709523D01*
X85452380Y-84661904D02*
X85452380Y-84185714D01*
X85928571Y-84138095D01*
X85880952Y-84185714D01*
X85833333Y-84280952D01*
X85833333Y-84519047D01*
X85880952Y-84614285D01*
X85928571Y-84661904D01*
X86023809Y-84709523D01*
X86261904Y-84709523D01*
X86357142Y-84661904D01*
X86404761Y-84614285D01*
X86452380Y-84519047D01*
X86452380Y-84280952D01*
X86404761Y-84185714D01*
X86357142Y-84138095D01*
%TO.C,Y1*%
X48976190Y-77626190D02*
X48976190Y-78102380D01*
X49309523Y-77102380D02*
X48976190Y-77626190D01*
X48642857Y-77102380D01*
X47785714Y-78102380D02*
X48357142Y-78102380D01*
X48071428Y-78102380D02*
X48071428Y-77102380D01*
X48166666Y-77245238D01*
X48261904Y-77340476D01*
X48357142Y-77388095D01*
%TO.C,J10*%
X43752380Y-55021309D02*
X44466666Y-55021309D01*
X44609523Y-54973690D01*
X44704761Y-54878452D01*
X44752380Y-54735595D01*
X44752380Y-54640357D01*
X44752380Y-56021309D02*
X44752380Y-55449880D01*
X44752380Y-55735595D02*
X43752380Y-55735595D01*
X43895238Y-55640357D01*
X43990476Y-55545119D01*
X44038095Y-55449880D01*
X43752380Y-56640357D02*
X43752380Y-56735595D01*
X43800000Y-56830833D01*
X43847619Y-56878452D01*
X43942857Y-56926071D01*
X44133333Y-56973690D01*
X44371428Y-56973690D01*
X44561904Y-56926071D01*
X44657142Y-56878452D01*
X44704761Y-56830833D01*
X44752380Y-56735595D01*
X44752380Y-56640357D01*
X44704761Y-56545119D01*
X44657142Y-56497500D01*
X44561904Y-56449880D01*
X44371428Y-56402261D01*
X44133333Y-56402261D01*
X43942857Y-56449880D01*
X43847619Y-56497500D01*
X43800000Y-56545119D01*
X43752380Y-56640357D01*
%TO.C,R6*%
X38702380Y-62033333D02*
X38226190Y-61700000D01*
X38702380Y-61461904D02*
X37702380Y-61461904D01*
X37702380Y-61842857D01*
X37750000Y-61938095D01*
X37797619Y-61985714D01*
X37892857Y-62033333D01*
X38035714Y-62033333D01*
X38130952Y-61985714D01*
X38178571Y-61938095D01*
X38226190Y-61842857D01*
X38226190Y-61461904D01*
X37702380Y-62890476D02*
X37702380Y-62700000D01*
X37750000Y-62604761D01*
X37797619Y-62557142D01*
X37940476Y-62461904D01*
X38130952Y-62414285D01*
X38511904Y-62414285D01*
X38607142Y-62461904D01*
X38654761Y-62509523D01*
X38702380Y-62604761D01*
X38702380Y-62795238D01*
X38654761Y-62890476D01*
X38607142Y-62938095D01*
X38511904Y-62985714D01*
X38273809Y-62985714D01*
X38178571Y-62938095D01*
X38130952Y-62890476D01*
X38083333Y-62795238D01*
X38083333Y-62604761D01*
X38130952Y-62509523D01*
X38178571Y-62461904D01*
X38273809Y-62414285D01*
%TO.C,R7*%
X40202380Y-62033333D02*
X39726190Y-61700000D01*
X40202380Y-61461904D02*
X39202380Y-61461904D01*
X39202380Y-61842857D01*
X39250000Y-61938095D01*
X39297619Y-61985714D01*
X39392857Y-62033333D01*
X39535714Y-62033333D01*
X39630952Y-61985714D01*
X39678571Y-61938095D01*
X39726190Y-61842857D01*
X39726190Y-61461904D01*
X39202380Y-62366666D02*
X39202380Y-63033333D01*
X40202380Y-62604761D01*
%TO.C,R8*%
X90332380Y-67683333D02*
X89856190Y-67350000D01*
X90332380Y-67111904D02*
X89332380Y-67111904D01*
X89332380Y-67492857D01*
X89380000Y-67588095D01*
X89427619Y-67635714D01*
X89522857Y-67683333D01*
X89665714Y-67683333D01*
X89760952Y-67635714D01*
X89808571Y-67588095D01*
X89856190Y-67492857D01*
X89856190Y-67111904D01*
X89760952Y-68254761D02*
X89713333Y-68159523D01*
X89665714Y-68111904D01*
X89570476Y-68064285D01*
X89522857Y-68064285D01*
X89427619Y-68111904D01*
X89380000Y-68159523D01*
X89332380Y-68254761D01*
X89332380Y-68445238D01*
X89380000Y-68540476D01*
X89427619Y-68588095D01*
X89522857Y-68635714D01*
X89570476Y-68635714D01*
X89665714Y-68588095D01*
X89713333Y-68540476D01*
X89760952Y-68445238D01*
X89760952Y-68254761D01*
X89808571Y-68159523D01*
X89856190Y-68111904D01*
X89951428Y-68064285D01*
X90141904Y-68064285D01*
X90237142Y-68111904D01*
X90284761Y-68159523D01*
X90332380Y-68254761D01*
X90332380Y-68445238D01*
X90284761Y-68540476D01*
X90237142Y-68588095D01*
X90141904Y-68635714D01*
X89951428Y-68635714D01*
X89856190Y-68588095D01*
X89808571Y-68540476D01*
X89760952Y-68445238D01*
%TO.C,R9*%
X85622380Y-64133333D02*
X85146190Y-63800000D01*
X85622380Y-63561904D02*
X84622380Y-63561904D01*
X84622380Y-63942857D01*
X84670000Y-64038095D01*
X84717619Y-64085714D01*
X84812857Y-64133333D01*
X84955714Y-64133333D01*
X85050952Y-64085714D01*
X85098571Y-64038095D01*
X85146190Y-63942857D01*
X85146190Y-63561904D01*
X85622380Y-64609523D02*
X85622380Y-64800000D01*
X85574761Y-64895238D01*
X85527142Y-64942857D01*
X85384285Y-65038095D01*
X85193809Y-65085714D01*
X84812857Y-65085714D01*
X84717619Y-65038095D01*
X84670000Y-64990476D01*
X84622380Y-64895238D01*
X84622380Y-64704761D01*
X84670000Y-64609523D01*
X84717619Y-64561904D01*
X84812857Y-64514285D01*
X85050952Y-64514285D01*
X85146190Y-64561904D01*
X85193809Y-64609523D01*
X85241428Y-64704761D01*
X85241428Y-64895238D01*
X85193809Y-64990476D01*
X85146190Y-65038095D01*
X85050952Y-65085714D01*
%TO.C,R1*%
X43066666Y-67532380D02*
X43400000Y-67056190D01*
X43638095Y-67532380D02*
X43638095Y-66532380D01*
X43257142Y-66532380D01*
X43161904Y-66580000D01*
X43114285Y-66627619D01*
X43066666Y-66722857D01*
X43066666Y-66865714D01*
X43114285Y-66960952D01*
X43161904Y-67008571D01*
X43257142Y-67056190D01*
X43638095Y-67056190D01*
X42114285Y-67532380D02*
X42685714Y-67532380D01*
X42400000Y-67532380D02*
X42400000Y-66532380D01*
X42495238Y-66675238D01*
X42590476Y-66770476D01*
X42685714Y-66818095D01*
%TD*%
M02*
