%TF.GenerationSoftware,KiCad,Pcbnew,5.1.6*%
%TF.CreationDate,2020-09-14T14:33:22+02:00*%
%TF.ProjectId,pi-shield,70692d73-6869-4656-9c64-2e6b69636164,rev?*%
%TF.SameCoordinates,Original*%
%TF.FileFunction,Soldermask,Bot*%
%TF.FilePolarity,Negative*%
%FSLAX46Y46*%
G04 Gerber Fmt 4.6, Leading zero omitted, Abs format (unit mm)*
G04 Created by KiCad (PCBNEW 5.1.6) date 2020-09-14 14:33:22*
%MOMM*%
%LPD*%
G01*
G04 APERTURE LIST*
%ADD10C,0.900000*%
%ADD11C,5.100000*%
%ADD12C,5.500000*%
%ADD13R,1.800000X1.800000*%
%ADD14O,1.800000X1.800000*%
%ADD15O,1.400000X0.900000*%
%ADD16R,2.600000X1.900000*%
%ADD17R,2.700000X3.200000*%
%ADD18R,1.650000X0.700000*%
%ADD19R,1.400000X1.700000*%
%ADD20O,0.900000X1.400000*%
G04 APERTURE END LIST*
%TO.C,U1*%
G36*
G01*
X52900000Y-63450000D02*
X52900000Y-63700000D01*
G75*
G02*
X52775000Y-63825000I-125000J0D01*
G01*
X51450000Y-63825000D01*
G75*
G02*
X51325000Y-63700000I0J125000D01*
G01*
X51325000Y-63450000D01*
G75*
G02*
X51450000Y-63325000I125000J0D01*
G01*
X52775000Y-63325000D01*
G75*
G02*
X52900000Y-63450000I0J-125000D01*
G01*
G37*
G36*
G01*
X52900000Y-64100000D02*
X52900000Y-64350000D01*
G75*
G02*
X52775000Y-64475000I-125000J0D01*
G01*
X51450000Y-64475000D01*
G75*
G02*
X51325000Y-64350000I0J125000D01*
G01*
X51325000Y-64100000D01*
G75*
G02*
X51450000Y-63975000I125000J0D01*
G01*
X52775000Y-63975000D01*
G75*
G02*
X52900000Y-64100000I0J-125000D01*
G01*
G37*
G36*
G01*
X52900000Y-64750000D02*
X52900000Y-65000000D01*
G75*
G02*
X52775000Y-65125000I-125000J0D01*
G01*
X51450000Y-65125000D01*
G75*
G02*
X51325000Y-65000000I0J125000D01*
G01*
X51325000Y-64750000D01*
G75*
G02*
X51450000Y-64625000I125000J0D01*
G01*
X52775000Y-64625000D01*
G75*
G02*
X52900000Y-64750000I0J-125000D01*
G01*
G37*
G36*
G01*
X52900000Y-65400000D02*
X52900000Y-65650000D01*
G75*
G02*
X52775000Y-65775000I-125000J0D01*
G01*
X51450000Y-65775000D01*
G75*
G02*
X51325000Y-65650000I0J125000D01*
G01*
X51325000Y-65400000D01*
G75*
G02*
X51450000Y-65275000I125000J0D01*
G01*
X52775000Y-65275000D01*
G75*
G02*
X52900000Y-65400000I0J-125000D01*
G01*
G37*
G36*
G01*
X52900000Y-66050000D02*
X52900000Y-66300000D01*
G75*
G02*
X52775000Y-66425000I-125000J0D01*
G01*
X51450000Y-66425000D01*
G75*
G02*
X51325000Y-66300000I0J125000D01*
G01*
X51325000Y-66050000D01*
G75*
G02*
X51450000Y-65925000I125000J0D01*
G01*
X52775000Y-65925000D01*
G75*
G02*
X52900000Y-66050000I0J-125000D01*
G01*
G37*
G36*
G01*
X52900000Y-66700000D02*
X52900000Y-66950000D01*
G75*
G02*
X52775000Y-67075000I-125000J0D01*
G01*
X51450000Y-67075000D01*
G75*
G02*
X51325000Y-66950000I0J125000D01*
G01*
X51325000Y-66700000D01*
G75*
G02*
X51450000Y-66575000I125000J0D01*
G01*
X52775000Y-66575000D01*
G75*
G02*
X52900000Y-66700000I0J-125000D01*
G01*
G37*
G36*
G01*
X52900000Y-67350000D02*
X52900000Y-67600000D01*
G75*
G02*
X52775000Y-67725000I-125000J0D01*
G01*
X51450000Y-67725000D01*
G75*
G02*
X51325000Y-67600000I0J125000D01*
G01*
X51325000Y-67350000D01*
G75*
G02*
X51450000Y-67225000I125000J0D01*
G01*
X52775000Y-67225000D01*
G75*
G02*
X52900000Y-67350000I0J-125000D01*
G01*
G37*
G36*
G01*
X52900000Y-68000000D02*
X52900000Y-68250000D01*
G75*
G02*
X52775000Y-68375000I-125000J0D01*
G01*
X51450000Y-68375000D01*
G75*
G02*
X51325000Y-68250000I0J125000D01*
G01*
X51325000Y-68000000D01*
G75*
G02*
X51450000Y-67875000I125000J0D01*
G01*
X52775000Y-67875000D01*
G75*
G02*
X52900000Y-68000000I0J-125000D01*
G01*
G37*
G36*
G01*
X52900000Y-68650000D02*
X52900000Y-68900000D01*
G75*
G02*
X52775000Y-69025000I-125000J0D01*
G01*
X51450000Y-69025000D01*
G75*
G02*
X51325000Y-68900000I0J125000D01*
G01*
X51325000Y-68650000D01*
G75*
G02*
X51450000Y-68525000I125000J0D01*
G01*
X52775000Y-68525000D01*
G75*
G02*
X52900000Y-68650000I0J-125000D01*
G01*
G37*
G36*
G01*
X52900000Y-69300000D02*
X52900000Y-69550000D01*
G75*
G02*
X52775000Y-69675000I-125000J0D01*
G01*
X51450000Y-69675000D01*
G75*
G02*
X51325000Y-69550000I0J125000D01*
G01*
X51325000Y-69300000D01*
G75*
G02*
X51450000Y-69175000I125000J0D01*
G01*
X52775000Y-69175000D01*
G75*
G02*
X52900000Y-69300000I0J-125000D01*
G01*
G37*
G36*
G01*
X47175000Y-69300000D02*
X47175000Y-69550000D01*
G75*
G02*
X47050000Y-69675000I-125000J0D01*
G01*
X45725000Y-69675000D01*
G75*
G02*
X45600000Y-69550000I0J125000D01*
G01*
X45600000Y-69300000D01*
G75*
G02*
X45725000Y-69175000I125000J0D01*
G01*
X47050000Y-69175000D01*
G75*
G02*
X47175000Y-69300000I0J-125000D01*
G01*
G37*
G36*
G01*
X47175000Y-68650000D02*
X47175000Y-68900000D01*
G75*
G02*
X47050000Y-69025000I-125000J0D01*
G01*
X45725000Y-69025000D01*
G75*
G02*
X45600000Y-68900000I0J125000D01*
G01*
X45600000Y-68650000D01*
G75*
G02*
X45725000Y-68525000I125000J0D01*
G01*
X47050000Y-68525000D01*
G75*
G02*
X47175000Y-68650000I0J-125000D01*
G01*
G37*
G36*
G01*
X47175000Y-68000000D02*
X47175000Y-68250000D01*
G75*
G02*
X47050000Y-68375000I-125000J0D01*
G01*
X45725000Y-68375000D01*
G75*
G02*
X45600000Y-68250000I0J125000D01*
G01*
X45600000Y-68000000D01*
G75*
G02*
X45725000Y-67875000I125000J0D01*
G01*
X47050000Y-67875000D01*
G75*
G02*
X47175000Y-68000000I0J-125000D01*
G01*
G37*
G36*
G01*
X47175000Y-67350000D02*
X47175000Y-67600000D01*
G75*
G02*
X47050000Y-67725000I-125000J0D01*
G01*
X45725000Y-67725000D01*
G75*
G02*
X45600000Y-67600000I0J125000D01*
G01*
X45600000Y-67350000D01*
G75*
G02*
X45725000Y-67225000I125000J0D01*
G01*
X47050000Y-67225000D01*
G75*
G02*
X47175000Y-67350000I0J-125000D01*
G01*
G37*
G36*
G01*
X47175000Y-66700000D02*
X47175000Y-66950000D01*
G75*
G02*
X47050000Y-67075000I-125000J0D01*
G01*
X45725000Y-67075000D01*
G75*
G02*
X45600000Y-66950000I0J125000D01*
G01*
X45600000Y-66700000D01*
G75*
G02*
X45725000Y-66575000I125000J0D01*
G01*
X47050000Y-66575000D01*
G75*
G02*
X47175000Y-66700000I0J-125000D01*
G01*
G37*
G36*
G01*
X47175000Y-66050000D02*
X47175000Y-66300000D01*
G75*
G02*
X47050000Y-66425000I-125000J0D01*
G01*
X45725000Y-66425000D01*
G75*
G02*
X45600000Y-66300000I0J125000D01*
G01*
X45600000Y-66050000D01*
G75*
G02*
X45725000Y-65925000I125000J0D01*
G01*
X47050000Y-65925000D01*
G75*
G02*
X47175000Y-66050000I0J-125000D01*
G01*
G37*
G36*
G01*
X47175000Y-65400000D02*
X47175000Y-65650000D01*
G75*
G02*
X47050000Y-65775000I-125000J0D01*
G01*
X45725000Y-65775000D01*
G75*
G02*
X45600000Y-65650000I0J125000D01*
G01*
X45600000Y-65400000D01*
G75*
G02*
X45725000Y-65275000I125000J0D01*
G01*
X47050000Y-65275000D01*
G75*
G02*
X47175000Y-65400000I0J-125000D01*
G01*
G37*
G36*
G01*
X47175000Y-64750000D02*
X47175000Y-65000000D01*
G75*
G02*
X47050000Y-65125000I-125000J0D01*
G01*
X45725000Y-65125000D01*
G75*
G02*
X45600000Y-65000000I0J125000D01*
G01*
X45600000Y-64750000D01*
G75*
G02*
X45725000Y-64625000I125000J0D01*
G01*
X47050000Y-64625000D01*
G75*
G02*
X47175000Y-64750000I0J-125000D01*
G01*
G37*
G36*
G01*
X47175000Y-64100000D02*
X47175000Y-64350000D01*
G75*
G02*
X47050000Y-64475000I-125000J0D01*
G01*
X45725000Y-64475000D01*
G75*
G02*
X45600000Y-64350000I0J125000D01*
G01*
X45600000Y-64100000D01*
G75*
G02*
X45725000Y-63975000I125000J0D01*
G01*
X47050000Y-63975000D01*
G75*
G02*
X47175000Y-64100000I0J-125000D01*
G01*
G37*
G36*
G01*
X47175000Y-63450000D02*
X47175000Y-63700000D01*
G75*
G02*
X47050000Y-63825000I-125000J0D01*
G01*
X45725000Y-63825000D01*
G75*
G02*
X45600000Y-63700000I0J125000D01*
G01*
X45600000Y-63450000D01*
G75*
G02*
X45725000Y-63325000I125000J0D01*
G01*
X47050000Y-63325000D01*
G75*
G02*
X47175000Y-63450000I0J-125000D01*
G01*
G37*
%TD*%
%TO.C,C1*%
G36*
G01*
X43400000Y-72521738D02*
X43400000Y-73478262D01*
G75*
G02*
X43128262Y-73750000I-271738J0D01*
G01*
X42421738Y-73750000D01*
G75*
G02*
X42150000Y-73478262I0J271738D01*
G01*
X42150000Y-72521738D01*
G75*
G02*
X42421738Y-72250000I271738J0D01*
G01*
X43128262Y-72250000D01*
G75*
G02*
X43400000Y-72521738I0J-271738D01*
G01*
G37*
G36*
G01*
X45450000Y-72521738D02*
X45450000Y-73478262D01*
G75*
G02*
X45178262Y-73750000I-271738J0D01*
G01*
X44471738Y-73750000D01*
G75*
G02*
X44200000Y-73478262I0J271738D01*
G01*
X44200000Y-72521738D01*
G75*
G02*
X44471738Y-72250000I271738J0D01*
G01*
X45178262Y-72250000D01*
G75*
G02*
X45450000Y-72521738I0J-271738D01*
G01*
G37*
%TD*%
%TO.C,C2*%
G36*
G01*
X51721738Y-71350000D02*
X52678262Y-71350000D01*
G75*
G02*
X52950000Y-71621738I0J-271738D01*
G01*
X52950000Y-72328262D01*
G75*
G02*
X52678262Y-72600000I-271738J0D01*
G01*
X51721738Y-72600000D01*
G75*
G02*
X51450000Y-72328262I0J271738D01*
G01*
X51450000Y-71621738D01*
G75*
G02*
X51721738Y-71350000I271738J0D01*
G01*
G37*
G36*
G01*
X51721738Y-73400000D02*
X52678262Y-73400000D01*
G75*
G02*
X52950000Y-73671738I0J-271738D01*
G01*
X52950000Y-74378262D01*
G75*
G02*
X52678262Y-74650000I-271738J0D01*
G01*
X51721738Y-74650000D01*
G75*
G02*
X51450000Y-74378262I0J271738D01*
G01*
X51450000Y-73671738D01*
G75*
G02*
X51721738Y-73400000I271738J0D01*
G01*
G37*
%TD*%
%TO.C,C3*%
G36*
G01*
X44678262Y-62100000D02*
X43721738Y-62100000D01*
G75*
G02*
X43450000Y-61828262I0J271738D01*
G01*
X43450000Y-61121738D01*
G75*
G02*
X43721738Y-60850000I271738J0D01*
G01*
X44678262Y-60850000D01*
G75*
G02*
X44950000Y-61121738I0J-271738D01*
G01*
X44950000Y-61828262D01*
G75*
G02*
X44678262Y-62100000I-271738J0D01*
G01*
G37*
G36*
G01*
X44678262Y-64150000D02*
X43721738Y-64150000D01*
G75*
G02*
X43450000Y-63878262I0J271738D01*
G01*
X43450000Y-63171738D01*
G75*
G02*
X43721738Y-62900000I271738J0D01*
G01*
X44678262Y-62900000D01*
G75*
G02*
X44950000Y-63171738I0J-271738D01*
G01*
X44950000Y-63878262D01*
G75*
G02*
X44678262Y-64150000I-271738J0D01*
G01*
G37*
%TD*%
%TO.C,C5*%
G36*
G01*
X81228262Y-56125000D02*
X80271738Y-56125000D01*
G75*
G02*
X80000000Y-55853262I0J271738D01*
G01*
X80000000Y-55146738D01*
G75*
G02*
X80271738Y-54875000I271738J0D01*
G01*
X81228262Y-54875000D01*
G75*
G02*
X81500000Y-55146738I0J-271738D01*
G01*
X81500000Y-55853262D01*
G75*
G02*
X81228262Y-56125000I-271738J0D01*
G01*
G37*
G36*
G01*
X81228262Y-54075000D02*
X80271738Y-54075000D01*
G75*
G02*
X80000000Y-53803262I0J271738D01*
G01*
X80000000Y-53096738D01*
G75*
G02*
X80271738Y-52825000I271738J0D01*
G01*
X81228262Y-52825000D01*
G75*
G02*
X81500000Y-53096738I0J-271738D01*
G01*
X81500000Y-53803262D01*
G75*
G02*
X81228262Y-54075000I-271738J0D01*
G01*
G37*
%TD*%
D10*
%TO.C,H1*%
X75175825Y-50574175D03*
X73850000Y-50025000D03*
X72524175Y-50574175D03*
X71975000Y-51900000D03*
X72524175Y-53225825D03*
X73850000Y-53775000D03*
X75175825Y-53225825D03*
X75725000Y-51900000D03*
D11*
X73850000Y-51900000D03*
%TD*%
%TO.C,H2*%
X73850000Y-68100000D03*
D10*
X75725000Y-68100000D03*
X75175825Y-69425825D03*
X73850000Y-69975000D03*
X72524175Y-69425825D03*
X71975000Y-68100000D03*
X72524175Y-66774175D03*
X73850000Y-66225000D03*
X75175825Y-66774175D03*
%TD*%
D11*
%TO.C,H3*%
X57650000Y-51900000D03*
D10*
X59525000Y-51900000D03*
X58975825Y-53225825D03*
X57650000Y-53775000D03*
X56324175Y-53225825D03*
X55775000Y-51900000D03*
X56324175Y-50574175D03*
X57650000Y-50025000D03*
X58975825Y-50574175D03*
%TD*%
%TO.C,H5*%
X41431891Y-87568109D03*
X40000000Y-86975000D03*
X38568109Y-87568109D03*
X37975000Y-89000000D03*
X38568109Y-90431891D03*
X40000000Y-91025000D03*
X41431891Y-90431891D03*
X42025000Y-89000000D03*
D12*
X40000000Y-89000000D03*
%TD*%
%TO.C,H6*%
X98000000Y-40000000D03*
D10*
X100025000Y-40000000D03*
X99431891Y-41431891D03*
X98000000Y-42025000D03*
X96568109Y-41431891D03*
X95975000Y-40000000D03*
X96568109Y-38568109D03*
X98000000Y-37975000D03*
X99431891Y-38568109D03*
%TD*%
%TO.C,H7*%
X99431891Y-87568109D03*
X98000000Y-86975000D03*
X96568109Y-87568109D03*
X95975000Y-89000000D03*
X96568109Y-90431891D03*
X98000000Y-91025000D03*
X99431891Y-90431891D03*
X100025000Y-89000000D03*
D12*
X98000000Y-89000000D03*
%TD*%
%TO.C,H8*%
X40000000Y-40000000D03*
D10*
X42025000Y-40000000D03*
X41431891Y-41431891D03*
X40000000Y-42025000D03*
X38568109Y-41431891D03*
X37975000Y-40000000D03*
X38568109Y-38568109D03*
X40000000Y-37975000D03*
X41431891Y-38568109D03*
%TD*%
D13*
%TO.C,J1*%
X44870000Y-41270000D03*
D14*
X44870000Y-38730000D03*
X47410000Y-41270000D03*
X47410000Y-38730000D03*
X49950000Y-41270000D03*
X49950000Y-38730000D03*
X52490000Y-41270000D03*
X52490000Y-38730000D03*
X55030000Y-41270000D03*
X55030000Y-38730000D03*
X57570000Y-41270000D03*
X57570000Y-38730000D03*
X60110000Y-41270000D03*
X60110000Y-38730000D03*
X62650000Y-41270000D03*
X62650000Y-38730000D03*
X65190000Y-41270000D03*
X65190000Y-38730000D03*
X67730000Y-41270000D03*
X67730000Y-38730000D03*
X70270000Y-41270000D03*
X70270000Y-38730000D03*
X72810000Y-41270000D03*
X72810000Y-38730000D03*
X75350000Y-41270000D03*
X75350000Y-38730000D03*
X77890000Y-41270000D03*
X77890000Y-38730000D03*
X80430000Y-41270000D03*
X80430000Y-38730000D03*
X82970000Y-41270000D03*
X82970000Y-38730000D03*
X85510000Y-41270000D03*
X85510000Y-38730000D03*
X88050000Y-41270000D03*
X88050000Y-38730000D03*
X90590000Y-41270000D03*
X90590000Y-38730000D03*
X93130000Y-41270000D03*
X93130000Y-38730000D03*
%TD*%
%TO.C,J4*%
G36*
G01*
X81075000Y-67000000D02*
X80125000Y-67000000D01*
G75*
G02*
X79900000Y-66775000I0J225000D01*
G01*
X79900000Y-66325000D01*
G75*
G02*
X80125000Y-66100000I225000J0D01*
G01*
X81075000Y-66100000D01*
G75*
G02*
X81300000Y-66325000I0J-225000D01*
G01*
X81300000Y-66775000D01*
G75*
G02*
X81075000Y-67000000I-225000J0D01*
G01*
G37*
D15*
X80600000Y-65300000D03*
%TD*%
%TO.C,U3*%
G36*
G01*
X82875000Y-56920000D02*
X82875000Y-56570000D01*
G75*
G02*
X83050000Y-56395000I175000J0D01*
G01*
X84850000Y-56395000D01*
G75*
G02*
X85025000Y-56570000I0J-175000D01*
G01*
X85025000Y-56920000D01*
G75*
G02*
X84850000Y-57095000I-175000J0D01*
G01*
X83050000Y-57095000D01*
G75*
G02*
X82875000Y-56920000I0J175000D01*
G01*
G37*
G36*
G01*
X82875000Y-55650000D02*
X82875000Y-55300000D01*
G75*
G02*
X83050000Y-55125000I175000J0D01*
G01*
X84850000Y-55125000D01*
G75*
G02*
X85025000Y-55300000I0J-175000D01*
G01*
X85025000Y-55650000D01*
G75*
G02*
X84850000Y-55825000I-175000J0D01*
G01*
X83050000Y-55825000D01*
G75*
G02*
X82875000Y-55650000I0J175000D01*
G01*
G37*
G36*
G01*
X82875000Y-54380000D02*
X82875000Y-54030000D01*
G75*
G02*
X83050000Y-53855000I175000J0D01*
G01*
X84850000Y-53855000D01*
G75*
G02*
X85025000Y-54030000I0J-175000D01*
G01*
X85025000Y-54380000D01*
G75*
G02*
X84850000Y-54555000I-175000J0D01*
G01*
X83050000Y-54555000D01*
G75*
G02*
X82875000Y-54380000I0J175000D01*
G01*
G37*
G36*
G01*
X82875000Y-53110000D02*
X82875000Y-52760000D01*
G75*
G02*
X83050000Y-52585000I175000J0D01*
G01*
X84850000Y-52585000D01*
G75*
G02*
X85025000Y-52760000I0J-175000D01*
G01*
X85025000Y-53110000D01*
G75*
G02*
X84850000Y-53285000I-175000J0D01*
G01*
X83050000Y-53285000D01*
G75*
G02*
X82875000Y-53110000I0J175000D01*
G01*
G37*
G36*
G01*
X82875000Y-51840000D02*
X82875000Y-51490000D01*
G75*
G02*
X83050000Y-51315000I175000J0D01*
G01*
X84850000Y-51315000D01*
G75*
G02*
X85025000Y-51490000I0J-175000D01*
G01*
X85025000Y-51840000D01*
G75*
G02*
X84850000Y-52015000I-175000J0D01*
G01*
X83050000Y-52015000D01*
G75*
G02*
X82875000Y-51840000I0J175000D01*
G01*
G37*
G36*
G01*
X82875000Y-50570000D02*
X82875000Y-50220000D01*
G75*
G02*
X83050000Y-50045000I175000J0D01*
G01*
X84850000Y-50045000D01*
G75*
G02*
X85025000Y-50220000I0J-175000D01*
G01*
X85025000Y-50570000D01*
G75*
G02*
X84850000Y-50745000I-175000J0D01*
G01*
X83050000Y-50745000D01*
G75*
G02*
X82875000Y-50570000I0J175000D01*
G01*
G37*
G36*
G01*
X82875000Y-49300000D02*
X82875000Y-48950000D01*
G75*
G02*
X83050000Y-48775000I175000J0D01*
G01*
X84850000Y-48775000D01*
G75*
G02*
X85025000Y-48950000I0J-175000D01*
G01*
X85025000Y-49300000D01*
G75*
G02*
X84850000Y-49475000I-175000J0D01*
G01*
X83050000Y-49475000D01*
G75*
G02*
X82875000Y-49300000I0J175000D01*
G01*
G37*
G36*
G01*
X82875000Y-48030000D02*
X82875000Y-47680000D01*
G75*
G02*
X83050000Y-47505000I175000J0D01*
G01*
X84850000Y-47505000D01*
G75*
G02*
X85025000Y-47680000I0J-175000D01*
G01*
X85025000Y-48030000D01*
G75*
G02*
X84850000Y-48205000I-175000J0D01*
G01*
X83050000Y-48205000D01*
G75*
G02*
X82875000Y-48030000I0J175000D01*
G01*
G37*
G36*
G01*
X92175000Y-48030000D02*
X92175000Y-47680000D01*
G75*
G02*
X92350000Y-47505000I175000J0D01*
G01*
X94150000Y-47505000D01*
G75*
G02*
X94325000Y-47680000I0J-175000D01*
G01*
X94325000Y-48030000D01*
G75*
G02*
X94150000Y-48205000I-175000J0D01*
G01*
X92350000Y-48205000D01*
G75*
G02*
X92175000Y-48030000I0J175000D01*
G01*
G37*
G36*
G01*
X92175000Y-49300000D02*
X92175000Y-48950000D01*
G75*
G02*
X92350000Y-48775000I175000J0D01*
G01*
X94150000Y-48775000D01*
G75*
G02*
X94325000Y-48950000I0J-175000D01*
G01*
X94325000Y-49300000D01*
G75*
G02*
X94150000Y-49475000I-175000J0D01*
G01*
X92350000Y-49475000D01*
G75*
G02*
X92175000Y-49300000I0J175000D01*
G01*
G37*
G36*
G01*
X92175000Y-50570000D02*
X92175000Y-50220000D01*
G75*
G02*
X92350000Y-50045000I175000J0D01*
G01*
X94150000Y-50045000D01*
G75*
G02*
X94325000Y-50220000I0J-175000D01*
G01*
X94325000Y-50570000D01*
G75*
G02*
X94150000Y-50745000I-175000J0D01*
G01*
X92350000Y-50745000D01*
G75*
G02*
X92175000Y-50570000I0J175000D01*
G01*
G37*
G36*
G01*
X92175000Y-51840000D02*
X92175000Y-51490000D01*
G75*
G02*
X92350000Y-51315000I175000J0D01*
G01*
X94150000Y-51315000D01*
G75*
G02*
X94325000Y-51490000I0J-175000D01*
G01*
X94325000Y-51840000D01*
G75*
G02*
X94150000Y-52015000I-175000J0D01*
G01*
X92350000Y-52015000D01*
G75*
G02*
X92175000Y-51840000I0J175000D01*
G01*
G37*
G36*
G01*
X92175000Y-53110000D02*
X92175000Y-52760000D01*
G75*
G02*
X92350000Y-52585000I175000J0D01*
G01*
X94150000Y-52585000D01*
G75*
G02*
X94325000Y-52760000I0J-175000D01*
G01*
X94325000Y-53110000D01*
G75*
G02*
X94150000Y-53285000I-175000J0D01*
G01*
X92350000Y-53285000D01*
G75*
G02*
X92175000Y-53110000I0J175000D01*
G01*
G37*
G36*
G01*
X92175000Y-54380000D02*
X92175000Y-54030000D01*
G75*
G02*
X92350000Y-53855000I175000J0D01*
G01*
X94150000Y-53855000D01*
G75*
G02*
X94325000Y-54030000I0J-175000D01*
G01*
X94325000Y-54380000D01*
G75*
G02*
X94150000Y-54555000I-175000J0D01*
G01*
X92350000Y-54555000D01*
G75*
G02*
X92175000Y-54380000I0J175000D01*
G01*
G37*
G36*
G01*
X92175000Y-55650000D02*
X92175000Y-55300000D01*
G75*
G02*
X92350000Y-55125000I175000J0D01*
G01*
X94150000Y-55125000D01*
G75*
G02*
X94325000Y-55300000I0J-175000D01*
G01*
X94325000Y-55650000D01*
G75*
G02*
X94150000Y-55825000I-175000J0D01*
G01*
X92350000Y-55825000D01*
G75*
G02*
X92175000Y-55650000I0J175000D01*
G01*
G37*
G36*
G01*
X92175000Y-56920000D02*
X92175000Y-56570000D01*
G75*
G02*
X92350000Y-56395000I175000J0D01*
G01*
X94150000Y-56395000D01*
G75*
G02*
X94325000Y-56570000I0J-175000D01*
G01*
X94325000Y-56920000D01*
G75*
G02*
X94150000Y-57095000I-175000J0D01*
G01*
X92350000Y-57095000D01*
G75*
G02*
X92175000Y-56920000I0J175000D01*
G01*
G37*
%TD*%
%TO.C,J5*%
G36*
G01*
X41525000Y-75975000D02*
X42475000Y-75975000D01*
G75*
G02*
X42700000Y-76200000I0J-225000D01*
G01*
X42700000Y-76650000D01*
G75*
G02*
X42475000Y-76875000I-225000J0D01*
G01*
X41525000Y-76875000D01*
G75*
G02*
X41300000Y-76650000I0J225000D01*
G01*
X41300000Y-76200000D01*
G75*
G02*
X41525000Y-75975000I225000J0D01*
G01*
G37*
X42000000Y-77675000D03*
X42000000Y-78925000D03*
X42000000Y-80175000D03*
X42000000Y-81425000D03*
%TD*%
%TO.C,C7*%
G36*
G01*
X100187343Y-85375000D02*
X95212657Y-85375000D01*
G75*
G02*
X94950000Y-85112343I0J262657D01*
G01*
X94950000Y-83562657D01*
G75*
G02*
X95212657Y-83300000I262657J0D01*
G01*
X100187343Y-83300000D01*
G75*
G02*
X100450000Y-83562657I0J-262657D01*
G01*
X100450000Y-85112343D01*
G75*
G02*
X100187343Y-85375000I-262657J0D01*
G01*
G37*
G36*
G01*
X100187343Y-80100000D02*
X95212657Y-80100000D01*
G75*
G02*
X94950000Y-79837343I0J262657D01*
G01*
X94950000Y-78287657D01*
G75*
G02*
X95212657Y-78025000I262657J0D01*
G01*
X100187343Y-78025000D01*
G75*
G02*
X100450000Y-78287657I0J-262657D01*
G01*
X100450000Y-79837343D01*
G75*
G02*
X100187343Y-80100000I-262657J0D01*
G01*
G37*
%TD*%
%TO.C,C8*%
G36*
G01*
X84662500Y-89050000D02*
X84137500Y-89050000D01*
G75*
G02*
X83875000Y-88787500I0J262500D01*
G01*
X83875000Y-88162500D01*
G75*
G02*
X84137500Y-87900000I262500J0D01*
G01*
X84662500Y-87900000D01*
G75*
G02*
X84925000Y-88162500I0J-262500D01*
G01*
X84925000Y-88787500D01*
G75*
G02*
X84662500Y-89050000I-262500J0D01*
G01*
G37*
G36*
G01*
X84662500Y-87300000D02*
X84137500Y-87300000D01*
G75*
G02*
X83875000Y-87037500I0J262500D01*
G01*
X83875000Y-86412500D01*
G75*
G02*
X84137500Y-86150000I262500J0D01*
G01*
X84662500Y-86150000D01*
G75*
G02*
X84925000Y-86412500I0J-262500D01*
G01*
X84925000Y-87037500D01*
G75*
G02*
X84662500Y-87300000I-262500J0D01*
G01*
G37*
%TD*%
%TO.C,C9*%
G36*
G01*
X85525000Y-79263890D02*
X85525000Y-77136110D01*
G75*
G02*
X85786110Y-76875000I261110J0D01*
G01*
X87613890Y-76875000D01*
G75*
G02*
X87875000Y-77136110I0J-261110D01*
G01*
X87875000Y-79263890D01*
G75*
G02*
X87613890Y-79525000I-261110J0D01*
G01*
X85786110Y-79525000D01*
G75*
G02*
X85525000Y-79263890I0J261110D01*
G01*
G37*
G36*
G01*
X91925000Y-79263890D02*
X91925000Y-77136110D01*
G75*
G02*
X92186110Y-76875000I261110J0D01*
G01*
X94013890Y-76875000D01*
G75*
G02*
X94275000Y-77136110I0J-261110D01*
G01*
X94275000Y-79263890D01*
G75*
G02*
X94013890Y-79525000I-261110J0D01*
G01*
X92186110Y-79525000D01*
G75*
G02*
X91925000Y-79263890I0J261110D01*
G01*
G37*
%TD*%
D16*
%TO.C,D2*%
X92100000Y-88500000D03*
X88100000Y-88500000D03*
%TD*%
D17*
%TO.C,U5*%
X90400000Y-83700000D03*
D18*
X87700000Y-85605000D03*
X87700000Y-84335000D03*
X87700000Y-83065000D03*
X87700000Y-81795000D03*
X93100000Y-81795000D03*
X93100000Y-83065000D03*
X93100000Y-84335000D03*
X93100000Y-85605000D03*
%TD*%
D19*
%TO.C,Y1*%
X47350000Y-75750000D03*
X47350000Y-71950000D03*
X49650000Y-71950000D03*
X49650000Y-75750000D03*
%TD*%
%TO.C,J10*%
G36*
G01*
X40688095Y-51075000D02*
X38111905Y-51075000D01*
G75*
G02*
X37850000Y-50813095I0J261905D01*
G01*
X37850000Y-49136905D01*
G75*
G02*
X38111905Y-48875000I261905J0D01*
G01*
X40688095Y-48875000D01*
G75*
G02*
X40950000Y-49136905I0J-261905D01*
G01*
X40950000Y-50813095D01*
G75*
G02*
X40688095Y-51075000I-261905J0D01*
G01*
G37*
G36*
G01*
X40688095Y-59925000D02*
X38111905Y-59925000D01*
G75*
G02*
X37850000Y-59663095I0J261905D01*
G01*
X37850000Y-57986905D01*
G75*
G02*
X38111905Y-57725000I261905J0D01*
G01*
X40688095Y-57725000D01*
G75*
G02*
X40950000Y-57986905I0J-261905D01*
G01*
X40950000Y-59663095D01*
G75*
G02*
X40688095Y-59925000I-261905J0D01*
G01*
G37*
G36*
G01*
X42925000Y-52975000D02*
X41675000Y-52975000D01*
G75*
G02*
X41450000Y-52750000I0J225000D01*
G01*
X41450000Y-52300000D01*
G75*
G02*
X41675000Y-52075000I225000J0D01*
G01*
X42925000Y-52075000D01*
G75*
G02*
X43150000Y-52300000I0J-225000D01*
G01*
X43150000Y-52750000D01*
G75*
G02*
X42925000Y-52975000I-225000J0D01*
G01*
G37*
G36*
G01*
X42925000Y-54225000D02*
X41675000Y-54225000D01*
G75*
G02*
X41450000Y-54000000I0J225000D01*
G01*
X41450000Y-53550000D01*
G75*
G02*
X41675000Y-53325000I225000J0D01*
G01*
X42925000Y-53325000D01*
G75*
G02*
X43150000Y-53550000I0J-225000D01*
G01*
X43150000Y-54000000D01*
G75*
G02*
X42925000Y-54225000I-225000J0D01*
G01*
G37*
G36*
G01*
X42925000Y-55475000D02*
X41675000Y-55475000D01*
G75*
G02*
X41450000Y-55250000I0J225000D01*
G01*
X41450000Y-54800000D01*
G75*
G02*
X41675000Y-54575000I225000J0D01*
G01*
X42925000Y-54575000D01*
G75*
G02*
X43150000Y-54800000I0J-225000D01*
G01*
X43150000Y-55250000D01*
G75*
G02*
X42925000Y-55475000I-225000J0D01*
G01*
G37*
G36*
G01*
X42925000Y-56725000D02*
X41675000Y-56725000D01*
G75*
G02*
X41450000Y-56500000I0J225000D01*
G01*
X41450000Y-56050000D01*
G75*
G02*
X41675000Y-55825000I225000J0D01*
G01*
X42925000Y-55825000D01*
G75*
G02*
X43150000Y-56050000I0J-225000D01*
G01*
X43150000Y-56500000D01*
G75*
G02*
X42925000Y-56725000I-225000J0D01*
G01*
G37*
%TD*%
%TO.C,J6*%
G36*
G01*
X46900000Y-87975000D02*
X46900000Y-87025000D01*
G75*
G02*
X47125000Y-86800000I225000J0D01*
G01*
X47575000Y-86800000D01*
G75*
G02*
X47800000Y-87025000I0J-225000D01*
G01*
X47800000Y-87975000D01*
G75*
G02*
X47575000Y-88200000I-225000J0D01*
G01*
X47125000Y-88200000D01*
G75*
G02*
X46900000Y-87975000I0J225000D01*
G01*
G37*
D20*
X48600000Y-87500000D03*
X49850000Y-87500000D03*
X51100000Y-87500000D03*
X52350000Y-87500000D03*
X53600000Y-87500000D03*
X54850000Y-87500000D03*
%TD*%
%TO.C,J7*%
G36*
G01*
X58750000Y-87975000D02*
X58750000Y-87025000D01*
G75*
G02*
X58975000Y-86800000I225000J0D01*
G01*
X59425000Y-86800000D01*
G75*
G02*
X59650000Y-87025000I0J-225000D01*
G01*
X59650000Y-87975000D01*
G75*
G02*
X59425000Y-88200000I-225000J0D01*
G01*
X58975000Y-88200000D01*
G75*
G02*
X58750000Y-87975000I0J225000D01*
G01*
G37*
X60450000Y-87500000D03*
X61700000Y-87500000D03*
X62950000Y-87500000D03*
X64200000Y-87500000D03*
X65450000Y-87500000D03*
X66700000Y-87500000D03*
X67950000Y-87500000D03*
X69200000Y-87500000D03*
X70450000Y-87500000D03*
X71700000Y-87500000D03*
X72950000Y-87500000D03*
X74200000Y-87500000D03*
X75450000Y-87500000D03*
%TD*%
%TO.C,R6*%
G36*
G01*
X38531250Y-66175000D02*
X37968750Y-66175000D01*
G75*
G02*
X37725000Y-65931250I0J243750D01*
G01*
X37725000Y-65443750D01*
G75*
G02*
X37968750Y-65200000I243750J0D01*
G01*
X38531250Y-65200000D01*
G75*
G02*
X38775000Y-65443750I0J-243750D01*
G01*
X38775000Y-65931250D01*
G75*
G02*
X38531250Y-66175000I-243750J0D01*
G01*
G37*
G36*
G01*
X38531250Y-64600000D02*
X37968750Y-64600000D01*
G75*
G02*
X37725000Y-64356250I0J243750D01*
G01*
X37725000Y-63868750D01*
G75*
G02*
X37968750Y-63625000I243750J0D01*
G01*
X38531250Y-63625000D01*
G75*
G02*
X38775000Y-63868750I0J-243750D01*
G01*
X38775000Y-64356250D01*
G75*
G02*
X38531250Y-64600000I-243750J0D01*
G01*
G37*
%TD*%
%TO.C,R7*%
G36*
G01*
X40031250Y-64600000D02*
X39468750Y-64600000D01*
G75*
G02*
X39225000Y-64356250I0J243750D01*
G01*
X39225000Y-63868750D01*
G75*
G02*
X39468750Y-63625000I243750J0D01*
G01*
X40031250Y-63625000D01*
G75*
G02*
X40275000Y-63868750I0J-243750D01*
G01*
X40275000Y-64356250D01*
G75*
G02*
X40031250Y-64600000I-243750J0D01*
G01*
G37*
G36*
G01*
X40031250Y-66175000D02*
X39468750Y-66175000D01*
G75*
G02*
X39225000Y-65931250I0J243750D01*
G01*
X39225000Y-65443750D01*
G75*
G02*
X39468750Y-65200000I243750J0D01*
G01*
X40031250Y-65200000D01*
G75*
G02*
X40275000Y-65443750I0J-243750D01*
G01*
X40275000Y-65931250D01*
G75*
G02*
X40031250Y-66175000I-243750J0D01*
G01*
G37*
%TD*%
%TO.C,R8*%
G36*
G01*
X88731250Y-67550000D02*
X88168750Y-67550000D01*
G75*
G02*
X87925000Y-67306250I0J243750D01*
G01*
X87925000Y-66818750D01*
G75*
G02*
X88168750Y-66575000I243750J0D01*
G01*
X88731250Y-66575000D01*
G75*
G02*
X88975000Y-66818750I0J-243750D01*
G01*
X88975000Y-67306250D01*
G75*
G02*
X88731250Y-67550000I-243750J0D01*
G01*
G37*
G36*
G01*
X88731250Y-69125000D02*
X88168750Y-69125000D01*
G75*
G02*
X87925000Y-68881250I0J243750D01*
G01*
X87925000Y-68393750D01*
G75*
G02*
X88168750Y-68150000I243750J0D01*
G01*
X88731250Y-68150000D01*
G75*
G02*
X88975000Y-68393750I0J-243750D01*
G01*
X88975000Y-68881250D01*
G75*
G02*
X88731250Y-69125000I-243750J0D01*
G01*
G37*
%TD*%
%TO.C,R9*%
G36*
G01*
X86318750Y-63025000D02*
X86881250Y-63025000D01*
G75*
G02*
X87125000Y-63268750I0J-243750D01*
G01*
X87125000Y-63756250D01*
G75*
G02*
X86881250Y-64000000I-243750J0D01*
G01*
X86318750Y-64000000D01*
G75*
G02*
X86075000Y-63756250I0J243750D01*
G01*
X86075000Y-63268750D01*
G75*
G02*
X86318750Y-63025000I243750J0D01*
G01*
G37*
G36*
G01*
X86318750Y-64600000D02*
X86881250Y-64600000D01*
G75*
G02*
X87125000Y-64843750I0J-243750D01*
G01*
X87125000Y-65331250D01*
G75*
G02*
X86881250Y-65575000I-243750J0D01*
G01*
X86318750Y-65575000D01*
G75*
G02*
X86075000Y-65331250I0J243750D01*
G01*
X86075000Y-64843750D01*
G75*
G02*
X86318750Y-64600000I243750J0D01*
G01*
G37*
%TD*%
%TO.C,R1*%
G36*
G01*
X43200000Y-65931250D02*
X43200000Y-65368750D01*
G75*
G02*
X43443750Y-65125000I243750J0D01*
G01*
X43931250Y-65125000D01*
G75*
G02*
X44175000Y-65368750I0J-243750D01*
G01*
X44175000Y-65931250D01*
G75*
G02*
X43931250Y-66175000I-243750J0D01*
G01*
X43443750Y-66175000D01*
G75*
G02*
X43200000Y-65931250I0J243750D01*
G01*
G37*
G36*
G01*
X41625000Y-65931250D02*
X41625000Y-65368750D01*
G75*
G02*
X41868750Y-65125000I243750J0D01*
G01*
X42356250Y-65125000D01*
G75*
G02*
X42600000Y-65368750I0J-243750D01*
G01*
X42600000Y-65931250D01*
G75*
G02*
X42356250Y-66175000I-243750J0D01*
G01*
X41868750Y-66175000D01*
G75*
G02*
X41625000Y-65931250I0J243750D01*
G01*
G37*
%TD*%
M02*
